
<svg xmlns="http://www.w3.org/2000/svg" height="24px" viewBox="0 -960 960 960" width="24px" fill="#2f2d3e"><path d="M480.22-820.67q4.78 0 9.61 1 4.84 1 9.84 3l212 78.34q16.07 6.52 26.2 21.03Q748-702.8 748-684.67v178q0 5.5-3.37 8.75t-8.67 3.25q-5.29 0-8.63-3.35-3.33-3.36-3.33-8.65v-179.66q0-9.34-5.5-17.67-5.5-8.33-15.5-12.33L491-794q-5-2.67-11-2.67T469-794l-212 77.67q-10 4-15.5 12.33t-5.5 17.67v169q0 64.66 18.83 121.83 18.84 57.17 51.17 103t74.67 79q42.33 33.17 88.66 49.83 4.67 2 7.34 6.5 2.66 4.5 1.43 9.66-1.43 5.51-7.1 7.51t-10 0q-114.67-43.67-181.83-149.99Q212-396.32 212-517.33v-167.34q0-18.13 10.13-32.63 10.13-14.51 26.2-21.03l212-78.34q5.42-2.66 9.84-3.33 4.41-.67 10.05-.67ZM682.65-132q-60.68 0-103-42.33-42.32-42.34-42.32-103 0-61.17 42.32-103.59 42.31-42.41 103.34-42.41 60.34 0 102.68 42.41Q828-338.5 828-277.33q0 60.66-42.33 103Q743.33-132 682.65-132ZM480-475.33ZM681.92-278q25.31 0 43.03-17.95 17.72-17.95 17.72-42.76 0-24.8-17.91-42.71-17.92-17.91-42.72-17.91-24.8 0-42.76 17.63-17.95 17.64-17.95 42.84 0 25.19 17.92 43.03Q657.17-278 681.92-278Zm.21 120.67q26.79 0 51-10.34Q757.33-178 775-198.33q3.33-4 2.17-9.5-1.17-5.5-6.17-7.84-20.76-11-43.46-16.33-22.7-5.33-45.95-5.33-23.26 0-45.59 5.33-22.33 5.33-43 16.33-5 2.34-6.5 7.84T589-198q17.67 20.67 42 30.67t51.13 10Z"/></svg>