<svg xmlns="http://www.w3.org/2000/svg" data-name="Layer 1" viewBox="0 0 100 125" x="0px" y="0px"><path d="M72.07,36.17a4.51,4.51,0,0,0-6-2.05L42.34,45.83a35.59,35.59,0,0,0-1.56-7.71,10.83,10.83,0,0,0-3.26-4.57,5.31,5.31,0,0,0-4.65-1.35c-3.37.93-3,3.47-2.14,7.53a23.14,23.14,0,0,1,.36,6.46,7.08,7.08,0,0,1-.75,2.67,50.51,50.51,0,0,0-2.46,5.67,7.54,7.54,0,0,0,.35,5.8l6.15,12.43a8.75,8.75,0,0,0,11.73,4l20-9.9a4.37,4.37,0,0,0,2-5.84h0a4.34,4.34,0,0,0-2.3-2.11,4.39,4.39,0,0,0,.49-4.65,4.33,4.33,0,0,0-2.46-2.18,4.4,4.4,0,0,0,.52-1,4.17,4.17,0,0,0-.22-3.23,4.12,4.12,0,0,0-1.7-1.8L70,42.22a4.52,4.52,0,0,0,2-6ZM70.54,39a2.69,2.69,0,0,1-1.34,1.53L54.75,47.7a.92.92,0,0,0-.42,1.24.93.93,0,0,0,1.25.42l3.7-1.83a2.37,2.37,0,0,1,3.3,2.88,2.35,2.35,0,0,1-1.2,1.37l-.94.46h0l-2.75,1.36a.93.93,0,0,0,.82,1.67l2.76-1.37a2.53,2.53,0,0,1,1.91-.12,2.46,2.46,0,0,1,1.44,1.26,2.52,2.52,0,0,1-1.13,3.37l-2.75,1.36a.93.93,0,1,0,.82,1.66l1.53-.75a2.49,2.49,0,0,1,3.34,1.13,2.44,2.44,0,0,1,.13,1.91,2.48,2.48,0,0,1-1.26,1.44l-20,9.89a6.9,6.9,0,0,1-9.24-3.12L29.9,59.5a5.62,5.62,0,0,1-.26-4.35A46.59,46.59,0,0,1,32,49.7a8.91,8.91,0,0,0,1-3.37,25,25,0,0,0-.41-7c-1-4.63-.61-5,.82-5.35a2.1,2.1,0,0,1,.51-.06A4.2,4.2,0,0,1,36.36,35,9,9,0,0,1,39,38.77a39.54,39.54,0,0,1,1.57,8.56.92.92,0,0,0,.47.74.9.9,0,0,0,.87,0L66.84,35.79A2.65,2.65,0,0,1,70.4,37,2.65,2.65,0,0,1,70.54,39Z" fill="#2f2d3e"/><path d="M43.71,30.53a1,1,0,0,0,.69.3.92.92,0,0,0,.63-.25.93.93,0,0,0,0-1.31l-2.9-3.13a.93.93,0,0,0-1.36,1.26Z" fill="#2f2d3e"/><path d="M51.65,28.48h0a.93.93,0,0,0,.93-.89l.16-4.26a.93.93,0,0,0-.89-1,.91.91,0,0,0-1,.89l-.17,4.26A.93.93,0,0,0,51.65,28.48Z" fill="#2f2d3e"/><path d="M58.63,32.24a1,1,0,0,0,.63-.24l3.13-2.9a.93.93,0,1,0-1.27-1.36L58,30.63A.94.94,0,0,0,57.94,32,1,1,0,0,0,58.63,32.24Z" fill="#2f2d3e"/></svg>