<svg xmlns="http://www.w3.org/2000/svg" xmlns:xlink="http://www.w3.org/1999/xlink" version="1.1" x="0px" y="0px" viewBox="0 0 100 125" style="enable-background:new 0 0 100 100;" xml:space="preserve"><style type="text/css">
	.st0{fill-rule:evenodd;clip-rule:evenodd;}
</style><path class="st0" d="M20.25,63.51C11.29,63.51,4,70.8,4,79.75C4,88.71,11.29,96,20.25,96s16.25-7.29,16.25-16.25  C36.49,70.8,29.2,63.51,20.25,63.51z M20.25,93.76c-7.72,0-14-6.28-14-14c0-7.72,6.28-14,14-14s14,6.28,14,14  C34.25,87.47,27.97,93.76,20.25,93.76z M20.25,68c-6.48,0-11.75,5.27-11.75,11.75c0,6.48,5.27,11.75,11.75,11.75  c6.48,0,11.75-5.27,11.75-11.75C32,73.27,26.73,68,20.25,68z M20.25,89.26c-5.24,0-9.51-4.27-9.51-9.51s4.27-9.51,9.51-9.51  s9.51,4.27,9.51,9.51S25.49,89.26,20.25,89.26z M22.76,79.69c0.71,0.71,1.1,1.65,1.1,2.65c0,1.58-1,2.94-2.4,3.47v0.73  c0,0.62-0.5,1.12-1.12,1.12c-0.62,0-1.12-0.5-1.12-1.12v-0.6c-1.06-0.28-1.97-1.01-2.45-2.04c-0.26-0.56-0.02-1.23,0.55-1.49  c0.56-0.26,1.23-0.02,1.49,0.55c0.24,0.52,0.77,0.85,1.34,0.85c0.81,0,1.47-0.66,1.47-1.47c0-0.4-0.16-0.78-0.44-1.07  c-0.26-0.26-0.59-0.4-0.92-0.4c0,0-0.01,0-0.01,0c-0.93,0-1.82-0.38-2.51-1.06c-0.71-0.71-1.1-1.65-1.1-2.65  c0-1.66,1.09-3.07,2.59-3.54v-0.66c0-0.62,0.5-1.12,1.12-1.12c0.62,0,1.12,0.5,1.12,1.12v0.66c0.98,0.31,1.81,1.02,2.25,1.98  c0.26,0.56,0.02,1.23-0.55,1.49c-0.56,0.26-1.23,0.02-1.49-0.55c-0.24-0.52-0.77-0.85-1.34-0.85c-0.81,0-1.47,0.66-1.47,1.47  c0,0.4,0.16,0.78,0.44,1.07c0.26,0.26,0.59,0.4,0.92,0.4c0,0,0.01,0,0.01,0C21.19,78.63,22.08,79.01,22.76,79.69z M45.64,65.3  l0.38,2.08c0.18,1.02,1.07,1.76,2.11,1.76h3.75c1.04,0,1.92-0.74,2.11-1.76l0.38-2.08c1.17-0.33,2.31-0.8,3.38-1.4l1.74,1.2  c0.85,0.59,2,0.49,2.73-0.25l2.65-2.65c0.73-0.73,0.84-1.88,0.25-2.73l-1.2-1.74c0.6-1.07,1.07-2.2,1.4-3.38l2.08-0.38  c1.02-0.18,1.76-1.07,1.76-2.11v-3.75c0-1.04-0.74-1.92-1.76-2.11l-2.08-0.38c-0.33-1.17-0.8-2.31-1.4-3.38l1.2-1.74  c0.59-0.85,0.49-2-0.25-2.73l-2.65-2.65c-0.73-0.73-1.88-0.84-2.73-0.25l-1.74,1.2c-1.07-0.6-2.2-1.07-3.38-1.4l-0.38-2.08  c-0.18-1.02-1.07-1.76-2.11-1.76h-3.75c-1.04,0-1.92,0.74-2.11,1.76l-0.38,2.08c-1.17,0.33-2.31,0.8-3.38,1.4l-1.74-1.2  c-0.85-0.59-2-0.49-2.73,0.25l-2.65,2.65c-0.73,0.73-0.84,1.88-0.25,2.73l1.2,1.74c-0.6,1.07-1.07,2.2-1.4,3.38l-2.08,0.38  c-1.02,0.18-1.76,1.07-1.76,2.11v3.75c0,1.04,0.74,1.92,1.76,2.11l2.08,0.38c0.33,1.17,0.8,2.31,1.4,3.37l-1.2,1.74  c-0.59,0.85-0.49,2,0.25,2.73l2.65,2.65c0.73,0.73,1.88,0.84,2.73,0.25l1.74-1.2C43.33,64.49,44.47,64.96,45.64,65.3z M41.04,62.02  l-1.72,1.19l-2.53-2.53l1.19-1.72c0.47-0.68,0.51-1.55,0.11-2.27c-0.53-0.95-0.95-1.96-1.24-3c-0.22-0.8-0.87-1.38-1.68-1.53  l-2.06-0.37v-3.58l2.06-0.37c0.81-0.15,1.46-0.73,1.68-1.53c0.29-1.04,0.71-2.05,1.24-3c0.41-0.72,0.37-1.59-0.11-2.27l-1.19-1.72  l2.53-2.53l1.72,1.19c0.68,0.47,1.55,0.51,2.27,0.11c0.95-0.53,1.96-0.95,3-1.24c0.8-0.22,1.38-0.87,1.53-1.68l0.37-2.06h3.58  l0.37,2.06c0.15,0.81,0.73,1.46,1.53,1.68c1.04,0.29,2.05,0.71,3,1.24c0.72,0.41,1.59,0.36,2.27-0.11l1.72-1.19l2.53,2.53  l-1.19,1.72c-0.47,0.68-0.51,1.55-0.11,2.27c0.53,0.95,0.95,1.95,1.24,3c0.22,0.8,0.87,1.38,1.68,1.53l2.06,0.37v3.58l-2.06,0.37  c-0.81,0.15-1.46,0.73-1.68,1.53c-0.29,1.04-0.71,2.05-1.24,3c-0.41,0.72-0.37,1.59,0.11,2.27l1.19,1.72l-2.53,2.53l-1.72-1.19  c-0.68-0.47-1.55-0.51-2.27-0.11c-0.95,0.53-1.96,0.95-3,1.24c-0.8,0.22-1.38,0.87-1.53,1.68l-0.37,2.06h-3.58l-0.37-2.06  c-0.15-0.81-0.73-1.46-1.53-1.68c-1.04-0.29-2.05-0.71-3-1.24C42.59,61.51,41.72,61.55,41.04,62.02z M60.36,50  c0-5.71-4.65-10.36-10.36-10.36S39.64,44.29,39.64,50c0,5.71,4.65,10.36,10.36,10.36S60.36,55.71,60.36,50z M41.88,50  c0-4.48,3.64-8.12,8.12-8.12s8.12,3.64,8.12,8.12s-3.64,8.12-8.12,8.12S41.88,54.48,41.88,50z M79.75,4  c-8.96,0-16.25,7.29-16.25,16.25c0,8.96,7.29,16.25,16.25,16.25S96,29.2,96,20.25C96,11.29,88.71,4,79.75,4z M79.75,34.25  c-7.72,0-14-6.28-14-14c0-7.72,6.28-14,14-14s14,6.28,14,14C93.76,27.97,87.47,34.25,79.75,34.25z M79.75,8.12  c-6.68,0-12.12,5.44-12.12,12.12c0,6.68,5.44,12.12,12.12,12.12s12.12-5.44,12.12-12.12C91.88,13.56,86.44,8.12,79.75,8.12z   M80.88,30.06v-0.43c0-0.62-0.5-1.12-1.12-1.12s-1.12,0.5-1.12,1.12v0.43c-4.55-0.52-8.17-4.14-8.69-8.69h0.43  c0.62,0,1.12-0.5,1.12-1.12c0-0.62-0.5-1.12-1.12-1.12h-0.43c0.52-4.55,4.14-8.17,8.69-8.69v0.43c0,0.62,0.5,1.12,1.12,1.12  s1.12-0.5,1.12-1.12v-0.43c4.55,0.52,8.17,4.14,8.69,8.69h-0.43c-0.62,0-1.12,0.5-1.12,1.12c0,0.62,0.5,1.12,1.12,1.12h0.43  C89.05,25.92,85.43,29.54,80.88,30.06z M84.21,22.4c0.48,0.39,0.56,1.09,0.17,1.58c-0.22,0.28-0.55,0.42-0.87,0.42  c-0.25,0-0.5-0.08-0.7-0.25l-2.78-2.24c-0.09,0.01-0.18,0.03-0.27,0.03c-0.93,0-1.68-0.75-1.68-1.68c0-0.5,0.22-0.94,0.56-1.25  v-4.74c0-0.62,0.5-1.12,1.12-1.12s1.12,0.5,1.12,1.12V19c0.32,0.29,0.53,0.7,0.55,1.15L84.21,22.4z M14.28,57.92  c-0.57-2.59-0.86-5.26-0.86-7.92c0-20.17,16.41-36.59,36.59-36.59c1.68,0,3.37,0.12,5.03,0.34L52.6,10.6  c-0.38-0.49-0.28-1.2,0.21-1.57c0.49-0.38,1.2-0.29,1.57,0.21l4.18,5.45c0.18,0.24,0.26,0.53,0.22,0.83  c-0.04,0.3-0.19,0.56-0.43,0.74l-5.45,4.18c-0.49,0.38-1.2,0.29-1.57-0.21c-0.38-0.49-0.28-1.2,0.21-1.57l3.45-2.65  c-1.65-0.24-3.32-0.36-4.99-0.36c-18.94,0-34.34,15.41-34.34,34.34c0,2.5,0.27,5,0.81,7.44c0.13,0.61-0.25,1.2-0.85,1.34  c-0.08,0.02-0.16,0.03-0.24,0.03C14.86,58.8,14.39,58.45,14.28,57.92z M85.73,42.08c0.57,2.59,0.86,5.25,0.86,7.92  c0,20.17-16.41,36.59-36.59,36.59c-1.72,0-3.45-0.12-5.15-0.36l2.39,3.33c0.36,0.5,0.25,1.2-0.26,1.57  c-0.2,0.14-0.43,0.21-0.65,0.21c-0.35,0-0.69-0.16-0.91-0.47l-4.01-5.58c-0.36-0.5-0.25-1.2,0.26-1.57l5.58-4.01  c0.5-0.36,1.2-0.25,1.57,0.26c0.36,0.5,0.25,1.2-0.26,1.57L45.12,84c1.61,0.23,3.25,0.35,4.88,0.35c18.94,0,34.34-15.41,34.34-34.34  c0-2.51-0.27-5.01-0.81-7.44c-0.13-0.6,0.25-1.2,0.85-1.34C84.99,41.09,85.59,41.47,85.73,42.08z M55.32,47.7l-7.14,6.29  c-0.21,0.19-0.48,0.28-0.74,0.28c-0.31,0-0.61-0.13-0.83-0.37l-2.88-3.2c-0.41-0.46-0.38-1.17,0.08-1.58  c0.46-0.42,1.17-0.38,1.58,0.08l2.14,2.37l6.31-5.56c0.47-0.41,1.17-0.36,1.58,0.1C55.83,46.58,55.78,47.29,55.32,47.7z" fill="#2f2d3e"/></svg>