<svg version="1.1" id="Layer_1" xmlns="http://www.w3.org/2000/svg" xmlns:xlink="http://www.w3.org/1999/xlink" x="0px" y="0px" viewBox="0 0 500 500" style="width: 188px;" xml:space="preserve" data-imageid="family-meal-29" imageName="Family Meal" class="illustrations_image">
<style type="text/css">
	.st0_family-meal-29{fill:#FFDAAE;}
	.st1_family-meal-29{fill:url(#SVGID_1_);}
	.st2_family-meal-29{fill:url(#SVGID_00000072248877880311771410000012228828153650443695_);}
	.st3_family-meal-29{fill:#5C2D1D;}
	.st4_family-meal-29{fill:#2A343D;}
	.st5_family-meal-29{fill:#F8F5E6;}
	.st6_family-meal-29{fill:#68E1FD;}
	.st7_family-meal-29{fill:#FFC6B2;}
	.st8_family-meal-29{fill:#EF7816;}
	.st9_family-meal-29{fill:#EA6453;}
	.st10_family-meal-29{opacity:0.58;fill:#2A343D;enable-background:new    ;}
	.st11_family-meal-29{fill:url(#SVGID_00000116236480224540866870000011578270043761942687_);}
	.st12_family-meal-29{opacity:0.29;fill:#2A343D;enable-background:new    ;}
	.st13_family-meal-29{fill:url(#SVGID_00000073707099257867717200000016109560775754220191_);}
	.st14_family-meal-29{fill:#99CE45;}
	.st15_family-meal-29{fill:url(#SVGID_00000040541798692911904040000002866440049205981332_);}
	.st16_family-meal-29{fill:url(#SVGID_00000027569563654374292490000016948610365755884959_);}
	.st17_family-meal-29{opacity:0.68;fill:#2A343D;enable-background:new    ;}
	.st18_family-meal-29{fill:#FED337;}
	.st19_family-meal-29{fill:none;}
	.st20_family-meal-29{opacity:0.1;fill:#2A343D;enable-background:new    ;}
</style>
<g id="background_family-meal-29">
	<path class="st0_family-meal-29" d="M243.1,415.1L20.2,283.4c-7.1-4-13.2-10.5-6.3-14.8l223.8-129c3.4-2.1,8.4-3.4,11.9-1.5l234,135.9&#10;&#9;&#9;c7.1,4.1,8.4,15.6,1.3,19.8L272.5,414.9C263.4,420.2,252.3,420.3,243.1,415.1z"/>
	
		<linearGradient id="SVGID_1_-family-meal-29" gradientUnits="userSpaceOnUse" x1="358.4386" y1="700.5182" x2="161.9886" y2="860.4182" gradientTransform="matrix(1 0 0 1 0 -498)">
		<stop offset="0" style="stop-color:#5C2D1D"/>
		<stop offset="1" style="stop-color:#F8F5E6;stop-opacity:0"/>
	</linearGradient>
	<path class="st1_family-meal-29" d="M235.1,390.1l122.5-83.9l-125.8-77.5l-127.9,78C125.8,324.7,211.3,374.7,235.1,390.1z"/>
	
		<linearGradient id="SVGID_00000058553778272678619590000009032674698500587156_-family-meal-29" gradientUnits="userSpaceOnUse" x1="107.383" y1="733.3945" x2="43.933" y2="785.0446" gradientTransform="matrix(1 0 0 1 0 -498)">
		<stop offset="0" style="stop-color:#5C2D1D"/>
		<stop offset="1" style="stop-color:#F8F5E6;stop-opacity:0"/>
	</linearGradient>
	<path style="fill:url(#SVGID_00000058553778272678619590000009032674698500587156_);" d="M61,295.9l41.8-32.3l-31.2-13l-42.2,23.8&#10;&#9;&#9;C39.3,282.5,50.3,289,61,295.9z"/>
</g>
<g id="characters_family-meal-29">
	<polyline class="st3_family-meal-29" points="302.2,213.2 302.2,253.3 305.2,253.3 305.9,212.1 &#9;"/>
	<polyline class="st3_family-meal-29" points="319.1,197.7 325.1,241.4 322.1,241.4 315.9,199.4 &#9;"/>
	<path class="st3_family-meal-29" d="M320.8,156.2c-0.8,2.2-5.2,35.7-5.2,35.7l-4.5-1.5l5.8-34.4"/>
	<path class="st4_family-meal-29" d="M308.4,189.4c0,0,12,4.6,10.8,9.1s-10.8,15.6-16.9,14.7s-13.6-6.3-13.6-6.3"/>
	<path class="st5_family-meal-29" d="M308.4,183.9c0,0,12,4.6,10.8,9.1s-10.8,15.6-16.9,14.7s-13.6-6.3-13.6-6.3"/>
	<path class="st5_family-meal-29" d="M313.1,141.8c0,0,11.6,2.9,12.8,9.6s1.5,19-14.9,14.2s-8.7-17.1-8.7-17.1"/>
	<polyline class="st3_family-meal-29" points="349.3,236.4 349.3,276.5 352.3,276.5 352.9,235.4 &#9;"/>
	<polyline class="st3_family-meal-29" points="366.2,221 372.1,264.6 369.2,264.6 363,222.6 &#9;"/>
	<path class="st3_family-meal-29" d="M367.8,179.5c-0.8,2.2-5.2,35.7-5.2,35.7l-4.5-1.5l5.8-34.4"/>
	<path class="st4_family-meal-29" d="M355.4,212.6c0,0,12,4.6,10.8,9.1s-10.8,15.6-16.9,14.7s-13.6-6.3-13.6-6.3"/>
	<path class="st5_family-meal-29" d="M355.4,207.1c0,0,12,4.6,10.8,9.1s-10.8,15.6-16.9,14.7s-13.6-6.3-13.6-6.3"/>
	<path class="st5_family-meal-29" d="M360.2,165.1c0,0,11.6,2.9,12.8,9.6s1.5,19-14.9,14.2s-8.7-17.1-8.7-17.1"/>
	<polyline class="st3_family-meal-29" points="167.8,213.1 167.8,257 164.5,257 163.8,212 &#9;"/>
	<polyline class="st3_family-meal-29" points="149.3,196.3 142.8,244 146,244 152.8,198 &#9;"/>
	<path class="st3_family-meal-29" d="M147.5,150.9c0.9,2.4,5.7,39,5.7,39l4.9-1.6l-6.4-37.6"/>
	<path class="st4_family-meal-29" d="M161.1,187.1c0,0-13.1,5-11.8,10s11.8,17.1,18.5,16s14.9-6.9,14.9-6.9"/>
	<path class="st5_family-meal-29" d="M161.1,181.1c0,0-13.1,5-11.8,10s11.8,17.1,18.5,16s14.9-6.9,14.9-6.9"/>
	<path class="st5_family-meal-29" d="M155.9,135.1c0,0-12.7,3.2-14,10.4s-1.6,20.7,16.3,15.5s9.5-18.7,9.5-18.7"/>
	<path class="st6_family-meal-29 targetColor" d="M214.2,236.6c0,0,3,9.9,3.7,10.9s10.6,7.6,10.4,9.6c-0.2,2-3.9,2.9-6.2,2.7s-15.8-5.8-16.6-7.4&#10;&#9;&#9;s-0.9-15.8-0.9-15.8L214.2,236.6z" style="fill: rgb(104, 225, 253);"/>
	<path class="st6_family-meal-29 targetColor" d="M198.3,248.2c0,0,3,9.9,3.7,10.9s10.6,7.6,10.4,9.6s-3.9,2.9-6.2,2.7s-15.8-5.8-16.6-7.4s-0.8-15.8-0.8-15.8&#10;&#9;&#9;L198.3,248.2L198.3,248.2z" style="fill: rgb(104, 225, 253);"/>
	<path class="st4_family-meal-29" d="M185.9,171.1c0,0,25.9,17.8,29.3,26.9s5.5,44.8,5.5,44.8s-9.1,5.6-19.6,2.3l-7.9-40.4c0,0-18.9-8.1-22.1-18.1&#10;&#9;&#9;s1.2-28.9,1.2-28.9"/>
	<path class="st4_family-meal-29" d="M157.6,168c0,0-4.5,18.8-1.1,28.9s22.2,18.1,22.2,18.1l7.9,40.4c10.5,3.3,19.6-2.3,19.6-2.3&#10;&#9;&#9;s-2.2-35.7-5.5-44.8s-29.3-26.9-29.3-26.9s4.7-9.5,1-13.5S157.6,168,157.6,168z"/>
	<path class="st3_family-meal-29" d="M179.6,185.1c4.7,4.7,9.7,9.1,14,14.1c3.8,4.3,5.2,9.8,6.7,15.2c3.4,12.6,4.9,25.7,6.4,38.6&#10;&#9;&#9;c0.1,0.8-1.1,0.8-1.2,0c-1.4-12.5-2.9-25-6.1-37.2c-1.6-6-3.1-11.9-7.4-16.6s-8.9-8.9-13.3-13.4c-0.2-0.3-0.2-0.7,0.1-0.9&#10;&#9;&#9;C179.1,184.9,179.4,184.9,179.6,185.1z"/>
	<path class="st3_family-meal-29" d="M289.5,367.9c2.3-18.4,2-78.7,2-78.7l-7.1-6.3c0,0,0.3,65.6,2.3,84.9C287.7,368.1,288.6,368.1,289.5,367.9z"/>
	<path class="st7_family-meal-29" d="M214.5,147.1c0,0,4.7-1.2,6.3-2.6s4.5-5.3,5.9-5s0,3,0,3s5.7,0.5,7.3,1.9s1.8,5.1,0,6.8s-7.6-0.1-8.1,0&#10;&#9;&#9;s-11.4,1.7-11.4,1.7"/>
	<path class="st6_family-meal-29 targetColor" d="M192.5,142c-0.9-0.5-1.8-1.1-2.6-1.8c-3.3-2.6-6.6-6.4-10.3-9.1c0.1,0.8,0.1,1.5,0.2,2.2&#10;&#9;&#9;c0.3,2.4,0.5,4.8,0.8,7.3c0.5,4.3,1,8.6,1.4,12.9c0,0.2,0,0.9,0.1,1.1c6.2,8,35.4,1.7,35.4,1.7c1.3-3.6,1.7-7.6,1.1-11.4&#10;&#9;&#9;C213,145.1,197.5,145.3,192.5,142z" style="fill: rgb(104, 225, 253);"/>
	<path class="st4_family-meal-29" d="M219.9,223c0,0-1.8,10,1.1,11.1s14.8,10.4,13,14.1c-4.1,8.5-28.4-10-28.4-10l3-21.1"/>
	<path class="st6_family-meal-29 targetColor" d="M187.7,167.5l-33.4-8.2c0,0,1,14.5,2.3,24.1c6,2.7,13.2,2.6,19.6,1.7c4.5-0.5,8.9-1.8,13-3.7&#10;&#9;&#9;c1.3-0.7,2.6-1.5,3.8-2.4C192.5,175.6,188.1,171,187.7,167.5z" style="fill: rgb(104, 225, 253);"/>
	<path class="st6_family-meal-29 targetColor" d="M193,179.1l-11.4-32.7c-0.6-3.9,4.1-7.6,2.5-11.4c-4.4-4.1-9.1-8-15.2-7c-5,0.9-9.4,4.2-13,7.6&#10;&#9;&#9;c-2.4,2.2-5.2,4.5-7,7.4c-1,2.7-1.3,5.6-1,8.4c1.3,13.6,6.8,31.7,19.8,37.4C172.4,185.4,188.6,182.7,193,179.1z" style="fill: rgb(104, 225, 253);"/>
	<path class="st7_family-meal-29" d="M169.1,119.1c0,0,3.7,17.1-2,19.3s-11.4-1.8-12.4-5s-0.4-8.2-0.4-8.2S158.5,119.2,169.1,119.1z"/>
	<path class="st8_family-meal-29" d="M169.6,116c0.2-4.2-5.6-6.8-8.3-3.3c-1.4-1.2-3.2-1.7-4.9-1.4c-2.5,0.4-3.3,2.2-3.1,4.5&#10;&#9;&#9;c-1.4,0-2.8,0.6-3.7,1.8c-1,1.4-1,3.3,0,4.7c-1.8,0.7-2.9,2.6-2.6,4.5c0.1,0.9,0.4,1.7,0.9,2.4c-0.1,0.3-0.2,0.5-0.2,0.8&#10;&#9;&#9;c-0.2,1.6,0.5,3.2,1.9,4c0.8,0.5,1.7,0.8,2.6,0.8c0.6,1.2,1.9,1.9,3.2,1.9c1.9-0.1,3.3-1.7,3.3-3.6c0-0.3-0.1-0.7-0.2-1&#10;&#9;&#9;c0.8-1.7,0.9-3.7,0.4-5.5c0.3-0.1,0.5-0.2,0.7-0.3c0.7-0.5,1.1-1.2,1.3-2c0.8,0.3,1.6,0.4,2.4,0.2c0.8-0.2,1.4-0.7,1.7-1.5&#10;&#9;&#9;c2,0.5,4.8-0.2,5.9-2.1C171.8,119.2,171.3,117.1,169.6,116z"/>
	<path class="st7_family-meal-29" d="M160,130.9c-0.2-1.1-0.8-2.1-1.8-2.7c-0.9-0.8-2.3-0.7-3,0.2l0,0c-0.6,0.9-0.5,2,0.1,2.9c0.8,1,2,1,3.1,1.4&#10;&#9;&#9;c0.6,0.3,1-0.4,0.9-0.9C159.7,131.8,160,131.4,160,130.9L160,130.9z"/>
	<path class="st3_family-meal-29" d="M167.9,126.6c-0.1-0.4-0.7-0.2-0.6,0.2c0.2,0.9,0.4,1.8,0.5,2.7c0.1,0.4,0.2,0.8,0.2,1.2&#10;&#9;&#9;c0,0.7-0.4,0.9-0.9,1.2c-0.1,0.1-0.2,0.3-0.1,0.4c0.1,0.1,0.3,0.2,0.4,0.1c0.7-0.4,1.3-0.6,1.3-1.6&#10;&#9;&#9;C168.5,129.4,168.3,128,167.9,126.6z"/>
	<path class="st3_family-meal-29" d="M169.4,125.8c-0.2,0-0.3,0.2-0.3,0.4c0,0.1,0.1,0.2,0.3,0.3c0.2,0,0.3-0.2,0.3-0.4&#10;&#9;&#9;C169.6,125.9,169.5,125.8,169.4,125.8z"/>
	<path class="st3_family-meal-29" d="M163.3,127.9c-0.2,0-0.3,0.2-0.3,0.4c0,0.1,0.1,0.2,0.3,0.3c0.2,0,0.3-0.2,0.3-0.4&#10;&#9;&#9;C163.5,128,163.4,127.9,163.3,127.9z"/>
	<path class="st3_family-meal-29" d="M166.5,133.6c-1,0.4-2.2,0-2.7-0.9c-0.1-0.1-0.3-0.2-0.4-0.1c-0.1,0.1-0.2,0.3-0.1,0.4&#10;&#9;&#9;c0.7,1.2,2.3,1.7,3.6,1.1C167.2,134,166.9,133.5,166.5,133.6z"/>
	<path class="st4_family-meal-29" d="M292.5,262.1c0-2.3,0.1-4.7,0.1-7l-10.3,2c0,0,0.5,4-0.6,5.4s-9.7,5.6-10.7,6.9s-1.3,3.8,4.7,3.6&#10;&#9;&#9;s10.8-4.4,12.1-4.7s4-0.7,4.9-1.3C292.7,265.4,292.5,263.8,292.5,262.1z"/>
	<path class="st4_family-meal-29" d="M309.9,265.1c0-2.3,0.1-4.7,0.1-7l-10.3,2c0,0,0.5,4-0.6,5.4s-9.7,5.6-10.7,6.9s-1.3,3.8,4.7,3.6&#10;&#9;&#9;s10.8-4.4,12.1-4.7s4-0.7,4.9-1.3C310.1,268.4,309.9,266.7,309.9,265.1z"/>
	<path class="st4_family-meal-29" d="M305.2,165l-5.2,1c0-0.7,0-1.3,0-2c-1.1-0.1-2.2-0.2-3.2-0.3c-3-0.4-5.5-3.4-8.4-4.6c-1.2,5.9-1.6,18.8-3,28.1&#10;&#9;&#9;c-1.8,11.8-7.4,66.8-5.8,71.3c0,0-0.1,1.6,9.4,2.2c0,0,2.3,1.3,5.6-3.4l3.4-58.5l-1.5,62.8c2.9,2.6,7.2,3.9,15.1-0.1l3.8-79.5&#10;&#9;&#9;L305.2,165z"/>
	<path class="st4_family-meal-29" d="M297.5,161.3c0.8,0.1,1.7,0.2,2.5,0.2c-0.6-11.1-4.1-36.1-11.5-2.4C291.3,160.3,294.4,161.1,297.5,161.3z"/>
	<path class="st6_family-meal-29 targetColor" d="M317,161.1c-0.1-0.6-0.2-1.2-0.4-1.7c-1.1-5-2.2-13.2-4-18c-1.4-3.7-5.1-5-9.2-5.6c-4.2-0.7-8.5-1.1-12.7-1.1&#10;&#9;&#9;c-0.2,0-0.3,0-0.5-0.1c-2.8,0.4-5.3,1.9-7,4.1c-3.9,5-4.5,7.8-8.1,13c-3.2,4.6-7.1,8.8-11.5,12.3c3.4,1.2,5.7,4.6,6.6,8&#10;&#9;&#9;c0.5,1.9-0.6,1.4-1,3.3c5.6-6.1,17.2-16.3,17.2-16.3l0.3,11.4c5.4,4.7,13.9,3.9,18.6,2.9C310.5,170.6,314.5,166.3,317,161.1z" style="fill: rgb(104, 225, 253);"/>
	<path class="st5_family-meal-29" d="M290.1,134.6c0,0-1.4,8.6,6.5,8.6s8.2-7,8.2-7C300,134.9,295,134.4,290.1,134.6z"/>
	<path class="st4_family-meal-29" d="M301.2,133.6c0,0-2.2,2.2-4.2,2.4c-1.7,0.1-3.7-2-4.3-2.7c0,2.1,0.3,4.2,1,6.1c0.3,0.6,0.6,0.9,0.9,0.8&#10;&#9;&#9;c0.8-0.3,2.2-2.4,2.2-2.4s1.6,2.5,2.3,2.4s2.9-4.1,2.9-4.1L301.2,133.6z"/>
	<path class="st4_family-meal-29" d="M306,119.2c-1-1.3-2.7-1.7-4.2-1c0-0.1-0.1-0.1-0.1-0.2c-0.9-1-1.3-2-2.6-2.3c-1.3-0.3-2.6-0.3-3.8,0.1&#10;&#9;&#9;c-1.2,0.3-2.2,1-2.8,2.1c-0.1-0.1-0.2-0.1-0.3-0.1c-2.8,0.1-4.9,2.4-4.9,5.2c0.1,2.3,1.9,4.9,4.3,5c1.1,0.4,2.4,0.6,3.6,0.5&#10;&#9;&#9;c0.8-0.1,1.4-0.8,1.3-1.6c0-0.3-0.1-0.5-0.3-0.7l0.2-0.1l0.1,0.1c0.4,0.5,1.1,0.6,1.6,0.2l0.2-0.1c0.3-0.1,0.6-0.2,0.9-0.3l0.3,0.1&#10;&#9;&#9;l-0.1,0.3c-0.2,0.6,0.1,1.2,0.6,1.5c0.3,0.1,0.5,0.2,0.8,0.2c-0.6,0.9-1.5,1.7-2.4,2.2c-1.3,0.7-0.6,2.4,0.6,2.5&#10;&#9;&#9;c-0.6,0.4-0.4,3.1,0.3,2.7c3.4-1.9,5.9-5.1,6.8-8.9C306.5,124.8,307.2,120.7,306,119.2z"/>
	<path class="st7_family-meal-29" d="M290.5,124.5c-0.3-0.1-0.3,11.2,4.2,11.9c5.8,0.9,8-5.9,8-5.9s0.9-5.1-2.8-6.8S294.7,125.3,290.5,124.5z"/>
	<path class="st4_family-meal-29" d="M290.5,124.5c0,0,4.6,0.8,7,0s-1.1,7,0.7,7s1.7-4.2,3.1-2.6s-2.1,6.5-2.1,6.5s4.9-2.5,6-6.7s-4.3-8.3-9.5-7.9&#10;&#9;&#9;S290.5,124.5,290.5,124.5z"/>
	<path class="st7_family-meal-29" d="M329.4,203.9l-2,9.5c0,0-4.5,3.9-3.8,4.8s2.6-0.9,2.6-0.9s-2.9,2.6-1.4,5.1s3.9,2.3,4.5,1.3s1.6-8.8,1.6-8.8&#10;&#9;&#9;l5.3-13.4"/>
	<path class="st7_family-meal-29" d="M329.4,203.9l6.9-2.4c0,0,2.1-13.5,3.1-18.5c1.6-7.8-0.3-10.9-0.3-10.9s3.6-7.2,0.7-7.8s-7.2,11.2-7.7,17.2&#10;&#9;&#9;S329.4,203.9,329.4,203.9z"/>
	<path class="st6_family-meal-29 targetColor" d="M338.7,162.7c0,0-7,3.4-7.7,18.8c0,0,7.4,1.4,10.5,0.6" style="fill: rgb(104, 225, 253);"/>
	<path class="st7_family-meal-29" d="M352,230.4c0,0,2.4,19.3,3.7,24.3c1.3,5,2.5,36,2.5,36s4.2,3,7.7,0c0,0,1.9-25.1,0.9-31.9s0-33.2,0-33.2"/>
	<path class="st7_family-meal-29" d="M338.4,224.8c0,0-0.5,14.3,0,19s2.5,34.5,2.5,34.5s3.5,3,6.9,0c0,0,2.3-14.7,2-17.5s-0.8-38.4-0.8-38.4"/>
	<path class="st9_family-meal-29" d="M360.7,199.9c0,0,6.9,8.7,5.9,29.5c0,0-10.9,7.6-19.7,2l-5.1-33.4"/>
	<path class="st9_family-meal-29" d="M338.5,195c0,0-4.5,24.3-4.5,32.8c0,5,13.4,4,17.9,2.6s-2.2-37.4-2.2-37.4"/>
	<path class="st8_family-meal-29" d="M353,153.8c0,0.1,17.2,15.6,12,21.1s-12-2-12-2l-2.2-17.6"/>
	<path class="st5_family-meal-29" d="M352,301.7c-0.7,1.5-0.4,3.3,0.8,4.5c2,2.1,4.6,1.1,6.8,0s8.4-6.6,7.5-8s-1.2-7.5-1.2-7.5"/>
	<path class="st6_family-meal-29 targetColor" d="M358.1,288.2c0,0-1,5.7-2.4,7.6s-4.8,6.4-3.7,7.6s1.9-2.4,3.7-1.4s1.2,3.5,2.5,3s7.4-5.3,8-8.4&#10;&#9;&#9;s-0.8-8.5-0.8-8.5" style="fill: rgb(104, 225, 253);"/>
	<path class="st5_family-meal-29" d="M330.2,286.5c0,0-0.2,3.4,2.9,4.1s6.9-1.2,8.7-2s8-6.1,8-6.1L349,275"/>
	<path class="st6_family-meal-29 targetColor" d="M340.6,274.5c0,0-1.9,4.6-5.2,6.3s-5.9,5.1-5.2,5.7s2.4-1.6,3.2-1s0.9,3.3,1.9,2.6s3.3,1.1,6.4-1s2.1-3,4.7-4&#10;&#9;&#9;s2.6-8.2,2.6-8.2S342.5,276.5,340.6,274.5z" style="fill: rgb(104, 225, 253);"/>
	<path class="st6_family-meal-29 targetColor" d="M361.5,168.2c-1.4-4.9-9.4-6.7-18.4-6.5c-1.5,0-3,0.3-4.5,0.9c-3.1,4.6-2.4,10.8-2,16&#10;&#9;&#9;c0.5,5.9,0.6,16.3,1.1,20.2c8.1,4.2,20.8,1.4,23,1C360.7,199.9,362.9,173.1,361.5,168.2z" style="fill: rgb(104, 225, 253);"/>
	<path class="st3_family-meal-29" d="M346.6,208.7c0-0.5-0.8-0.5-0.8,0c0.4,7.5,0.8,15.1,1.2,22.6c0,0.5,0.8,0.5,0.8,0&#10;&#9;&#9;C347.5,223.8,347.1,216.2,346.6,208.7z"/>
	<path class="st7_family-meal-29" d="M362.9,179.2l-0.6-0.2c-2.6,0.6-5.3,0.9-8,1.1c-0.2,5.6-1.4,10.9-5.3,15.2c-4.6,5.1-9.1,8.7-14.6,12.9l2.8,5.4&#10;&#9;&#9;c0,0,17-9.9,20.6-14.5C364.6,190.6,362.9,179.2,362.9,179.2z"/>
	<path class="st7_family-meal-29" d="M339.4,212.4l-4.2,2.6c0,0-2.6,5.8-4.3,5.8s-3.7-1.6-4.4-2.5s1-4.8,1-4.8s-2,0.1-2.5-1s6-1.5,6-1.5l5.8-4.2"/>
	<path class="st6_family-meal-29 targetColor" d="M356.4,163.8c0,0,8.2-0.1,8.7,18l-11.9,1.2l-1.9-7.3" style="fill: rgb(104, 225, 253);"/>
	<path class="st7_family-meal-29" d="M349.3,158l0.5,4.7c0,0-3.2,2-6,0.6l-0.4-2.9"/>
	<path class="st8_family-meal-29" d="M342.4,156.6c-7.3,0.8-6.7-5-6.7-5c-1.2-12.3,12-9.9,12-9.9s9.9,2.3,3.8,14.6"/>
	<path class="st7_family-meal-29" d="M337,147.2c0,0,0.5,15.2,6.8,14.5s5.9-5.9,5.9-5.9s0.9-9.5-4.3-11.2S337,147.2,337,147.2z"/>
	<path class="st8_family-meal-29" d="M337,147.2c0,0,3.6,5.4,8.1,5s4.2,5.8,4.2,5.8s4.3-2,4.2-7.8c0-3.3-4.7-8.8-9-8.5S336,144.2,337,147.2z"/>
	<path class="st3_family-meal-29" d="M157,216.2l126.9,74.6c4.3,2.6,9.7,2.5,14-0.1l76.3-46.2c3.2-2,4.3-6.2,2.3-9.4c-0.6-1-1.4-1.8-2.4-2.3&#10;&#9;&#9;l-122.7-72.5c-4.2-2.5-9.5-2.5-13.8-0.1l-80.5,46.4c-2.7,1.5-3.6,4.9-2,7.5C155.5,215,156.2,215.7,157,216.2z"/>
	<path class="st8_family-meal-29" d="M157,210.3L283.9,285c4.3,2.6,9.7,2.5,14-0.1l76.3-46.2c3.2-2,4.3-6.2,2.3-9.4c-0.6-1-1.4-1.8-2.4-2.3&#10;&#9;&#9;l-122.7-72.5c-4.2-2.5-9.5-2.5-13.8-0.1l-80.5,46.4c-2.7,1.5-3.6,4.9-2.1,7.5C155.5,209.2,156.2,209.9,157,210.3z"/>
	<path class="st3_family-meal-29" d="M170.6,302c2.3-18.4,2-78.7,2-78.7l-7.1-6.3c0,0,0.3,65.6,2.3,85C168.7,302.3,169.7,302.3,170.6,302z"/>
	<path class="st4_family-meal-29" d="M222,131c0,0-4-11.8-5-12.5s-2.5,0.5-2,1.2s5.4,13.1,5.4,13.1"/>
	<rect x="220.4" y="136" class="st7_family-meal-29" width="9.7" height="7.1"/>
	<ellipse class="st5_family-meal-29" cx="225.6" cy="153.2" rx="6.5" ry="3.8"/>
	<ellipse class="st5_family-meal-29" cx="225.8" cy="152.4" rx="6.5" ry="3.8"/>
	<path class="st5_family-meal-29" d="M224.3,146.2v5c0.8,0.6,1.9,0.6,2.7,0v-5"/>
	<ellipse class="st5_family-meal-29" cx="230.7" cy="135.3" rx="5.7" ry="5.4"/>
	<ellipse class="st9_family-meal-29" cx="220.7" cy="135.8" rx="5.7" ry="5.4"/>
	<ellipse class="st3_family-meal-29" cx="225.8" cy="131" rx="5.7" ry="5.4"/>
	<path class="st5_family-meal-29" d="M215,136.3c0,0,2.5,4.7,10.9,4.7s10.2-4.7,10.2-4.7s-0.4,10.3-10,10.3S215,139.2,215,136.3z"/>
	<path class="st9_family-meal-29" d="M327.4,323.1l1.6-1v-17.9l-7.9-0.3c0,0-0.1,7.6-2,9.4s-6.5,0.5-6.9,0.6s-3.5-0.7-4.9,0.7s4.7,5.5,8,6.3&#10;&#9;&#9;c2.2,0.5,4.5,0.5,6.7,0.3c0,0,0.7-4.6,1.8-4.1s1.2,5.3,1.2,5.3L327.4,323.1z"/>
	<path class="st4_family-meal-29" d="M315,274.3c0.3,16,0.9,37.9,1.9,38.2c11.4,3.3,16-2.2,16-2.2s0.9-20,1.6-37.7C328.1,271.2,321.3,272,315,274.3&#10;&#9;&#9;z"/>
	<path class="st9_family-meal-29" d="M305.9,336.9l1.6-1V318l-7.9-0.3c0,0-0.1,7.6-2,9.4s-6.5,0.5-6.9,0.6s-3.5-0.8-4.9,0.7s4.7,5.5,8,6.3&#10;&#9;&#9;c2.2,0.5,4.5,0.5,6.7,0.3c0,0,0.7-4.6,1.8-4.1s1.2,5.3,1.2,5.3L305.9,336.9z"/>
	<path class="st4_family-meal-29" d="M302.1,272.1c-1.6,1.9-2.6,4.2-3,6.7c-0.3,1.5-0.5,2.9-0.7,4.4c-0.6,3.5-1.1,7-1.7,10.5&#10;&#9;&#9;c-1.1,6.9-2.3,13.9-3.4,20.8c-0.4,2.4-0.8,4.8-1.2,7.2c0,0,9.8,3.6,18.5,0.8c0,0,10.4-43.7,10.8-44.6c0.1-0.2,0.7-2.3,1.4-5.5&#10;&#9;&#9;c0.2-0.7-1.4-1.8-1.9-2.1c-1.3-0.9-2.6-1.5-4.1-1.9c-4-1.1-8.3-0.6-11.9,1.4C303.9,270.4,302.9,271.2,302.1,272.1z"/>
	<path class="st3_family-meal-29" d="M322.2,272.4c-1.1,4.4-2.3,8.7-3.4,13c-3.2,12.2-5.9,24.6-8.2,37l1.1-0.3c2.4-12.5,5.2-25,8.4-37.4&#10;&#9;&#9;c1.1-4.2,2.2-8.3,3.3-12.5L322.2,272.4z"/>
	<path class="st3_family-meal-29" d="M328.9,289.9c4.4-3,9.5-4.7,15.1-3.5c5.9,1.3,11,5,17.1,5.9c1,0.1,4.8-0.1,5.3,0.5&#10;&#9;&#9;c16.8,15.9-30.1,14.2-30.1,14.2c-4.6-3.7-8.8-7.4-13.4-11.2C324.3,292.8,326.6,291.6,328.9,289.9z"/>
	<path class="st3_family-meal-29" d="M351,313c0.6,16,1.1,32,1.7,47.9c0.1,1.8-2.8,1.8-2.8,0c-0.5-16-1.1-32-1.7-47.9&#10;&#9;&#9;C348.1,311.1,350.9,311.2,351,313z"/>
	<path class="st3_family-meal-29" d="M315.8,338.6c8.5-8.4,16.7-17.1,24.5-26.2c1.2-1.4,3.2,0.6,2,2c-7.8,9.1-15.9,17.8-24.5,26.2&#10;&#9;&#9;C316.5,341.9,314.5,339.9,315.8,338.6z"/>
	<path class="st3_family-meal-29" d="M360.8,308.5c6.7,12.5,12.9,25.2,18.8,38.1c0.8,1.6-1.7,3.1-2.4,1.4c-5.9-12.9-12.1-25.6-18.8-38.1&#10;&#9;&#9;C357.5,308.4,360,306.9,360.8,308.5z"/>
	<path class="st6_family-meal-29 targetColor" d="M323.7,294.4c2.8,3.9,6.8,6.7,11.4,8.2c6.4,1.9,15.8,1,19.1-5.6c6.1-12,0.4-27.1,6.9-38.8&#10;&#9;&#9;c1.5-3,4.3-5.2,7.5-6.1c4.2-0.9,7.1,2.2,8.6,5.9c2.7,6.6,2.6,14.7,2.5,21.7c0,5.6-0.4,11.3-1.2,16.9c0,0-3.9,23.4-34.5,17.1&#10;&#9;&#9;c-5.3-1-10.4-2.8-15-5.5c-2.4-1.3-4.5-3.2-6.1-5.3C320.8,300.3,322.1,297.1,323.7,294.4z" style="fill: rgb(104, 225, 253);"/>
	<path class="st4_family-meal-29" d="M357.5,279.5c0,0-16.3-9.1-22.8-11.2s-12.3,3.9-12.3,3.9c-6.7-3.3-14.4-1.5-19,0.4c-0.7,1.6-1.2,3.2-1.7,4.9&#10;&#9;&#9;l14.8,16.8c0,0,19.8,12.6,31.7,7.9S357.5,279.5,357.5,279.5z"/>
	<path class="st9_family-meal-29" d="M366.3,247.6l-4.6-1.8c-1.2,0.1-11.8,3.5-16.5,10.5c-0.7,2.2-1.2,4.4-1.5,6.7c-0.6,3-1.1,6-1.5,9.1&#10;&#9;&#9;c-0.4,3.3-0.6,6.7-0.6,10c0,1.4,0.1,2.2,0.2,3.6c0.5,0.5,1.1,0.9,1.8,1.3c13.9,6,24.9-1.3,25.4-2.4s2.4-17.5,3.4-27.2&#10;&#9;&#9;C372.8,253.1,370.3,249.1,366.3,247.6z"/>
	<path class="st7_family-meal-29" d="M355,229.8c0,0-4.4,15.8,1.4,18s13.2-4,14-7.3S363.7,225,355,229.8z"/>
	<path class="st3_family-meal-29" d="M383.6,225c-1.6-3.3-5.3-4.9-8.8-3.9c-3.2,1-5.1,3.8-6.1,6.9c-2.9-2.5-7.2-3.8-12.6-2.1c0,0-5.4,2.3-4.4,5.7&#10;&#9;&#9;s5,3.4,8.4,4.1s0.6,3.6,0.8,7s1.7,3.9,3.1,4.2s7.8-1.1,8.7-8.7c0.1-0.5,0.1-0.9,0.1-1.4c0.9,0.1,1.8,0.1,2.6,0.1&#10;&#9;&#9;c2,0.1,4-0.5,5.7-1.6C384.3,232.8,385.2,228.6,383.6,225z"/>
	<path class="st7_family-meal-29" d="M349.4,247.1c0.4-0.6,0.6-1.4,0.5-2.1c-0.1-0.6-0.7-1-1.3-0.9c-0.3,0.1-0.5,0.2-0.7,0.4l-0.5,0.7&#10;&#9;&#9;c-0.1-0.9-0.2-1.8-0.3-2.6c-0.1-0.6-0.7-1-1.3-0.9c-0.5,0.1-0.9,0.5-0.9,1c0,0.3-0.1,0.6-0.1,0.8c-0.1,0.3-0.2,0.6-0.2,0.9&#10;&#9;&#9;c-1.2,0.1-2.7,0.6-2.9,2v0.1c-1,0.1-1.9,0.4-1.9,1.5c0,0.2,0,0.4,0,0.6c-1,0.3-1.7,0.8-1.5,2c0.2,1.5,0.6,2.9,1.1,4.3&#10;&#9;&#9;c0.2,0.3,0.5,0.6,0.9,0.6c0.1,0.6,0.3,1.2,0.5,1.8c0.4,0.8,1.4,1.2,2.3,0.8c0.2-0.1,0.4-0.3,0.6-0.5c0.1,0,0.2,0,0.4-0.1&#10;&#9;&#9;c0.3,0.2,0.6,0.2,0.9,0.2c0.9,0.3,1.8-0.2,2-1.1c0-0.1,0.1-0.3,0.1-0.4c0-0.3,0-0.5,0-0.8l0,0C347.8,252.7,348.6,249.9,349.4,247.1&#10;&#9;&#9;z"/>
	<path class="st9_family-meal-29" d="M347.5,252.9c-0.4,0.1-5.4-4.6-9.3-3c0,0-14.7,24.8-1,31.3c6.8,3.3,12-6.8,12-6.8l-3.9-7.7L347.5,252.9z"/>
	<path class="st7_family-meal-29" d="M346.2,253.9c-3.2,5.3-5.4,11.1-6.5,17.1c-0.1,0.7,1,1,1.1,0.3c1.1-6,3.2-11.7,6.4-16.9&#10;&#9;&#9;C347.6,253.9,346.6,253.3,346.2,253.9z"/>
	<path class="st7_family-meal-29" d="M349,275.5c-1.1,2.2-2.6,4.5-4.8,5.7c-2.7,1.3-6,0.8-8.2-1.3c-4.8-4.1-4.1-11.3-3.1-16.9c0.1-0.7-1-1-1.1-0.3&#10;&#9;&#9;c-1.1,6.3-1.7,14.4,4.2,18.6c2.3,1.7,5.3,2.1,8,1.2c2.8-1.1,4.6-3.8,6-6.4C350.3,275.4,349.3,274.8,349,275.5z"/>
	<path class="st6_family-meal-29 targetColor" d="M323.7,294.4c2.8,3.9,6.8,6.7,11.4,8.2c6.4,1.9,15.8,1,19.1-5.6c6.1-12,0.4-27.1,6.9-38.8&#10;&#9;&#9;c1.5-3,4.3-5.2,7.5-6.1c4.2-0.9,7.1,2.2,8.6,5.9c2.7,6.6,2.6,14.7,2.5,21.7c0,5.6-0.4,11.3-1.2,16.9c0,0-3.9,23.4-34.5,17.1&#10;&#9;&#9;c-5.3-1-10.4-2.8-15-5.5c-2.4-1.3-4.5-3.2-6.1-5.3C320.8,300.3,322.1,297.1,323.7,294.4z" style="fill: rgb(104, 225, 253);"/>
	<polygon class="st8_family-meal-29" points="297.9,284.9 326,267.9 313,262.7 299.1,268.6 295.3,281.1 &#9;"/>
	<polygon class="st3_family-meal-29" points="296.5,291.5 331.5,270.6 331.5,264.6 297.9,284.9 &#9;"/>
	<path class="st3_family-meal-29" d="M291.4,323.1l-0.3,15c0,0-4.7-2.5-4.8-3s-1.3-12.7-1.3-12.7L291.4,323.1z"/>
	<path class="st7_family-meal-29" d="M179.9,184.5l7.6,4.6c0,0,4.8-0.4,5,0.8s-5.6,1.3-5.6,1.3s-0.2,6.2,0.4,7.7s2.7,6,2.7,6s-0.4,0.5-1.3,0&#10;&#9;&#9;c0,0-0.2,1.1-1.1,1.2c0.2,0.5,0,1-0.4,1.3c-0.7,0.5-3.9-3.6-4.6-5.1s-1.3-8-1.3-8l-5.5-5.1L179.9,184.5z"/>
	<polyline class="st6_family-meal-29 targetColor" points="167.8,188.8 173.7,194.1 184,185.3 172.6,175.8 &#9;" style="fill: rgb(104, 225, 253);"/>
	<path class="st7_family-meal-29" d="M266.4,172.5c0,0-2.4,6.8-3.2,6c-0.5-0.5-0.8-1.3-0.7-2c0,0-4.8,4.9-6.2,4.9s-4.1-0.9-4.2-1.6s0.2-3.4,0.9-4.2&#10;&#9;&#9;s11.8-7.3,11.8-7.3"/>
	<polygon class="st6_family-meal-29 targetColor" points="265.2,162.6 259,168.7 267.7,174.8 286.5,159 &#9;" style="fill: rgb(104, 225, 253);"/>
	<path class="st7_family-meal-29" d="M295.1,181.4c-0.5,0.5-6.4,4.6-6.5,4.5s-4.3,1.6-3.1,2.4s3.6,0,3.6,0s-4.4,4.7-3.8,5.8&#10;&#9;&#9;c0.6,1.4,1.4,2.7,2.2,3.9c0.9,0.8,6.5-2.9,7.5-3.9s4.2-9.8,4.2-9.8"/>
	<path class="st6_family-meal-29 targetColor" d="M315.5,154.9c1.4,4.7,1.9,9.7,1.5,14.6c-0.7,8.7-17.2,20.7-17.2,20.7l-7.7-8.4c0,0,10.2-8.6,10.9-12.6" style="fill: rgb(104, 225, 253);"/>
	<path class="st7_family-meal-29" d="M330,199.3l-2.2,13.6c0,0-4.5,3.9-3.8,4.8s2.6-0.9,2.6-0.9s-2.9,2.6-1.4,5s3.9,2.3,4.5,1.3s1.6-8.8,1.6-8.8&#10;&#9;&#9;l5.3-13.4"/>
	<path class="st7_family-meal-29" d="M345.9,208.3l-10.4,6.1c0,0-2.6,5.8-4.3,5.8s-3.7-1.6-4.4-2.5s1-4.8,1-4.8s-2,0.1-2.5-1s6-1.5,6-1.5l8.5-6.2"/>
	<path class="st10_family-meal-29" d="M181.1,182.9c0,0-11.9-11.4-14.1-20.5l-3.1-10.7c0,0,8,15.1,11,19.5s9.1,14.1,9.1,14.1L181.1,182.9z"/>
</g>
<g id="food_family-meal-29">
	
		<linearGradient id="SVGID_00000119084217693095142550000001748140853769684134_-family-meal-29" gradientUnits="userSpaceOnUse" x1="208.1391" y1="694.1204" x2="191.2591" y2="708.8206" gradientTransform="matrix(1 0 0 1 0 -498)">
		<stop offset="0" style="stop-color:#5C2D1D;stop-opacity:0.5"/>
		<stop offset="1" style="stop-color:#EF7816;stop-opacity:0"/>
	</linearGradient>
	<path style="fill:url(#SVGID_00000119084217693095142550000001748140853769684134_);" d="M212,200.9c0-1-0.1-2-0.2-2.9l-20.5-11&#10;&#9;&#9;c-5.7,3.1-23.6,13.1-29,16.7l35.7,22l32.6-16.8c0.6-0.8-18.9-6.9-18.6-7.8C212,201,212,200.9,212,200.9z"/>
	<ellipse class="st6_family-meal-29 targetColor" cx="209.6" cy="199.2" rx="26.9" ry="14.9" style="fill: rgb(104, 225, 253);"/>
	<ellipse class="st12_family-meal-29" cx="209.6" cy="199.2" rx="26.9" ry="14.9"/>
	<ellipse class="st6_family-meal-29 targetColor" cx="209.6" cy="197.6" rx="26.9" ry="14.9" style="fill: rgb(104, 225, 253);"/>
	<ellipse class="st12_family-meal-29" cx="208.8" cy="199.3" rx="16.1" ry="8.6"/>
	
		<linearGradient id="SVGID_00000071517368614913512860000001764490212365212858_-family-meal-29" gradientUnits="userSpaceOnUse" x1="202.1302" y1="696.9836" x2="198.1502" y2="703.7834" gradientTransform="matrix(1 0 0 1 0 -498)">
		<stop offset="0" style="stop-color:#5C2D1D;stop-opacity:0.5"/>
		<stop offset="1" style="stop-color:#EF7816;stop-opacity:0"/>
	</linearGradient>
	<polyline style="fill:url(#SVGID_00000071517368614913512860000001764490212365212858_);" points="200.3,188.8 182.8,199.2 &#10;&#9;&#9;201.7,211.8 219.1,202.8 &#9;"/>
	<ellipse class="st9_family-meal-29" cx="209.6" cy="193.2" rx="17.1" ry="11.7"/>
	<path class="st5_family-meal-29" d="M192.9,191.4c0,1,0,2.4,1.1,2.8c0.7,0.1,1.3,0.1,2-0.1c1.2-0.3,2.4-0.3,3.6-0.1c2.4,0.9,2.7,7.8,6.3,4.9&#10;&#9;&#9;c1-0.8,1.4-2.1,2.5-2.6c1.2-0.4,2.5,0,3.3,1c0.5,0.6,1,1.2,1.6,1.8c1.3,0.9,2.6,0,3.2-1.2s0.9-2.6,2.5-3c2.1-0.5,4.2,1.6,6.1-0.1&#10;&#9;&#9;c0.9-0.8,1.4-1.9,1.6-3.1c-1-5.8-8.2-10.3-16.9-10.3c-8.5,0-15.5,4.2-16.8,9.8C192.9,191.2,192.9,191.3,192.9,191.4z"/>
	<ellipse class="st9_family-meal-29" cx="209.6" cy="191.1" rx="6.5" ry="4"/>
	<path class="st12_family-meal-29" d="M204,193.1c3.5-2,7.9-2.1,11.5-0.3c0,0-1.5,2.4-5.9,2.2S204,193.1,204,193.1z"/>
	<path class="st9_family-meal-29" d="M199.8,187.4c-0.2-0.2-0.6-0.2-0.8,0l-0.8,0.8c-0.2,0.2-0.2,0.6,0,0.8s0.6,0.2,0.8,0l0.8-0.8&#10;&#9;&#9;C200,188,200,187.6,199.8,187.4z"/>
	<path class="st9_family-meal-29" d="M205.2,184.4l-0.6-0.6c-0.2-0.2-0.6-0.2-0.8,0s-0.2,0.6,0,0.8l0.6,0.6c0.2,0.2,0.6,0.2,0.8,0&#10;&#9;&#9;S205.4,184.6,205.2,184.4z"/>
	<path class="st9_family-meal-29" d="M217.7,184.5c-0.2-0.2-0.6-0.2-0.8,0l-0.6,0.6c-0.2,0.2-0.2,0.6,0,0.8s0.6,0.2,0.8,0l0.6-0.6&#10;&#9;&#9;C217.9,185.1,217.9,184.8,217.7,184.5z"/>
	<path class="st9_family-meal-29" d="M213,183.5l-0.5-0.5c-0.2-0.2-0.6-0.2-0.8,0s-0.2,0.6,0,0.8l0.5,0.5c0.2,0.2,0.6,0.2,0.8,0&#10;&#9;&#9;S213.2,183.8,213,183.5L213,183.5z"/>
	<path class="st9_family-meal-29" d="M222.2,190.2h-0.9c-0.3,0-0.6,0.3-0.6,0.6s0.3,0.6,0.6,0.6h0.9c0.3,0,0.6-0.3,0.6-0.6&#10;&#9;&#9;C222.8,190.4,222.5,190.2,222.2,190.2z"/>
	<path class="st9_family-meal-29" d="M214.8,195.8l-0.4-0.3c-0.2-0.2-0.6-0.2-0.8,0s-0.2,0.6,0,0.8l0.4,0.3c0.2,0.2,0.6,0.2,0.8,0&#10;&#9;&#9;C215.1,196.4,215.1,196,214.8,195.8z"/>
	<path class="st9_family-meal-29" d="M204.9,195c-0.3-0.2-0.6-0.1-0.8,0.2c0-0.1-0.1,0.1-0.1,0.1l-0.1,0.1c-0.3,0.2-0.4,0.5-0.2,0.8&#10;&#9;&#9;s0.5,0.4,0.8,0.2c0.2-0.2,0.4-0.3,0.6-0.6C205.2,195.5,205.1,195.2,204.9,195z"/>
	<path class="st9_family-meal-29" d="M197.2,191.5h-0.9c-0.3,0-0.6,0.3-0.6,0.6s0.3,0.6,0.6,0.6h0.9c0.3,0,0.6-0.3,0.6-0.6&#10;&#9;&#9;C197.8,191.7,197.5,191.5,197.2,191.5z"/>
	<path class="st14_family-meal-29" d="M220.1,186.8c-0.3,0-0.6,0.3-0.6,0.6s0.3,0.6,0.6,0.6s0.6-0.3,0.6-0.6C220.7,187,220.5,186.8,220.1,186.8z"/>
	<path class="st14_family-meal-29" d="M209.6,184.1c-0.3,0-0.5,0.3-0.5,0.7c0,0.3,0.2,0.5,0.5,0.5s0.5-0.3,0.5-0.7&#10;&#9;&#9;C210.1,184.4,209.9,184.2,209.6,184.1z"/>
	<path class="st14_family-meal-29" d="M204.4,186.9c-0.3,0-0.6,0.3-0.6,0.6s0.3,0.6,0.6,0.6s0.6-0.3,0.6-0.6S204.8,186.9,204.4,186.9z"/>
	<path class="st14_family-meal-29" d="M200.8,184.2c-0.3,0-0.5,0.3-0.5,0.7c0,0.3,0.2,0.5,0.5,0.5s0.5-0.3,0.5-0.7&#10;&#9;&#9;C201.3,184.5,201.1,184.3,200.8,184.2z"/>
	<path class="st14_family-meal-29" d="M196.5,188.2c-0.3,0-0.5,0.3-0.5,0.7c0,0.3,0.2,0.5,0.5,0.5s0.5-0.3,0.5-0.7&#10;&#9;&#9;C197,188.4,196.8,188.2,196.5,188.2z"/>
	<path class="st14_family-meal-29" d="M200.9,190.1c-0.3,0-0.5,0.3-0.5,0.7c0,0.3,0.2,0.5,0.5,0.5s0.5-0.3,0.5-0.7&#10;&#9;&#9;C201.4,190.4,201.2,190.2,200.9,190.1z"/>
	<path class="st14_family-meal-29" d="M218,190.8c-0.3,0-0.6,0.3-0.6,0.6s0.3,0.6,0.6,0.6s0.6-0.3,0.6-0.6C218.6,191,218.3,190.8,218,190.8z"/>
	<path class="st14_family-meal-29" d="M222.8,192.1c-0.3,0-0.6,0.3-0.6,0.6s0.3,0.6,0.6,0.6s0.6-0.3,0.6-0.6C223.4,192.3,223.1,192.1,222.8,192.1z"/>
	<path class="st14_family-meal-29" d="M217.1,187.1c-0.3,0-0.6,0.3-0.6,0.6s0.3,0.6,0.6,0.6s0.6-0.3,0.6-0.6C217.7,187.3,217.5,187.1,217.1,187.1z"/>
	
		<linearGradient id="SVGID_00000183958902479348494560000005211005610442009482_-family-meal-29" gradientUnits="userSpaceOnUse" x1="277.837" y1="753.9038" x2="272.997" y2="764.6838" gradientTransform="matrix(1 0 0 1 0 -498)">
		<stop offset="0" style="stop-color:#5C2D1D;stop-opacity:0.5"/>
		<stop offset="1" style="stop-color:#EF7816;stop-opacity:0"/>
	</linearGradient>
	<path style="fill:url(#SVGID_00000183958902479348494560000005211005610442009482_);" d="M293.5,250.3c0-1-0.1-2-0.2-3l-20.5-11&#10;&#9;&#9;c-5.7,3.1-23.6,13.1-29,16.7l35.7,22l32.6-16.7c0.6-0.8-18.9-6.9-18.6-7.8C293.5,250.4,293.5,250.4,293.5,250.3z"/>
	<ellipse class="st6_family-meal-29 targetColor" cx="288" cy="247.5" rx="31.9" ry="16.4" style="fill: rgb(104, 225, 253);"/>
	<ellipse class="st12_family-meal-29" cx="288" cy="247.5" rx="31.9" ry="16.4"/>
	<ellipse class="st6_family-meal-29 targetColor" cx="288" cy="245.6" rx="31.9" ry="16.4" style="fill: rgb(104, 225, 253);"/>
	<ellipse class="st12_family-meal-29" cx="288.5" cy="245.6" rx="21.6" ry="10.2"/>
	<path class="st14_family-meal-29" d="M280.4,243.4l1,0.2l-0.3-2.1c-1.4-0.3-2.7-0.7-4-1.2c-3-0.9-5.9-2-8.6-3.5c-0.6-0.3-1.2-0.6-1.8-1&#10;&#9;&#9;c-2.5-0.6-4.7-3.2-4.2-0.1c0.3,1.4,0.9,2.8,1.9,3.9c2.3,0.7,4.6,1.3,6.9,1.8C274.3,242,277.4,242.7,280.4,243.4z"/>
	<path class="st14_family-meal-29" d="M281.6,245.5l-0.1-1l-1.1-0.3l-16.9-3.1c-1.8,0.6-5,0.2-3.4,2c1.4,1.5,3.6,1.2,4.2,1.8&#10;&#9;&#9;c1.6,0.2,3.1,0.3,4.7,0.4C273.3,245.2,277.5,245.3,281.6,245.5z"/>
	<path class="st14_family-meal-29" d="M281.2,247.3l0.7-0.1l-0.1-0.9c-0.1,0.1-0.2,0.2-0.3,0.2l-17.8,0.4c-1.4,1.3-3,1.4-0.4,1.9&#10;&#9;&#9;c1.8,0.4,3,0.3,3.5,0.7l14.1-2.4C281,247.2,281.1,247.2,281.2,247.3z"/>
	<path class="st14_family-meal-29" d="M281,240.4V240c-0.1,0.1-0.3,0.2-0.5,0.1c0,0,0,0-0.1-0.1c-2-2.4-4.7-4.3-6.4-7c-0.2,0-0.5-0.1-0.7-0.2&#10;&#9;&#9;c-2.5-1-3.3-2.1-4.4-0.4c-0.7,1.1,0.1,2.4-0.1,3.1c3.7,1.9,7.5,3.5,11.5,4.7L281,240.4z"/>
	<path class="st14_family-meal-29" d="M280.7,237.9c0,0-0.5-6.6-3.5-6.9c-1.5-0.1-1.9,0.5-2.1,1.1c1.9,2.4,3.9,4.7,5.8,7.1L280.7,237.9z"/>
	<path class="st14_family-meal-29" d="M281.8,248.7l0.2-0.1v-0.2L281.8,248.7L281.8,248.7z"/>
	<path class="st14_family-meal-29" d="M281.1,248.1c-0.3,0-0.6,0.1-0.9,0.1c-4.7,1.2-9.3,3-13.5,5.3c0.1,0.5,0.6,0.6,1.7,0.5&#10;&#9;&#9;c1.9-0.3,4.2-2.8,4.9-1.3c1.3-0.9,2.8-1.5,4.2-2.3S279.9,248.9,281.1,248.1z"/>
	<path class="st14_family-meal-29" d="M267,252c-0.1,0-0.2,0-0.3,0c0,0.1,0,0.2-0.1,0.3c0.2-0.1,0.4-0.3,0.6-0.4L267,252z"/>
	<path class="st14_family-meal-29" d="M280.4,240c0.1,0.1,0.3,0.2,0.5,0.1c0,0,0,0,0.1-0.1l-0.1-0.7c-2-2.4-3.9-4.7-5.8-7.1c-0.2,0.5-0.4,0.9-1,0.8&#10;&#9;&#9;C275.7,235.6,278.4,237.6,280.4,240z"/>
	<path class="st14_family-meal-29" d="M277.1,240.3c1.3,0.5,2.6,0.9,4,1.2l-0.1-1.1l-0.7-0.1c-4-1.2-7.8-2.8-11.5-4.7c-0.1,0.3-0.5,0.5-1.4,0.4&#10;&#9;&#9;c-0.2,0-0.5-0.1-0.7-0.1c0.6,0.4,1.2,0.7,1.8,1C271.2,238.3,274.1,239.4,277.1,240.3z"/>
	<path class="st14_family-meal-29" d="M281.5,244.5l-0.1-0.9l-1-0.2c-3-0.7-6.1-1.4-9.1-2c-2.3-0.6-4.6-1.2-6.9-1.8c0.4,0.5,0.5,0.9-0.1,1.3&#10;&#9;&#9;c-0.2,0.2-0.5,0.3-0.8,0.3l16.9,3.1L281.5,244.5z"/>
	<path class="st14_family-meal-29" d="M281.7,246.3l-0.1-0.8c-4.2-0.2-8.4-0.3-12.5-0.1c-1.6-0.1-3.1-0.2-4.7-0.4c0.2,0.2,0.2,0.6-0.1,1.1&#10;&#9;&#9;c-0.2,0.3-0.4,0.6-0.7,0.8l17.8-0.4C281.5,246.5,281.7,246.5,281.7,246.3z"/>
	<path class="st14_family-meal-29" d="M282,248.9v-0.2l-0.2,0.1l-0.1-0.1l0.3-0.2l-0.2-1.2l-0.7,0.1c-0.1-0.1-0.2-0.1-0.4-0.1l-14.2,2.4&#10;&#9;&#9;c0.4,0.3,0.4,0.8,0.2,1.7c-0.1,0.3-0.1,0.5-0.1,0.7c0.1,0,0.2,0,0.3,0l0.3-0.1c-0.2,0.1-0.4,0.3-0.6,0.4c-0.1,0.4-0.1,0.8-0.1,1.2&#10;&#9;&#9;c4.3-2.3,8.8-4.1,13.5-5.3c0.3,0,0.6-0.1,0.9-0.1c-1.2,0.8-2.4,1.6-3.7,2.3s-2.9,1.4-4.2,2.3v0.1C273.8,254.4,282,248.9,282,248.9z&#10;&#9;&#9;"/>
	<path class="st12_family-meal-29" d="M280.4,240c0.1,0.1,0.3,0.2,0.5,0.1c0,0,0,0,0.1-0.1l-0.1-0.7c-2-2.4-3.9-4.7-5.8-7.1c-0.2,0.5-0.4,0.9-1,0.8&#10;&#9;&#9;C275.7,235.6,278.4,237.6,280.4,240z"/>
	<path class="st12_family-meal-29" d="M277.1,240.3c1.3,0.5,2.6,0.9,4,1.2l-0.1-1.1l-0.7-0.1c-4-1.2-7.8-2.8-11.5-4.7c-0.1,0.3-0.5,0.5-1.4,0.4&#10;&#9;&#9;c-0.2,0-0.5-0.1-0.7-0.1c0.6,0.4,1.2,0.7,1.8,1C271.2,238.3,274.1,239.4,277.1,240.3z"/>
	<path class="st12_family-meal-29" d="M281.5,244.5l-0.1-0.9l-1-0.2c-3-0.7-6.1-1.4-9.1-2c-2.3-0.6-4.6-1.2-6.9-1.8c0.4,0.5,0.5,0.9-0.1,1.3&#10;&#9;&#9;c-0.2,0.2-0.5,0.3-0.8,0.3l16.9,3.1L281.5,244.5z"/>
	<path class="st12_family-meal-29" d="M281.7,246.3l-0.1-0.8c-4.2-0.2-8.4-0.3-12.5-0.1c-1.6-0.1-3.1-0.2-4.7-0.4c0.2,0.2,0.2,0.6-0.1,1.1&#10;&#9;&#9;c-0.2,0.3-0.4,0.6-0.7,0.8l17.8-0.4C281.5,246.5,281.7,246.5,281.7,246.3z"/>
	<path class="st12_family-meal-29" d="M282,248.9v-0.2l-0.2,0.1l-0.1-0.1l0.3-0.2l-0.2-1.2l-0.7,0.1c-0.1-0.1-0.2-0.1-0.4-0.1l-14.2,2.4&#10;&#9;&#9;c0.4,0.3,0.4,0.8,0.2,1.7c-0.1,0.3-0.1,0.5-0.1,0.7c0.1,0,0.2,0,0.3,0l0.3-0.1c-0.2,0.1-0.4,0.3-0.6,0.4c-0.1,0.4-0.1,0.8-0.1,1.2&#10;&#9;&#9;c4.3-2.3,8.8-4.1,13.5-5.3c0.3,0,0.6-0.1,0.9-0.1c-1.2,0.8-2.4,1.6-3.7,2.3s-2.9,1.4-4.2,2.3v0.1C273.8,254.4,282,248.9,282,248.9z&#10;&#9;&#9;"/>
	<path class="st5_family-meal-29" d="M308.5,243.8c0.2-0.2,0.4-0.4,0.6-0.5c1.2-1.1,1.2-3,0.1-4.2c-0.1-0.1-0.2-0.2-0.2-0.2&#10;&#9;&#9;c-1.3-1.2-2.8-1.1-4.6-1.3h-0.2c-0.1-0.4-0.1-0.9-0.2-1.1c-0.4-0.8-0.9-1.4-1.6-1.8c-1.6-0.9-3.6-1.2-5.4-0.7&#10;&#9;&#9;c-0.7,0.1-1.9,0.9-2.6,0.6s-1.5-1.6-2.1-2.1c-3.1-1.9-7.2-1.1-9.3,1.9c-0.5,0.8-0.8,1.7-0.9,2.6c-0.2,1.2-0.7,1.3-2,1.8&#10;&#9;&#9;c-1.9,0.8-3.3,2.1-3.3,4c0,2.4,1.5,3.8,3.5,4.7l0.6,0.3c0.7,1,1.6,2,2.6,2.7c2.3,1.6,5.1,1.9,8,2.2c4.5,0.4,11.7,1.4,15-2.1&#10;&#9;&#9;c3-1.1,5.2-4.1,2.3-6.5L308.5,243.8z"/>
	<ellipse class="st8_family-meal-29" cx="293.9" cy="241.3" rx="8.3" ry="4.4"/>
	<path class="st5_family-meal-29" d="M296.5,238.2c-0.7,0.1-1.2,0.7-1.2,1.4c0.1,0.6,0.5,1.1,1.2,1.2c0.7-0.1,1.2-0.7,1.2-1.4&#10;&#9;&#9;C297.6,238.7,297.1,238.2,296.5,238.2z"/>
	<path class="st12_family-meal-29" d="M293.6,244.5c-3-0.2-7.1-1.7-7.5-4.7c-0.3,0.4-0.5,1-0.5,1.5c0,2.4,3.7,4.3,8.3,4.3c3.8,0,6.9-1.3,8-3.1&#10;&#9;&#9;C299.7,244.3,296.5,244.7,293.6,244.5z"/>
	<ellipse class="st9_family-meal-29" cx="282.9" cy="250.8" rx="7.4" ry="3.4"/>
	<ellipse class="st12_family-meal-29" cx="282.9" cy="250.8" rx="7.4" ry="3.4"/>
	<ellipse class="st9_family-meal-29" cx="282.9" cy="249.8" rx="7.4" ry="3.4"/>
	<path class="st12_family-meal-29" d="M277.8,250.1c1.7,1.4,3.8,2.1,5.9,1.9c2.2,0.1,4.2-1.1,5.1-3L277.8,250.1z"/>
	<path class="st12_family-meal-29" d="M277.3,249.6l11-1.2c-2.1-0.6-4.3-0.9-6.5-0.9C280,247.6,278.4,248.3,277.3,249.6z"/>
	<path class="st5_family-meal-29" d="M278.2,250.1c-0.1,0-0.2,0.1-0.2,0.3c0,0.1,0.1,0.1,0.2,0.2c0.1,0,0.2-0.1,0.2-0.3&#10;&#9;&#9;C278.4,250.1,278.3,250.1,278.2,250.1z"/>
	<path class="st5_family-meal-29" d="M281.2,251.4c-0.1,0-0.2,0.1-0.2,0.2c0,0.1,0.1,0.2,0.2,0.2s0.2-0.1,0.2-0.2&#10;&#9;&#9;C281.4,251.5,281.3,251.5,281.2,251.4z"/>
	<path class="st5_family-meal-29" d="M283.2,251.4c-0.1,0-0.2,0.1-0.2,0.3c0,0.1,0.1,0.1,0.2,0.2c0.1,0,0.2-0.1,0.2-0.3&#10;&#9;&#9;C283.4,251.4,283.3,251.4,283.2,251.4z"/>
	<path class="st5_family-meal-29" d="M281.5,250c-0.1,0-0.2,0.1-0.2,0.2c0,0.1,0.1,0.2,0.2,0.2s0.2-0.1,0.2-0.2S281.6,250,281.5,250z"/>
	<path class="st5_family-meal-29" d="M279.5,248.7c-0.1,0-0.2,0.1-0.2,0.2c0,0.1,0.1,0.2,0.2,0.2s0.2-0.1,0.2-0.2&#10;&#9;&#9;C279.7,248.7,279.6,248.7,279.5,248.7z"/>
	<path class="st5_family-meal-29" d="M281.9,247.5c-0.1,0-0.2,0.1-0.2,0.2c0,0.1,0.1,0.2,0.2,0.2s0.2-0.1,0.2-0.2S282,247.5,281.9,247.5z"/>
	<path class="st5_family-meal-29" d="M281.6,248c-0.1,0-0.2,0.1-0.2,0.2c0,0.1,0.1,0.2,0.2,0.2s0.2-0.1,0.2-0.2C281.8,248.1,281.7,248,281.6,248z"/>
	<path class="st5_family-meal-29" d="M279.4,247.7c-0.1,0-0.2,0.1-0.2,0.2c0,0.1,0.1,0.2,0.2,0.2s0.2-0.1,0.2-0.2S279.5,247.7,279.4,247.7z"/>
	<path class="st5_family-meal-29" d="M277.2,249.2c-0.1,0-0.2,0.1-0.2,0.2c0,0.1,0.1,0.2,0.2,0.2s0.2-0.1,0.2-0.2&#10;&#9;&#9;C277.4,249.3,277.3,249.2,277.2,249.2z"/>
	<path class="st5_family-meal-29" d="M285.2,251.4c-0.1,0-0.2,0.1-0.2,0.2c0,0.1,0.1,0.2,0.2,0.2s0.2-0.1,0.2-0.2&#10;&#9;&#9;C285.4,251.5,285.3,251.4,285.2,251.4z"/>
	<path class="st5_family-meal-29" d="M286.9,249.8c-0.1,0-0.2,0.1-0.2,0.2c0,0.1,0.1,0.2,0.2,0.2s0.2-0.1,0.2-0.2&#10;&#9;&#9;C287.1,249.9,287,249.8,286.9,249.8z"/>
	<path class="st5_family-meal-29" d="M284,250.3c-0.1,0-0.2,0.1-0.2,0.3c0,0.1,0.1,0.1,0.2,0.2c0.1,0,0.2-0.1,0.2-0.3&#10;&#9;&#9;C284.1,250.4,284.1,250.3,284,250.3z"/>
	<path class="st5_family-meal-29" d="M284.7,247.9c-0.1,0-0.2,0.1-0.2,0.2c0,0.1,0.1,0.2,0.2,0.2s0.2-0.1,0.2-0.2&#10;&#9;&#9;C284.9,248,284.8,247.9,284.7,247.9z"/>
	<path class="st5_family-meal-29" d="M286.9,248.4c-0.1,0-0.2,0.1-0.2,0.2c0,0.1,0.1,0.2,0.2,0.2s0.2-0.1,0.2-0.2S287,248.4,286.9,248.4z"/>
	
		<linearGradient id="SVGID_00000022555527631455707660000003507127634398631601_-family-meal-29" gradientUnits="userSpaceOnUse" x1="260.6196" y1="713.0786" x2="249.7496" y2="723.0085" gradientTransform="matrix(1 0 0 1 0 -498)">
		<stop offset="0" style="stop-color:#5C2D1D;stop-opacity:0.5"/>
		<stop offset="1" style="stop-color:#EF7816;stop-opacity:0"/>
	</linearGradient>
	<path style="fill:url(#SVGID_00000022555527631455707660000003507127634398631601_);" d="M277,215c0-1-0.1-2-0.2-2.9l-12.5-6.4&#10;&#9;&#9;c-5.7,3.1-21.9,10.6-27.3,14.2l18,13.3l23.5-17.7c0.6-0.8-1.8,0.7-1.5-0.3C277,215.1,277,215.1,277,215z"/>
	<path class="st6_family-meal-29 targetColor" d="M261.5,212.4c0,0,0.7,4.8,9.8,4.8c11.1,0,10.8-6.6,10.8-6.6" style="fill: rgb(104, 225, 253);"/>
	<path class="st17_family-meal-29" d="M261.5,212.4c0,0,0.7,4.8,9.8,4.8c11.1,0,10.8-6.6,10.8-6.6"/>
	<path class="st6_family-meal-29 targetColor" d="M251.2,195.1c0,0,1.1,20.5,21,20.1c18.4-0.4,19.3-20.1,19.3-20.1H251.2z" style="fill: rgb(104, 225, 253);"/>
	<path class="st12_family-meal-29" d="M270.4,213.5c-2.2-1.4-4-3.2-5.5-5.4c-2.7-3.8-4.1-8.3-4.3-13h-9.5c0,0,1.1,20.5,21,20.1c0.7,0,1.3-0.1,2-0.1&#10;&#9;&#9;C272.9,214.8,271.6,214.2,270.4,213.5z"/>
	<ellipse class="st18_family-meal-29" cx="271.4" cy="195.2" rx="20.1" ry="11.8"/>
	<path class="st9_family-meal-29" d="M271.4,207.7c-11.5,0-20.8-5.6-20.8-12.5s9.3-12.5,20.8-12.5s20.8,5.6,20.8,12.5S282.8,207.7,271.4,207.7z&#10;&#9;&#9; M271.4,184c-10.8,0-19.5,5-19.5,11.2s8.8,11.2,19.5,11.2s19.5-5,19.5-11.2S282.1,184,271.4,184L271.4,184z"/>
	<path class="st6_family-meal-29 targetColor" d="M271.4,188.5c9.3,0,17,3.7,18.7,8.7c0.2-0.7,0.4-1.4,0.4-2.1c0-6-8.5-10.8-19.1-10.8s-19.1,4.8-19.1,10.8&#10;&#9;&#9;c0,0.7,0.1,1.4,0.4,2.1C254.4,192.2,262.1,188.5,271.4,188.5z" style="fill: rgb(104, 225, 253);"/>
	<path class="st19_family-meal-29" d="M277.6,205.3c-0.7,0.1-1.4,0.2-2.1,0.3C276.1,205.9,276.9,205.8,277.6,205.3z"/>
	<path class="st19_family-meal-29" d="M284.1,203.1l-0.7,0.3c0.1,0,0.2,0,0.3-0.1C283.9,203.3,284,203.3,284.1,203.1z"/>
	<path class="st18_family-meal-29" d="M258.1,200.5c1.5-0.1,2.6,1.1,4.1,1.4c1.7,0.2,2.2-1.9,2.9-3c0.6-1.1,1.7-1.8,2.9-1.9c1.3,0,3.5,2.2,4.7,1.2&#10;&#9;&#9;c0.5-0.4,0.6-1.3,0.9-1.9c0.3-0.5,0.6-0.9,1.1-1.2c1.2-0.7,2.6-0.9,3.9-0.3c0.7,0.2,1.8,0.7,2.5,0.3s0.6-1.6,0.9-2.3&#10;&#9;&#9;c0.3-0.8,0.8-1.5,1.5-2c-0.5-0.2-1-0.4-1.5-0.6c-0.2,0.4-0.5,0.8-0.8,1.1c-1.3,1.1-2.9,0.6-4.4,0c-0.9-0.4-2.1-0.8-2.9,0&#10;&#9;&#9;c-0.3,0.4-0.6,0.9-0.8,1.4c-0.4,1-1.4,1.7-2.4,1.8c-1.3,0-2.2-1.1-3.5-1.2c-1.7-0.1-2.1,2.4-3.1,3.4c-0.9,0.8-2.2,1.1-3.4,0.8&#10;&#9;&#9;c-0.6-0.2-1.1-0.6-1.5-1c-0.6-0.6-1.5-0.6-2.1-0.1c-0.2,0.2-0.3,0.4-0.4,0.7c-0.5,1.3-0.6,2.4-1.9,3l-0.2,0.1&#10;&#9;&#9;c0.4,0.5,0.9,1,1.5,1.4C256.5,200.9,257.3,200.5,258.1,200.5z"/>
	<path class="st18_family-meal-29" d="M254.8,198.2c0.5-0.7,0.4-1.6,0.9-2.3c0.7-1.1,2.2-1.6,3.4-1.1c0.7,0.3,1.2,1.1,2,1.3c1,0.3,2-0.1,2.5-1&#10;&#9;&#9;c0.8-1.3,1.3-2.9,3-3.1c0.6-0.1,1.1,0,1.6,0.3c0.7,0.3,1.6,1,2.4,0.9c1.3-0.1,1.6-2.1,2.4-2.9c1.2-1.2,2.8-0.8,4.2-0.2&#10;&#9;&#9;c0.9,0.4,2.2,1.1,3.1,0.2c0.1-0.1,0.2-0.2,0.2-0.3c-2.4-0.7-4.9-1.2-7.4-1.3c-0.5,0.9-1.4,1.5-2.3,1.8c-0.8,0.2-1.6,0.2-2.4,0&#10;&#9;&#9;c-0.9-0.3-1.8-1.3-2.7-1.1s-1.7,1.6-2.5,2.3c-0.6,0.6-1.2,1-2,1.2c-1.4,0.5-3,0.3-4.2-0.5c-2,1.1-3.5,2.9-4.3,5&#10;&#9;&#9;c0.2,0.6,0.5,1.3,0.9,1.8C254.1,199,254.6,198.7,254.8,198.2z"/>
	<path class="st18_family-meal-29" d="M280.2,204.7l0.7-0.2h-0.2C280.5,204.5,280.3,204.6,280.2,204.7z"/>
	<path class="st18_family-meal-29" d="M261.7,190.9c0.5-0.4,1-0.8,1.3-1.3c-1.6,0.4-3.1,1-4.5,1.8C259.6,191.7,260.7,191.5,261.7,190.9z"/>
	<path class="st18_family-meal-29" d="M267.4,201.6c1-0.9,2.3-1.1,3.6-0.7c1.3,0.5,3.4,2.8,4.5,0.9c0.7-1.2,0.8-2.4,2.3-2.9c1.6-0.6,2.6,0.6,4,0.8&#10;&#9;&#9;c1.9,0.4,2.5-2.1,3.5-3.3c0.9-1,2.1-1.6,3.5-1.8c-1-1.2-2.3-2.2-3.7-3c-0.3,0.1-0.5,0.2-0.8,0.4c-0.7,0.6-1.1,1.4-1.2,2.3&#10;&#9;&#9;c-0.2,1.4-1.4,2.4-2.8,2.3c-1.8,0-4-1.8-5.3,0.2c-0.8,1.2-0.8,2.8-2.6,3c-0.8,0-1.6-0.2-2.2-0.6c-0.9-0.5-1.9-1.3-2.9-0.7&#10;&#9;&#9;c-1.4,0.8-1.6,2.9-2.9,3.9c-1.1,0.8-2.5,0.8-3.7,0.1c-0.7-0.4-1.4-0.7-2.2-0.9c-0.4,0-0.9,0.1-1.2,0.4c2.2,1.3,4.7,2.3,7.2,2.8&#10;&#9;&#9;C265.7,204.5,266.3,202.6,267.4,201.6z"/>
	<path class="st18_family-meal-29" d="M286.9,196.9c-1.2,0.9-1.6,2.5-2.7,3.6c-0.9,0.8-2.1,1-3.2,0.6c-0.7-0.4-1.4-0.6-2.1-0.8&#10;&#9;&#9;c-1-0.1-1.5,0.6-1.9,1.5c-0.5,1.1-0.9,2.1-2.2,2.3s-2.4-0.6-3.5-1.3c-2.7-1.7-3.7,1-5.3,2.8c1.1,0.2,2.2,0.3,3.3,0.4&#10;&#9;&#9;c1.2-0.9,2.7-1.1,4.1-0.7c0.6,0.1,1.2,0.4,1.8,0.5c0.7-0.1,1.5-0.2,2.1-0.3l0.2-0.2c0.8-0.8,1.3-1.6,2.5-2c0.5-0.1,1-0.2,1.6-0.1&#10;&#9;&#9;c0.5,0.2,1,0.3,1.6,0.4l0.7-0.3c0.3-0.4,0.5-0.8,0.8-1.3c0.9-1.2,2.2-2,3.7-2.1c0.7-0.8,1.2-1.6,1.5-2.6c-0.1-0.4-0.3-0.7-0.5-1.1&#10;&#9;&#9;C288.6,196,287.6,196.3,286.9,196.9z"/>
	<path class="st18_family-meal-29" d="M256.7,197.1c0.2-0.8,1-1.2,1.8-1c0.3,0.1,0.5,0.2,0.7,0.4c0.4,0.4,1,0.8,1.5,1c1.2,0.4,2.5,0.1,3.4-0.8&#10;&#9;&#9;c1-1,1.4-3.5,3.1-3.4c1.2,0.1,2.1,1.2,3.5,1.2c1.1-0.1,2-0.8,2.4-1.8c0.2-0.5,0.5-1,0.8-1.4c0.8-0.9,2-0.4,2.9,0&#10;&#9;&#9;c1.4,0.6,3,1.1,4.4,0c0.3-0.3,0.6-0.7,0.8-1.1c-0.4-0.2-0.9-0.3-1.4-0.5c-0.1,0.1-0.2,0.2-0.2,0.3c-0.9,0.9-2.2,0.2-3.1-0.2&#10;&#9;&#9;c-1.4-0.6-3-0.9-4.2,0.2c-0.8,0.8-1.1,2.8-2.4,2.9c-0.8,0.1-1.7-0.6-2.4-0.9c-0.5-0.2-1.1-0.3-1.6-0.3c-1.7,0.2-2.2,1.9-3,3.1&#10;&#9;&#9;c-0.5,0.9-1.5,1.3-2.5,1c-0.8-0.3-1.2-1-2-1.3c-1.3-0.5-2.7,0-3.4,1.1c-0.4,0.7-0.4,1.6-0.9,2.3c-0.3,0.4-0.7,0.7-1.2,0.8&#10;&#9;&#9;c0.3,0.4,0.6,0.8,0.9,1.2l0.2-0.1C256,199.4,256.2,198.3,256.7,197.1z"/>
	<path class="st18_family-meal-29" d="M260.5,202.8c1.1,0.7,2.6,0.6,3.7-0.1c1.3-1,1.5-3.1,2.9-3.9c1-0.6,2,0.2,2.9,0.7c0.7,0.4,1.5,0.6,2.2,0.6&#10;&#9;&#9;c1.8-0.2,1.8-1.8,2.6-3c1.3-2.1,3.5-0.3,5.3-0.2c1.4,0.1,2.6-0.9,2.8-2.3c0.1-0.9,0.5-1.8,1.2-2.3c0.2-0.2,0.5-0.3,0.8-0.4&#10;&#9;&#9;c-0.5-0.3-1-0.6-1.5-0.8c-0.7,0.5-1.3,1.2-1.5,2c-0.2,0.7-0.2,1.9-0.9,2.3s-1.8,0-2.5-0.3c-1.3-0.6-2.7-0.5-3.9,0.3&#10;&#9;&#9;c-0.4,0.3-0.8,0.7-1.1,1.2c-0.3,0.6-0.4,1.5-0.9,1.9c-1.1,0.9-3.4-1.2-4.7-1.2c-1.2,0.1-2.3,0.8-2.9,1.9c-0.7,1.1-1.3,3.2-2.9,3&#10;&#9;&#9;c-1.5-0.2-2.5-1.4-4.1-1.4c-0.8,0-1.5,0.4-2.1,1c0.4,0.3,0.8,0.6,1.2,0.8c0.3-0.3,0.7-0.4,1.2-0.4&#10;&#9;&#9;C259.1,202.1,259.9,202.4,260.5,202.8z"/>
	<path class="st18_family-meal-29" d="M285.2,196.5c-1,1.1-1.6,3.6-3.5,3.3c-1.5-0.3-2.4-1.4-4-0.8c-1.4,0.5-1.6,1.7-2.3,2.9&#10;&#9;&#9;c-1.1,1.9-3.1-0.4-4.5-0.9c-1.2-0.4-2.6-0.1-3.6,0.7c-1.1,0.9-1.8,2.9-3,3.5c0.6,0.1,1.1,0.2,1.7,0.3c1.6-1.7,2.6-4.5,5.3-2.8&#10;&#9;&#9;c1,0.7,2.1,1.5,3.5,1.3s1.8-1.2,2.2-2.3c0.4-0.9,0.8-1.6,1.9-1.5c0.7,0.2,1.4,0.5,2.1,0.8c1.1,0.4,2.3,0.2,3.1-0.6&#10;&#9;&#9;c1.1-1,1.5-2.6,2.7-3.6c0.8-0.6,1.8-0.8,2.7-0.8c-0.3-0.5-0.6-1-0.9-1.4C287.3,194.9,286.1,195.5,285.2,196.5z"/>
	<path class="st18_family-meal-29" d="M261.2,192.7c0.8-0.2,1.4-0.6,2-1.2c0.7-0.7,1.4-2.1,2.5-2.3s1.9,0.9,2.7,1.1c0.8,0.2,1.6,0.2,2.4,0&#10;&#9;&#9;c1-0.3,1.8-1,2.3-1.8c-0.6,0-1.1,0-1.7,0h-0.1c-0.7,0.6-1.6,0.8-2.5,0.5c-0.2-0.1-0.5-0.2-0.7-0.3c-1.7,0.2-3.4,0.5-5.1,0.9&#10;&#9;&#9;c-0.4,0.5-0.8,0.9-1.3,1.3c-0.9,0.6-2.1,0.8-3.2,0.4c-0.5,0.3-1,0.6-1.5,0.9C258.3,193,259.8,193.1,261.2,192.7z"/>
	<path class="st18_family-meal-29" d="M284.8,201.9c-0.2,0.4-0.5,0.9-0.8,1.3c1.7-0.8,3.2-2,4.5-3.4C287.1,199.9,285.7,200.7,284.8,201.9z"/>
	<path class="st18_family-meal-29" d="M275.4,205.7c-0.6-0.1-1.2-0.4-1.8-0.5c-1.4-0.4-2.9-0.1-4.1,0.7c0.6,0,1.3,0.1,1.9,0.1&#10;&#9;&#9;C272.7,205.9,274.1,205.8,275.4,205.7z"/>
	<path class="st18_family-meal-29" d="M281.8,203.1c-0.5-0.1-1.1-0.1-1.6,0.1c-1.2,0.3-1.7,1.1-2.5,2l-0.2,0.2c0.9-0.2,1.8-0.4,2.6-0.6&#10;&#9;&#9;c0.1-0.1,0.3-0.1,0.4-0.2h0.2c0.9-0.3,1.7-0.6,2.5-1C282.9,203.5,282.3,203.3,281.8,203.1z"/>
	<path class="st20_family-meal-29" d="M256.7,197.1c0.2-0.8,1-1.2,1.8-1c0.3,0.1,0.5,0.2,0.7,0.4c0.4,0.4,1,0.8,1.5,1c1.2,0.4,2.5,0.1,3.4-0.8&#10;&#9;&#9;c1-1,1.4-3.5,3.1-3.4c1.2,0.1,2.1,1.2,3.5,1.2c1.1-0.1,2-0.8,2.4-1.8c0.2-0.5,0.5-1,0.8-1.4c0.8-0.9,2-0.4,2.9,0&#10;&#9;&#9;c1.4,0.6,3,1.1,4.4,0c0.3-0.3,0.6-0.7,0.8-1.1c-0.4-0.2-0.9-0.3-1.4-0.5c-0.1,0.1-0.2,0.2-0.2,0.3c-0.9,0.9-2.2,0.2-3.1-0.2&#10;&#9;&#9;c-1.4-0.6-3-0.9-4.2,0.2c-0.8,0.8-1.1,2.8-2.4,2.9c-0.8,0.1-1.7-0.6-2.4-0.9c-0.5-0.2-1.1-0.3-1.6-0.3c-1.7,0.2-2.2,1.9-3,3.1&#10;&#9;&#9;c-0.5,0.9-1.5,1.3-2.5,1c-0.8-0.3-1.2-1-2-1.3c-1.3-0.5-2.7,0-3.4,1.1c-0.4,0.7-0.4,1.6-0.9,2.3c-0.3,0.4-0.7,0.7-1.2,0.8&#10;&#9;&#9;c0.3,0.4,0.6,0.8,0.9,1.2l0.2-0.1C256,199.4,256.2,198.3,256.7,197.1z"/>
	<path class="st20_family-meal-29" d="M260.5,202.8c1.1,0.7,2.6,0.6,3.7-0.1c1.3-1,1.5-3.1,2.9-3.9c1-0.6,2,0.2,2.9,0.7c0.7,0.4,1.5,0.6,2.2,0.6&#10;&#9;&#9;c1.8-0.2,1.8-1.8,2.6-3c1.3-2.1,3.5-0.3,5.3-0.2c1.4,0.1,2.6-0.9,2.8-2.3c0.1-0.9,0.5-1.8,1.2-2.3c0.2-0.2,0.5-0.3,0.8-0.4&#10;&#9;&#9;c-0.5-0.3-1-0.6-1.5-0.8c-0.7,0.5-1.3,1.2-1.5,2c-0.2,0.7-0.2,1.9-0.9,2.3s-1.8,0-2.5-0.3c-1.3-0.6-2.7-0.5-3.9,0.3&#10;&#9;&#9;c-0.4,0.3-0.8,0.7-1.1,1.2c-0.3,0.6-0.4,1.5-0.9,1.9c-1.1,0.9-3.4-1.2-4.7-1.2c-1.2,0.1-2.3,0.8-2.9,1.9c-0.7,1.1-1.3,3.2-2.9,3&#10;&#9;&#9;c-1.5-0.2-2.5-1.4-4.1-1.4c-0.8,0-1.5,0.4-2.1,1c0.4,0.3,0.8,0.6,1.2,0.8c0.3-0.3,0.7-0.4,1.2-0.4&#10;&#9;&#9;C259.1,202.1,259.9,202.4,260.5,202.8z"/>
	<path class="st20_family-meal-29" d="M285.2,196.5c-1,1.1-1.6,3.6-3.5,3.3c-1.5-0.3-2.4-1.4-4-0.8c-1.4,0.5-1.6,1.7-2.3,2.9&#10;&#9;&#9;c-1.1,1.9-3.1-0.4-4.5-0.9c-1.2-0.4-2.6-0.1-3.6,0.7c-1.1,0.9-1.8,2.9-3,3.5c0.6,0.1,1.1,0.2,1.7,0.3c1.6-1.7,2.6-4.5,5.3-2.8&#10;&#9;&#9;c1,0.7,2.1,1.5,3.5,1.3s1.8-1.2,2.2-2.3c0.4-0.9,0.8-1.6,1.9-1.5c0.7,0.2,1.4,0.5,2.1,0.8c1.1,0.4,2.3,0.2,3.1-0.6&#10;&#9;&#9;c1.1-1,1.5-2.6,2.7-3.6c0.8-0.6,1.8-0.8,2.7-0.8c-0.3-0.5-0.6-1-0.9-1.4C287.3,194.9,286.1,195.5,285.2,196.5z"/>
	<path class="st20_family-meal-29" d="M261.2,192.7c0.8-0.2,1.4-0.6,2-1.2c0.7-0.7,1.4-2.1,2.5-2.3s1.9,0.9,2.7,1.1c0.8,0.2,1.6,0.2,2.4,0&#10;&#9;&#9;c1-0.3,1.8-1,2.3-1.8c-0.6,0-1.1,0-1.7,0h-0.1c-0.7,0.6-1.6,0.8-2.5,0.5c-0.2-0.1-0.5-0.2-0.7-0.3c-1.7,0.2-3.4,0.5-5.1,0.9&#10;&#9;&#9;c-0.4,0.5-0.8,0.9-1.3,1.3c-0.9,0.6-2.1,0.8-3.2,0.4c-0.5,0.3-1,0.6-1.5,0.9C258.3,193,259.8,193.1,261.2,192.7z"/>
	<path class="st20_family-meal-29" d="M284.8,201.9c-0.2,0.4-0.5,0.9-0.8,1.3c1.7-0.8,3.2-2,4.5-3.4C287.1,199.9,285.7,200.7,284.8,201.9z"/>
	<path class="st20_family-meal-29" d="M275.4,205.7c-0.6-0.1-1.2-0.4-1.8-0.5c-1.4-0.4-2.9-0.1-4.1,0.7c0.6,0,1.3,0.1,1.9,0.1&#10;&#9;&#9;C272.7,205.9,274.1,205.8,275.4,205.7z"/>
	<path class="st20_family-meal-29" d="M281.8,203.1c-0.5-0.1-1.1-0.1-1.6,0.1c-1.2,0.3-1.7,1.1-2.5,2l-0.2,0.2c0.9-0.2,1.8-0.4,2.6-0.6&#10;&#9;&#9;c0.1-0.1,0.3-0.1,0.4-0.2h0.2c0.9-0.3,1.7-0.6,2.5-1C282.9,203.5,282.3,203.3,281.8,203.1z"/>
	<ellipse class="st5_family-meal-29" cx="261.5" cy="195.8" rx="6.5" ry="3.7"/>
	<ellipse class="st12_family-meal-29" cx="261.5" cy="195.8" rx="6.5" ry="3.7"/>
	<ellipse class="st5_family-meal-29" cx="261.5" cy="194.7" rx="6.5" ry="3.7"/>
	<ellipse class="st8_family-meal-29" cx="262.3" cy="195.1" rx="4.5" ry="2.2"/>
	<ellipse class="st5_family-meal-29" cx="263.8" cy="194.7" rx="1.5" ry="0.9"/>
	<ellipse class="st5_family-meal-29" cx="263.8" cy="200.1" rx="6.5" ry="3.7"/>
	<ellipse class="st12_family-meal-29" cx="263.8" cy="200.1" rx="6.5" ry="3.7"/>
	<ellipse class="st5_family-meal-29" cx="263.8" cy="199" rx="6.5" ry="3.7"/>
	<ellipse class="st8_family-meal-29" cx="264.6" cy="199.4" rx="4.5" ry="2.2"/>
	<ellipse class="st5_family-meal-29" cx="266.1" cy="199" rx="1.5" ry="0.9"/>
	<path class="st14_family-meal-29" d="M282.7,195l-0.2-0.6c0.8,0,1.5,0.3,2.1,0.9v0.5C284.5,195.8,283.2,194.8,282.7,195z"/>
	<path class="st14_family-meal-29" d="M277.6,203.5c-0.1-0.6,0.2-1.2,0.8-1.3c0.1,0,0.2,0,0.3,0c1.4,0,1.2,1.1,1.2,1.1l0.3-1.2&#10;&#9;&#9;c-0.4-0.6-1.2-0.9-1.9-0.7c-0.7,0.2-1.2,0.9-1.3,1.7L277.6,203.5z"/>
	<path class="st14_family-meal-29" d="M277.6,203.5c0.7,0.6,1.7,0.5,2.3-0.2l0,0c0,0,0,1.2-1.1,1.2S277,203,277,203"/>
	<path class="st14_family-meal-29" d="M277.4,194.1c0.6,0.2,1,0.9,0.8,1.5c-0.1,0.2-0.2,0.4-0.3,0.5l1.1,0.6c0.3-0.8,0.1-1.7-0.4-2.4&#10;&#9;&#9;C277.8,193.5,277.4,194.1,277.4,194.1z"/>
	<path class="st14_family-meal-29" d="M284.7,200.9c-0.7-0.1-1.1-0.7-1-1.4c0-0.2,0.1-0.4,0.3-0.6l-1.1-0.5c0,0-0.3,1.6,0.6,2.4&#10;&#9;&#9;S284.7,200.9,284.7,200.9z"/>
	<path class="st14_family-meal-29" d="M270,202.4c0.7-0.1,1.3,0.4,1.4,1c0,0.2,0,0.4-0.1,0.6l1.2,0.1c0,0-0.2-1.6-1.3-2S270,202.4,270,202.4z"/>
	<path class="st14_family-meal-29" d="M268.5,192.1c-0.7-0.1-1.1-0.7-1-1.4c0-0.2,0.1-0.4,0.3-0.6l-1.1-0.5c-0.2,0.8,0,1.7,0.6,2.4&#10;&#9;&#9;C268.2,192.7,268.5,192.1,268.5,192.1z"/>
	<path class="st14_family-meal-29" d="M280.8,191.6c-0.5,0.5-1.2,0.5-1.7,0c-0.1-0.2-0.3-0.3-0.3-0.5l-1.1,0.6c0,0,1.1,1.2,2.3,0.9&#10;&#9;&#9;S280.8,191.6,280.8,191.6z"/>
	<path class="st9_family-meal-29" d="M281.9,196.8c-0.2,0-0.4,0.2-0.4,0.4s0.2,0.4,0.4,0.4c0.2,0,0.4-0.2,0.4-0.4S282.1,196.8,281.9,196.8z"/>
	<path class="st9_family-meal-29" d="M280.1,193.4c-0.2,0-0.4,0.2-0.4,0.4s0.2,0.4,0.4,0.4c0.2,0,0.4-0.2,0.4-0.4&#10;&#9;&#9;C280.5,193.6,280.3,193.4,280.1,193.4z"/>
	<path class="st9_family-meal-29" d="M274.9,200.2c-0.2,0-0.4,0.2-0.4,0.4s0.2,0.4,0.4,0.4c0.2,0,0.4-0.2,0.4-0.4S275.1,200.2,274.9,200.2z"/>
	<path class="st9_family-meal-29" d="M269.7,193.9c-0.2,0-0.4,0.2-0.4,0.4s0.2,0.4,0.4,0.4c0.2,0,0.4-0.2,0.4-0.4&#10;&#9;&#9;C270,194.1,269.9,193.9,269.7,193.9z"/>
	<path class="st9_family-meal-29" d="M285.8,197.1c-0.2,0-0.4,0.2-0.4,0.4s0.2,0.4,0.4,0.4c0.2,0,0.4-0.2,0.4-0.4&#10;&#9;&#9;C286.2,197.2,286,197.1,285.8,197.1z"/>
	<path class="st9_family-meal-29" d="M269.2,204.6c-0.2,0-0.4,0.2-0.4,0.4s0.2,0.4,0.4,0.4c0.2,0,0.4-0.2,0.4-0.4S269.4,204.6,269.2,204.6z"/>
	<path class="st9_family-meal-29" d="M274.7,204.7c-0.2,0-0.4,0.2-0.4,0.4s0.2,0.4,0.4,0.4c0.2,0,0.4-0.2,0.4-0.4S274.9,204.7,274.7,204.7z"/>
	<path class="st9_family-meal-29" d="M277.1,190.2c-0.2,0-0.4,0.2-0.4,0.4s0.2,0.4,0.4,0.4c0.2,0,0.4-0.2,0.4-0.4S277.3,190.2,277.1,190.2z"/>
	<path class="st9_family-meal-29" d="M284.7,193.5c-0.2,0-0.4,0.2-0.4,0.4s0.2,0.4,0.4,0.4c0.2,0,0.4-0.2,0.4-0.4S285,193.5,284.7,193.5z"/>
	<path class="st9_family-meal-29" d="M286.2,198.6c-0.2,0-0.4,0.2-0.4,0.4s0.2,0.4,0.4,0.4c0.2,0,0.4-0.2,0.4-0.4&#10;&#9;&#9;C286.6,198.7,286.5,198.6,286.2,198.6z"/>
	<path class="st9_family-meal-29" d="M256.7,202.5c-0.2,0-0.3,0.1-0.3,0.3s0.1,0.3,0.3,0.3c0.2,0,0.3-0.1,0.3-0.3S256.8,202.5,256.7,202.5z"/>
	<path class="st9_family-meal-29" d="M264.3,190c-0.2,0-0.4,0.2-0.3,0.4c0,0.2,0.2,0.3,0.3,0.3c0.2,0,0.4-0.2,0.3-0.4&#10;&#9;&#9;C264.6,190.2,264.5,190,264.3,190z"/>
</g>
<g id="plant_family-meal-29">
	<polyline class="st9_family-meal-29" points="68.6,237.8 68.6,259.6 103.9,259.6 103.9,237.8 &#9;"/>
	<ellipse class="st3_family-meal-29" cx="86.2" cy="237.8" rx="17.6" ry="8.7"/>
	<ellipse class="st9_family-meal-29" cx="86.2" cy="260.5" rx="17.6" ry="8.7"/>
	<path class="st4_family-meal-29" d="M106,187.2c-3.7-1.5-8.9-6.6-13.4-6.4c-1.7,4.2-2.2,9.1-2.7,13.4c-0.9,7.4-1,14.9-0.5,22.3&#10;&#9;&#9;c0.1,1.7,0.2,3.3,0.4,5c0,0.5,0.2,1,0.4,1.4v17.3c0,0.3,0.3,0.5,0.6,0.5c0.2,0,0.4-0.2,0.5-0.5c0-5.5,0-11.1,0-16.6&#10;&#9;&#9;c1.7-0.6,3.4-1.4,5-2.3c3.3-2.1,5.8-5.2,7.1-8.9c2.8-7.9,1-16.8,3.8-24.6C106.8,187.5,106.4,187.3,106,187.2z"/>
	<path class="st14_family-meal-29" d="M98.4,174.2c-2.1,1.2-3.8,3-5,5.1c-0.3,0.5-0.6,1-0.8,1.5l-0.2,0.3l0,0c-0.3,0.9-0.6,1.8-0.8,2.7&#10;&#9;&#9;c0.4-0.7,1.1-1.2,1.9-1.5c0.9-0.4,2-0.5,3-0.3c1,0.4,1.9,0.8,2.7,1.4c1.3,0.8,2.5,1.6,3.7,2.4c5.8,3.7,13.6,4.1,18.1-1.3&#10;&#9;&#9;c0.1-0.2,0.1-0.4,0.2-0.7C121.7,180.4,111.3,166.7,98.4,174.2z"/>
	<path class="st4_family-meal-29" d="M118.3,187c0.2-0.2,0.5-0.3,0.7-0.5c0-0.2,0-0.3-0.2-0.4c-3.5-3.6-7.3-7.2-12.2-9c-3.5-1.3-7.2-1.7-10.8-1.1&#10;&#9;&#9;c-0.4,0.5-0.8,0.9-1.1,1.4c3.9-1.3,8.9-0.5,12.5,1c4.3,1.8,7.7,5.1,10.9,8.4C118.2,186.9,118.2,187,118.3,187z"/>
	<path class="st4_family-meal-29" d="M59.1,194.9c-5.2,2.7-8.3,8.3-7.9,14.1c0.4,10.4,17.5,0.2,22.1-8.5s5.3,3.7,5.3,3.7"/>
	<path class="st14_family-meal-29" d="M74.5,191.3c-3.2-0.1-6.4,0.4-9.5,1.3c-2.1,0.5-4.1,1.3-5.9,2.3c1.1,0.7,2.2,1.3,3.4,1.8c2.2,0.9,4.4,2,5.5,4&#10;&#9;&#9;c0.3,0.5,0.5,1,0.7,1.6c1.1,3.4,0.1,7.6,1.6,11c1.5,3.6,4.3,6.5,8.3,6.7c4.8,0.3,7-4.3,8-8.4s2.3-9.5,0.7-13.6&#10;&#9;&#9;C85.6,193.2,79.1,191.5,74.5,191.3z"/>
	<path class="st4_family-meal-29" d="M80.9,207.5c-2-6.6-6.3-12.8-12.6-15.7h-0.2l-0.3,0.1l-1.1,0.3c7.3,2.7,11.9,9.9,13.8,17.3&#10;&#9;&#9;c2.4,9.5,1.6,19.7,1.6,29.3c0.1,0.3,0.3,0.5,0.6,0.4c0.2,0,0.4-0.2,0.4-0.4C83,228.6,84,217.5,80.9,207.5z"/>
</g>
</svg>