<svg id="_0415_family_meal" xmlns="http://www.w3.org/2000/svg" xmlns:xlink="http://www.w3.org/1999/xlink" viewBox="0 0 500 500" data-imageid="family-meal-7" imageName="Family Meal" class="illustrations_image" style="width: 188px;"><defs><style>.cls-1_family-meal-7{fill:url(#linear-gradient);}.cls-1_family-meal-7,.cls-2_family-meal-7,.cls-3_family-meal-7,.cls-4_family-meal-7,.cls-5_family-meal-7,.cls-6_family-meal-7,.cls-7_family-meal-7,.cls-8_family-meal-7,.cls-9_family-meal-7,.cls-10_family-meal-7,.cls-11_family-meal-7,.cls-12_family-meal-7,.cls-13_family-meal-7,.cls-14_family-meal-7,.cls-15_family-meal-7,.cls-16_family-meal-7{stroke-width:0px;}.cls-2_family-meal-7{isolation:isolate;opacity:.18;}.cls-2_family-meal-7,.cls-16_family-meal-7{fill:#68e1fd;}.cls-3_family-meal-7{fill:url(#linear-gradient-10-family-meal-7);}.cls-4_family-meal-7{fill:url(#linear-gradient-4-family-meal-7);}.cls-5_family-meal-7{fill:url(#linear-gradient-2-family-meal-7);}.cls-6_family-meal-7{fill:url(#linear-gradient-3-family-meal-7);}.cls-7_family-meal-7{fill:url(#linear-gradient-8-family-meal-7);}.cls-8_family-meal-7{fill:url(#linear-gradient-9-family-meal-7);}.cls-9_family-meal-7{fill:url(#linear-gradient-7-family-meal-7);}.cls-10_family-meal-7{fill:url(#linear-gradient-5-family-meal-7);}.cls-11_family-meal-7{fill:url(#linear-gradient-6-family-meal-7);}.cls-12_family-meal-7{fill:#5d2e33;}.cls-13_family-meal-7{fill:#3d3d52;}.cls-14_family-meal-7{fill:#fff;}.cls-15_family-meal-7{fill:#ffb4a3;}</style><linearGradient id="linear-gradient-family-meal-7" x1="290.95" y1="177.46" x2="292.3" y2="259.33" gradientUnits="userSpaceOnUse"><stop offset="0" stop-color="#231f20" stop-opacity="0"/><stop offset="1" stop-color="#231f20"/></linearGradient><linearGradient id="linear-gradient-2-family-meal-7" x1="-607.59" y1="3091.11" x2="-608.34" y2="3153.55" gradientTransform="translate(822.19 3332.06) scale(1 -1)" xlink:href="#linear-gradient-family-meal-7"/><linearGradient id="linear-gradient-3-family-meal-7" x1="-736.28" y1="3009.41" x2="-716.34" y2="3347.44" gradientTransform="translate(849 3367.76) scale(1 -1)" xlink:href="#linear-gradient-family-meal-7"/><linearGradient id="linear-gradient-4-family-meal-7" x1="552.22" y1="3166.52" x2="566.58" y2="3166.52" gradientTransform="translate(723.02 3332.06) rotate(-180)" xlink:href="#linear-gradient-family-meal-7"/><linearGradient id="linear-gradient-5-family-meal-7" x1="-445.27" y1="3025.87" x2="-452.29" y2="3207.64" gradientTransform="translate(849 3367.76) scale(1 -1)" xlink:href="#linear-gradient-family-meal-7"/><linearGradient id="linear-gradient-6-family-meal-7" x1="-519.26" y1="3089.82" x2="-403.03" y2="3128.2" gradientTransform="translate(822.19 3332.06) scale(1 -1)" gradientUnits="userSpaceOnUse"><stop offset="0" stop-color="#000"/><stop offset=".13" stop-color="#000" stop-opacity=".69"/><stop offset=".77" stop-color="#000" stop-opacity=".16"/><stop offset="1" stop-color="#000" stop-opacity="0"/></linearGradient><linearGradient id="linear-gradient-7-family-meal-7" x1="279.59" y1="278.28" x2="284.8" y2="175.33" gradientUnits="userSpaceOnUse"><stop offset="0" stop-color="#fff" stop-opacity="0"/><stop offset="1" stop-color="#fff"/></linearGradient><linearGradient id="linear-gradient-8-family-meal-7" x1="310.25" y1="174.75" x2="310.68" y2="194.08" xlink:href="#linear-gradient-family-meal-7"/><linearGradient id="linear-gradient-9-family-meal-7" x1="284.15" y1="175.34" x2="284.59" y2="194.67" xlink:href="#linear-gradient-family-meal-7"/><linearGradient id="linear-gradient-10-family-meal-7" x1="297.8" y1="182.22" x2="302.58" y2="228.7" xlink:href="#linear-gradient-family-meal-7"/></defs><g id="background_family-meal-7"><path class="cls-2_family-meal-7 targetColor" d="M246.34,80.04l-1.57-.43c-11.69-3.24-23.28-7.02-35.3-8.76-48.1-6.98-95.67,20.18-128.11,56.42-25.76,28.71-44.77,63.95-51.85,101.88-7.02,37.58-1.94,76.54,16.91,109.74,15.34,27,22.07,59.27,50.56,77.09,21.14,13.21,47.38,14.43,72.3,15.15l100.11,3.11c28.45.88,57.56,1.75,85.46-4.82,14.77-3.48,23.68-7.39,38.92-6.7,14.7.66,29.38.92,43.9-1.86,20.09-3.83,39.86-13.87,51-31.02,11.81-18.15,12.35-41.38,9.18-62.8s-9.51-42.39-10.25-64.02c-.84-24.16,5.41-47.93,7.87-71.98,2.47-24.05.31-50.21-14.73-69.13-13.28-16.69-34.72-25.05-55.88-27.76-21.16-2.72-42.59-.54-63.91,0-38.68.85-77.28-3.9-114.6-14.11Z" style="fill: rgb(104, 225, 253);"/><ellipse class="cls-2_family-meal-7 targetColor" cx="273.63" cy="351.08" rx="224.11" ry="28.38" style="fill: rgb(104, 225, 253);"/></g><g id="character_4_family-meal-7"><path class="cls-15_family-meal-7" d="M309.9,307.22l-.62,5.73c-.12,1.67-.42,3.32-.91,4.92-.92,2.37-2.41,4.49-4.33,6.15-2.79,2.62-6.02,5.03-9.62,5.18-.49.07-1-.06-1.39-.37-.42-.51-.66-1.15-.67-1.81-.83-7.47,5.25-10.16,5.03-17.52-.13-4.17-.25-8.34-.37-12.52-.14-5.01.63-14.51,4.97-16.82,9.64-5.12,9.18,14.6,8.61,20.46l-.71,6.59Z"/><path class="cls-15_family-meal-7" d="M293.09,303.69l-.18.46c-.75,1.64-1,3.46-.73,5.25.36,1.92.44,3.89.22,5.84-.64,2.41-2.15,4.51-4.24,5.88-3.24,2.51-6.88,4.49-10.77,4.67-.58.07-1.16-.03-1.68-.29-.94-.76-1.58-1.82-1.82-3-.15-.36-.24-.75-.25-1.14.05-.47.21-.92.47-1.31,1.44-2.37,3.52-4.08,5.25-6.18,1.99-2.25,3-5.2,2.79-8.2-.25-3.94-.24-7.87-.35-11.81-.17-6.23,2.03-22.23,10.29-15.84,5.01,3.94,4.22,11.56,2.99,17.42-.47,2.79-1.13,5.55-1.98,8.25Z"/><path class="cls-16_family-meal-7 targetColor" d="M295.83,169.57c-4.22-.48-8.47-.52-12.7-.13-4.22.38-8.25,1.89-11.69,4.36-2.31,1.91-4.28,4.2-5.81,6.77-2.06,3.27-3.85,6.71-5.34,10.29-2.78,6.49-4.85,13.5-3.94,20.46,0,.16.07.32.17.45.16.11.35.17.55.16,15.09.67,30.18.39,45.31.98,8.41.33,16.48,3.36,24.5.97-1.4-3.66-1.79-9.94-2.3-13.83-.56-4.51-.54-9.18-2.52-13.37-1.4-2.65-3.22-5.06-5.39-7.12-2.03-2.23-4.34-4.2-6.86-5.85-2.14-1.37-4.55-2.23-7.07-2.53-2.41-.3-4.4-1.38-6.9-1.59Z" style="fill: rgb(104, 225, 253);"/><path class="cls-1_family-meal-7" d="M295.83,169.57c-4.22-.48-8.47-.52-12.7-.13-4.22.38-8.25,1.89-11.69,4.36-2.31,1.91-4.28,4.2-5.81,6.77-2.06,3.27-3.85,6.71-5.34,10.29-2.78,6.49-4.85,13.5-3.94,20.46,0,.16.07.32.17.45.16.11.35.17.55.16,15.09.67,30.18.39,45.31.98,8.41.33,16.48,2.92,24.5.54-1.4-3.66-1.79-9.5-2.3-13.39-.56-4.51-.54-9.18-2.52-13.37-1.4-2.65-3.22-5.06-5.39-7.12-2.03-2.23-4.34-4.2-6.86-5.85-2.14-1.37-4.55-2.23-7.07-2.53-2.41-.3-4.4-1.38-6.9-1.59Z"/><path class="cls-15_family-meal-7" d="M294.4,173.29c.22,1.26.05,2.57-.5,3.73-1.06,1.75-3.57,2.19-5.68,1.92-1.18-.11-2.31-.49-3.31-1.13-1.15-.87-1.96-2.11-2.3-3.52-.31-1.36-.46-2.76-.43-4.16l-.12-5.25c-.02-.14.02-.28.1-.39.11-.07.25-.1.38-.09h5.67c1.22,0,3.86-.49,4.89.25,1.73,1.27,1.29,6.84,1.29,8.65Z"/><path class="cls-15_family-meal-7" d="M274.28,159.96c.63,1.74,1.58,3.36,2.81,4.75,1.31,1.28,2.85,2.3,4.55,2.98,1.56.73,3.23,1.18,4.95,1.31,3.44,0,6.73-1.43,9.09-3.94,2.24-2.43,4.11-5.17,5.55-8.14.08.47.76.68,1.22.47.44-.24.79-.63.97-1.1.74-1.5,1.15-3.14,1.21-4.82.03-.36-.04-.73-.18-1.06-.59-1.04-2.24-.68-3.37-.18-.96-1.8-.75-3.94-1.44-5.84-1.31-3.62-5.46-5.48-9.18-6.97-3.48-1.61-7.21-2.6-11.03-2.94-1.05-.09-2.11.07-3.08.46-.9.47-1.69,1.11-2.34,1.89-1.58,1.47-2.7,3.36-3.21,5.46-.02,1.47.16,2.93.54,4.36.37,4.55,1.37,9.03,2.97,13.3Z"/><path class="cls-13_family-meal-7" d="M268.31,132.95c-1.23,2.76-1.78,5.77-1.61,8.79-.06,2.42.27,4.83.97,7.15.72,2.11,1.93,4.08,2.2,6.28.47,3.84-1.97,7.52-1.84,11.39-.02,1.05.32,2.08.96,2.91,1.42,1.67,4.04,1.42,6.15.84.41-.08.79-.27,1.09-.56.35-.56.42-1.25.21-1.88l-3.42-17.78c-.12-.5-.12-1.03,0-1.54.22-.5.55-.95.96-1.31,2.53-2.83,3.74-6.6,3.33-10.38.86,1.97,2.56,3.45,4.63,4.03,2.04.56,4.17.76,6.28.59l5.09,7.68c.19.35.47.65.8.87,1.19.7,2.73-.8,4.02-.31,1.08,1.4,1.48,3.2,1.09,4.92-.26,1.72-.94,3.35-1.31,5.05-.56,2.56-.43,5.21.38,7.7.18.75.6,1.41,1.19,1.9.52.3,1.11.48,1.71.52l11.02,1.61.08-14.13c.12-3.66-.08-7.32-.62-10.94-.34-2.86-1.59-5.54-3.56-7.65-1.21-1-2.47-1.92-3.79-2.76-2.43-1.78-4.34-4.2-6.82-5.9-5.03-3.44-11.28-3.27-17.06-2.32-4.99.75-9.41-.17-12.14,5.22Z"/><path class="cls-16_family-meal-7 targetColor" d="M292.31,312.51c-2.43,1.56-4.02,4.09-6.05,6.11-2.03,2.02-5.04,3.63-7.72,2.62-.77-.43-1.59-.76-2.44-.98-1.89-.24-3.32,1.64-4.28,3.29s-2.06,3.84-1.67,5.89c.04.27.16.53.34.73.23.18.5.29.79.31,3.32.54,6.64-.88,9.54-2.62,2.59-1.5,5.04-3.23,7.32-5.16,2.95-2.49,5.79-6.11,4.16-10.21Z" style="fill: rgb(104, 225, 253);"/><path class="cls-16_family-meal-7 targetColor" d="M309.06,315.71c-2.41,1.56-3.94,4.09-6.04,6.11-2.1,2.02-5.04,3.63-7.73,2.62-.77-.43-1.58-.76-2.43-.98-1.9-.24-3.33,1.64-4.28,3.29-.94,1.65-2.07,3.84-1.67,5.89.03.27.15.53.33.73.23.18.51.29.8.31,3.31.54,6.63-.88,9.54-2.62,2.58-1.47,5.03-3.17,7.31-5.08,2.97-2.62,5.8-6.19,4.16-10.29Z" style="fill: rgb(104, 225, 253);"/></g><g id="character_3_family-meal-7"><path class="cls-15_family-meal-7" d="M204.74,316.62l1.31,5.67c.32,1.67.85,3.29,1.59,4.83,1.46,2.38,3.49,4.37,5.9,5.77,3.66,2.44,7.87,4.51,12.22,4.37,1.09.19,2.12-.54,2.3-1.63.04-.23.04-.47,0-.71.24-7.52-7.43-9.7-7.87-17.06-.26-4.16-.54-8.33-.81-12.49-.34-5.01-2.24-14.43-7.75-16.35-12.24-4.3-9.76,15.31-8.4,21.1l1.52,6.49Z"/><path class="cls-15_family-meal-7" d="M224.86,311.75l.26.45c1.05,1.5,1.55,3.31,1.43,5.13-.25,1.95-.14,3.93.31,5.84.88,2.62,3.35,4.22,5.75,5.5,4.12,2.41,8.8,3.7,13.57,3.77.7.02,1.4-.13,2.03-.43,1.02-.76,1.7-1.88,1.92-3.14.14-.37.2-.77.17-1.17-.11-.47-.35-.9-.7-1.25-2.01-2.26-4.68-3.78-6.99-5.72-2.52-1.85-4.08-4.75-4.22-7.87-.1-3.94-.51-7.87-.77-11.81-.42-6.22-4.72-21.98-14.12-14.92-5.71,4.28-3.94,11.81-1.88,17.6.86,2.76,1.95,5.44,3.24,8.03Z"/><path class="cls-16_family-meal-7 targetColor" d="M242.44,319.86c1.93,1.89,4.64,3.03,7.25,3.92,2.83.96,5.23,3.31,4.24,6.57-.98,2.49-4.24,3-6.91,2.95-4.7-.09-9.37-.74-13.91-1.93-5.45-1.41-7.39-6.97-7-12.05.03-.38.07-.77.27-1.09.52-.88,1.76-.87,2.77-.79,3.46.29,6.96.19,10.4-.28.28-.04.58-.08.83.06.24.13.38.39.51.63.42.75.95,1.42,1.55,2.01Z" style="fill: rgb(104, 225, 253);"/><path class="cls-16_family-meal-7 targetColor" d="M204.45,169.57c4.22-.48,8.48-.52,12.71-.13,4.19.39,8.21,1.89,11.63,4.36,2.32,1.9,4.29,4.19,5.83,6.77,2.07,3.28,3.86,6.73,5.35,10.31,2.78,6.49,4.85,13.5,3.94,20.46,0,.16-.05.32-.16.45-.16.11-.35.17-.55.16-15.1.67-30.18.39-45.32.98-8.41.33-17.06.91-25.06-1.48,1.4-3.69,2.37-7.53,2.87-11.44.56-4.51.54-9.18,2.51-13.37,1.4-2.65,3.23-5.06,5.41-7.12,2.03-2.23,4.33-4.2,6.85-5.85,2.14-1.36,4.56-2.23,7.09-2.53,2.39-.26,4.43-1.34,6.91-1.55Z" style="fill: rgb(104, 225, 253);"/><path class="cls-5_family-meal-7" d="M224.06,192.53c-2.44,3.41-3.88,7.42-4.16,11.6-2.58-1.08-5.37-1.58-8.16-1.47-1.56.23-3.16.08-4.64-.45-.81-.48-1.53-1.11-2.11-1.85l-5.45-6.08c-1.6-1.78-3.84-3.75-6.09-2.89-1.18.59-2.11,1.58-2.62,2.79-2.87,5.41-4.2,11.5-3.87,17.61,3.52.83,7.12,1.27,10.73,1.31,13.25.6,26.53.68,39.8.72,1.09.1,2.18-.1,3.16-.59,3.75-2.35-4.96-7.73-6.56-9.29-3.65-3.53-7-7.35-10.02-11.43Z"/><path class="cls-15_family-meal-7" d="M226,159.96c-.62,1.75-1.57,3.36-2.79,4.75-1.31,1.29-2.86,2.3-4.57,2.98-1.55.74-3.23,1.18-4.95,1.31-3.44,0-6.73-1.43-9.08-3.94-2.24-2.43-4.11-5.17-5.55-8.14-.08.47-.76.68-1.23.47-.44-.25-.77-.64-.96-1.1-.74-1.5-1.15-3.14-1.21-4.82-.04-.36.02-.73.18-1.06.59-1.04,2.24-.68,3.37-.18.94-1.8.75-3.94,1.44-5.84,1.31-3.62,5.46-5.48,9.18-6.97,3.5-1.6,7.24-2.58,11.07-2.9,1.05-.09,2.11.07,3.08.46.9.47,1.69,1.11,2.34,1.89,1.58,1.45,2.71,3.34,3.24,5.42.02,1.47-.16,2.93-.54,4.36-.39,4.55-1.42,9.03-3.04,13.3Z"/><path class="cls-15_family-meal-7" d="M205.86,173.29c-.22,1.26-.05,2.57.5,3.73,1.06,1.75,3.57,2.19,5.68,1.92,1.18-.11,2.31-.49,3.31-1.13,1.15-.87,1.96-2.11,2.3-3.52.31-1.36.46-2.76.43-4.16l.12-5.25c.02-.14-.02-.28-.1-.39-.11-.07-.25-.1-.38-.09h-5.67c-1.22,0-3.86-.49-4.89.25-1.69,1.27-1.29,6.84-1.29,8.65Z"/><path class="cls-13_family-meal-7" d="M195.99,151.23c-.43.31-.8.7-1.1,1.14-.33.45-.87.68-1.42.62-.41-.15-.75-.47-.93-.87-1.11-1.67-1.69-3.64-1.69-5.64.06-2.06,1.27-3.92,3.12-4.82.25-.1.52-.21.62-.46s-.07-.46-.18-.67c-1.03-1.72-1.58-3.7-1.59-5.71-.04-.69.12-1.38.45-1.98.89-1.03,2.18-1.64,3.54-1.67,1.94-.28,4.28-.24,5.39,1.31.19-.88.65-1.67,1.31-2.27.73-.62,1.77-.74,2.62-.3,1.29-2.38,3.58-4.05,6.23-4.55,1.3-.31,2.66-.27,3.94.12,2.1.72,3.48,2.62,4.71,4.36,2.46-.96,5.26-.04,6.67,2.19.13.3.32.58.55.81.62.34,1.34.46,2.03.33,2.32-.03,4.41,1.38,5.25,3.54.67,2.15-.15,4.48-2.02,5.73-.8.38-1.52.91-2.13,1.55-.33.47-.43,1.06-.8,1.51-.65.62-1.53.95-2.43.92-3.89.19-7.62-1.59-9.92-4.74-.26-.38-.6-.83-1.09-.81-.25.04-.48.14-.68.29-2.19,1.24-4.91,1.06-6.91-.47-.67-.52-1.39-1.31-2.24-1.08-1.48.33-1.04,2.81-2.4,3.46-.19.07-.36.16-.52.28-.14.19-.21.42-.2.66.1,1.13.1,2.27,0,3.4-.6,2.01-1.71,3.82-3.24,5.25-1.78,1.77-3.92.07-4.93-1.43Z"/><rect class="cls-14_family-meal-7" x="208.97" y="184.13" width="13.3" height="28.28"/><path class="cls-2_family-meal-7 targetColor" d="M210.67,192.91c-.02-.29.06-.57.24-.8.21-.16.47-.25.73-.24,2.69-.22,5.38-.38,8.08-.5.26-.04.52,0,.75.13.28.28.42.66.38,1.05.21,4.91.31,9.84.31,14.76,0,1.23.17,3.5-.93,4.26-.79.52-3.7.28-4.67.16-1.79-.03-3.41-1.04-4.24-2.62-2.22-4.3-.83-11.56-.66-16.2Z" style="fill: rgb(104, 225, 253);"/><path class="cls-2_family-meal-7 targetColor" d="M210.67,192.91c-.02-.29.06-.57.24-.8.21-.16.47-.25.73-.24,2.69-.22,5.38-.38,8.08-.5.26-.04.52,0,.75.13.28.28.42.66.38,1.05.21,4.91.31,9.84.31,14.76,0,1.23.17,3.5-.93,4.26-.79.52-3.7.28-4.67.16-1.79-.03-3.41-1.04-4.24-2.62-2.22-4.3-.83-11.56-.66-16.2Z" style="fill: rgb(104, 225, 253);"/><path class="cls-16_family-meal-7 targetColor" d="M226.47,337.77c-1.76.15-3.53-.06-5.27.06s-3.21-.09-4.8-.74c-1.73-.7-3.33-1.67-5.05-2.39-2.3-.96-4.88-1.47-6.77-3.09-.25-.22-.5-.46-.65-.76-.3-.59-.19-1.29-.1-1.94.23-1.68.29-3.39.18-5.08-.11-1.76-.4-3.57.13-5.26.06-.19.14-.4.31-.51.17-.1.38-.09.57-.07,1.1.12,2.17.44,3.25.67,3.87.83,7.87.47,11.82.62.51.02,1.04.06,1.46.34.45.3.69.82.9,1.32.86,2.07,1.59,4.31,3.21,5.87.99.95,2.23,1.61,3.11,2.69s1.38,2.34,1.79,3.7c.22.62.3,1.29.22,1.94-.35,1.78-2.52,2.48-4.32,2.62Z" style="fill: rgb(104, 225, 253);"/><path class="cls-15_family-meal-7" d="M224.99,188.7c-.52-.27-1.1-.41-1.68-.41-1.31.09-2.13,1.31-2.45,2.62-.92,3.49.85,7.14,3.1,9.97,2.52,3,5.33,5.74,8.38,8.19,2.94,2.53,6.1,5.16,9.92,5.8,1.01.19,2.04.19,3.04,0,2.79-.71,4.9-3.02,5.34-5.87.97-6.14-3.27-8.36-7.87-10.29-6.31-2.62-11.51-7.32-17.78-10.02Z"/><path class="cls-14_family-meal-7" d="M212.45,159.36c-.06-.02-.12-.02-.18,0-.1.08-.09.22,0,.35.37,1.42,1.32,2.61,2.62,3.28.56.35,1.26.4,1.86.14.26-.18.48-.39.67-.64.79-.98,2.18-2.73.33-3.21-1.76-.19-3.54-.17-5.3.08Z"/><path class="cls-15_family-meal-7" d="M222.59,187.69c-.22-.12-.46-.17-.71-.17-.73-.09-1.47-.09-2.2,0-.73.1-1.42.42-1.97.92-.36.38-.66.83-.87,1.31-.29.59-.5,1.21-.64,1.85-.13.71-.16,1.43-.1,2.15.03.72.15,1.43.35,2.13.14.5.38.97.71,1.38.37.4.81.71,1.31.92.86.4,1.8.57,2.74.49.95-.12,1.82-.58,2.44-1.31.58-.78.89-1.72.88-2.69-.02-.96-.15-1.91-.37-2.85-.13-.81-.31-1.61-.54-2.4-.19-.66-.54-1.25-1.04-1.72Z"/></g><g id="character_2_family-meal-7"><polygon class="cls-16_family-meal-7 targetColor" points="78.44 160.42 83.86 351.23 93.46 351.23 93.46 289.55 149.48 289.55 149.48 351.23 159.1 351.23 159.1 280.09 91.74 279.19 89.72 160.42 78.44 160.42" style="fill: rgb(104, 225, 253);"/><polygon class="cls-6_family-meal-7" points="78.44 160.42 83.86 351.23 93.46 351.23 93.46 289.55 149.48 289.55 149.48 351.23 159.1 351.23 159.1 280.09 91.74 279.19 89.72 160.42 78.44 160.42"/><path class="cls-15_family-meal-7" d="M163.37,276.62c6.3,12.39,12.78,24.68,19.45,36.88,5.83,10.67,10.43,21.73,22.48,26.52,1.66.49,3.21,1.31,4.55,2.4,1.22,1.21,1.73,3.37.56,4.64-.98,1.08-2.62,1.06-4.11.97l-16.11-.97c-1.6,0-3.19-.31-4.67-.93-2.62-1.31-3.94-4.38-5.12-7.12-3.71-8.49-10.5-14.91-14.43-22.97-3.6-7.55-7.8-14.79-12.57-21.66-7.43-10.5-16.11-20.76-18.57-33.37-.67-1.41-.07-3.09,1.34-3.76.68-.32,1.47-.36,2.17-.1,5.4.34,10.49,2.62,14.34,6.42"/><path class="cls-15_family-meal-7" d="M155.32,199.6c2.29-1.8,3.93-4.31,4.67-7.12.74-2.8,1.66-5.54,2.76-8.21,1.42-2.9,3.66-5.31,6.44-6.95,1.05-.7,2.29-1.07,3.56-1.05,1.34.2,2.58.83,3.53,1.78,1.79,1.39,3.01,3.4,3.41,5.63.3,2.62-1.19,5.25-3.04,7.16-1.85,1.92-4.09,3.45-5.9,5.43-1.42,1.7-2.74,3.48-3.94,5.34-6.04,8.39-14.73,14.51-24.67,17.36-1.97,1.11-4.46.54-5.75-1.31-2.62-3.06-4.99-6.74-5.5-10.81-.18-1.51-.3-4.05.68-5.37s3.46-1.31,5.14-1.31c6.18-.05,12.67,3.45,18.61-.56Z"/><path class="cls-13_family-meal-7" d="M156.47,112.31c-4.71-7.61-14.89-11.61-23.28-8.49-.78.37-1.62.58-2.48.62-6.11-.28-10.59-3.5-16.58.51-3.99,2.72-6.31,7.3-6.17,12.12-4.08-1.15-8.36,2.18-9.75,6.18-1.39,4-.63,8.42.25,12.57-3.5,1.61-5.59,5.48-6.13,9.33-.3,3.87.06,7.77,1.05,11.52-3.2-.96-6.38,2.39-6.56,5.72-.18,3.33,1.57,6.44,3.28,9.32-4.59,1.19-8.34,4.49-10.1,8.9-1.55,4.4,0,9.91,3.94,12.29,1.21.72,2.62,1.15,3.74,1.92s1.86,1.54,2.83,2.26c5.03,3.78,12.5,2.62,17.53-1.17,11.09-8.31,13.24-24.58,20.99-35.43,5.88-8.2,14.62-10.5,22.31-16.31,5.25-3.94,6.85-9.81,7.87-16.17.99-5.39.02-10.96-2.74-15.69Z"/><path class="cls-15_family-meal-7" d="M156.14,141.87l.66,2.62c.18.55.21,1.14.09,1.71-.25.76-1.02,1.22-1.6,1.77-1.69,1.6-1.92,4.19-3.07,6.21-1.78,3.15-5.64,4.57-9.18,4.75-1.87-.11-3.74.16-5.5.79-2.2,1.09-3.32,3.57-3.84,5.97-.39,1.79-.54,3.62-.45,5.45.28,5.25,2.62,10.5,1.94,15.75-4.58-.45-8.79-2.62-12.88-4.7-4.09-2.07-8.78-4.83-9.85-9.39-1.48-6.32,3.58-12.56,4.43-18.62,1.1-7.78.17-15.75,1.23-23.51.29-3.6,1.58-7.06,3.73-9.97,1.47-1.69,3.25-3.08,5.25-4.09,8.02-4.34,17.95-3.18,22.92,5.08,1.91,3.63,3.26,7.53,3.99,11.57l2.14,8.63Z"/><path class="cls-16_family-meal-7 targetColor" d="M114.17,169.52c1.43-.46,2.99-.28,4.26.51,2.62,1.63,13.78,17.15,16.69,16.89,2.91-.26,8.21,10.89,6.72,16.24-1.5,5.35-5.72,8.99-6.13,14.98-.41,6-4.09,19.5-4.09,19.5l22.63,9.26c-2.31,8.9-2.82,18.04-5.77,26.87-.28,1.29-1,2.45-2.03,3.28-.9.46-1.9.69-2.91.66-12.64.59-25.3.21-37.88-1.15-3.94-.42-8.07-1.04-11.15-3.49-4.59-3.65-5.51-10.22-5.38-16.09.45-20.06,9.01-39.09,11.42-59.04.64-5.39.87-10.89,2.62-16.03,1.19-3.56,6.05-10.97,11.01-12.39Z" style="fill: rgb(104, 225, 253);"/><path class="cls-13_family-meal-7" d="M117.71,252.27c-5.61,4.69-10.5,10.19-14.51,16.31-.85,1.01-1.25,2.33-1.09,3.65.29.81.83,1.51,1.54,1.99,7.19,5.79,17.28,3.48,25.65,5.59,10.05,2.55,15.01,14.43,18.66,23.28.43,1.37,1.21,2.59,2.27,3.56,1.25.76,2.7,1.14,4.16,1.09,7.21.38,14.44-.03,21.56-1.21,1.44-.11,2.82-.66,3.94-1.59,1.6-1.61,1.31-4.24.87-6.47-2.28-10.71-6.53-20.9-12.53-30.06-2.81-4.29-6.01-9.18-9.88-12.58-4.25-3.77-10.81-5.51-16.06-7.78-3.57-1.56-7.32-3.14-11.21-2.85s-7.54,2.52-10.72,4.93c-.88.7-1.77,1.4-2.64,2.14Z"/><path class="cls-13_family-meal-7" d="M132.76,135.19c-1.46.33-2.89.77-4.28,1.31-1.41.57-2.38,1.89-2.51,3.41.29-1.31-1.31-2.49-2.62-2.2-1.31.4-2.25,1.54-2.4,2.9-.35,2.42,1.03,4.77,3.32,5.64-2.43,3.07-1.94,7.41-2.15,11.31-.25,4.4-1.54,8.67-3.75,12.48-1.36,2.49-3.31,4.62-5.68,6.19-1.65,1.02-4.11,1.54-5.35,0-.55-.82-.84-1.78-.83-2.77-1.31-14.93-1.71-30.36,3.35-44.47,1.06-3.2,2.62-6.22,4.62-8.94,4.28-5.5,11.05-8.65,17.92-9.78,6.56-1.06,14.94.81,12.32,8.87-2.03,6.51-4.79,13.76-11.95,16.03Z"/><path class="cls-15_family-meal-7" d="M117.04,170.04c1.98,1.13,3.6,2.81,4.66,4.84,5.38,8.86,6.97,19.68,12.4,28.45.71,1.25,1.64,2.38,2.73,3.32,1.08.79,2.27,1.42,3.53,1.86,6.78,2.69,13.93,4.32,21.2,4.83,3.45.25,6.56.5,9.66-.84,7.12-3.06,15.37.23,18.42,7.35.06.15.12.29.18.44.21.37.24.81.08,1.21-.25.43-.83.5-1.31.51l-7.19.3-9.66.38-1.73.08c-9.59.38-20.35,2.01-29.69-.73-9.34-2.74-15.94-10.2-22.5-17.14-3.45-3.33-6.53-7.02-9.18-11.01-2.48-4.11-3.94-9-3.07-13.71.87-4.71,6.73-9.54,11.48-10.14Z"/><path class="cls-14_family-meal-7" d="M175.52,186.22l7.7,10.5s1.01,1.31-1.18.64-9.26-13.12-9.26-13.12c-1.46-2.62-3.18-4.99-4.63-7.54-.3-.55-.59-1.1-.88-1.67-.04-.13-.13-.24-.24-.31-.11-.06-.23-.09-.35-.09h-1.31c-.39.03-.78.03-1.17,0-.47-.07-.91-.23-1.31-.49-1.33-1.01-2.3-2.41-2.78-4-.38-.71-.51-1.53-.37-2.32.44.36.81.81,1.08,1.31.46.69,1,1.33,1.6,1.9.22.27.55.43.89.46.08,0,.16-.04.22-.1.12-.12,0-.33,0-.49l-1.92-4.7c-.12-.22-.15-.49-.08-.73.52.07.99.34,1.31.75.32.4.59.84.8,1.31.5,1.08,1.12,2.1,1.85,3.04.05.08.13.15.22.18.13.01.26-.07.3-.2.04-.12.04-.26,0-.38-.24-1.73-1.84-3.08-1.94-4.83.66.18,1.24.59,1.61,1.17.37.57.69,1.17.94,1.8.39.79.83,1.56,1.31,2.3.28.41.52.85.71,1.31.17.48.12,1.02-.14,1.46-.03.04-.06.09-.07.14,0,.06.03.11.07.16l1.19,1.93c.34.54.7,1.02,1.08,1.52.25.42.46.85.63,1.31.55,1.09,1.12,2.18,1.68,3.27.77,1.47,1.55,2.95,2.34,4.42l.09.09Z"/><path class="cls-12_family-meal-7" d="M169.75,162.57c.2.17.37.4.47.64.09.29.09.61,0,.91-.56,1.41-1.81,2.42-3.31,2.69-1.46.25-2.9.62-4.3,1.12-1.23.59-2.37,1.65-3.74,1.52-.87-.11-1.65-.59-2.15-1.31-.47-.74-.83-1.54-1.09-2.37-.1-.23-.14-.49-.09-.75.09-.23.25-.42.46-.55,2.28-1.71,4.86-2.97,7.61-3.71,2.56-.79,4.32-.08,6.14,1.82Z"/><path class="cls-4_family-meal-7" d="M167.86,162.84c-.47.45-1.04.79-1.65,1.01-1.57.59-3.21.98-4.88,1.18-.36.03-.72.1-1.06.21-.67.3-1.28.71-1.82,1.21-.55.5-1.25.78-1.99.8,0,.75.34,1.46.94,1.92,1.06.63,2.37.68,3.48.13,1.12-.46,2.13-1.17,3.27-1.56,1.56-.55,3.31-.45,4.85-1.05.34-.13.66-.31.94-.54.77-.71,1.06-1.8.75-2.79-.24-.78-.77-1.44-1.47-1.85-.85-.43-.89.85-1.35,1.34Z"/><path class="cls-14_family-meal-7" d="M148.13,150.35c-1.49-.21-2.99-.31-4.5-.3.1,1.8.81,3.52,2.01,4.87.27.35.66.59,1.1.64.49-.08.92-.38,1.15-.83.78-1.13,1.24-2.45,1.31-3.82.02-.08.02-.16,0-.24-.07-.09-.18-.15-.29-.16l-1.68-.46"/><path class="cls-16_family-meal-7 targetColor" d="M121.52,171.67c-1.01-1.87-2.54-3.41-4.4-4.43-2.9-1.31-6.48-.12-8.75,2.14-2.14,2.4-3.69,5.26-4.54,8.36-1.12,2.66-1.6,5.54-1.4,8.42.34,1.92.96,3.78,1.84,5.52l7.26,16.23c2.97-2.34,5.81-4.83,8.52-7.47,2.72-2.65,6.1-4.52,9.8-5.39-1.3-3.94-2.27-7.98-2.9-12.08-.75-3.92-3.31-7.94-5.42-11.3Z" style="fill: rgb(104, 225, 253);"/><path class="cls-16_family-meal-7 targetColor" d="M205.75,341.2c-1.41.24-2.76.71-4.02,1.39-2.2.89-4.6,1.17-6.94.8-3.06-.49-5.81-2.05-8.74-3.04-.73-.29-1.51-.42-2.3-.38-.81.06-1.52.57-1.85,1.31-.19.79-.08,1.63.31,2.35l1.1,2.82c.37,1.1.9,2.14,1.59,3.08.71.94,1.81,1.5,2.99,1.52,1.31,0,2.32-.93,3.54-1.25,1.46-.22,2.95-.11,4.36.33,2.17.4,4.36.66,6.56.79,4.49.34,9.37.59,13.12-1.94.54-.37,1.1-1,.83-1.6-.14-.24-.34-.44-.58-.58-2.69-1.85-6.63-5.8-9.99-5.6Z" style="fill: rgb(104, 225, 253);"/></g><g id="character_1_family-meal-7"><path class="cls-16_family-meal-7 targetColor" d="M323.84,349.06c-.36,0-.72-.08-1.04-.25-1-.63-.41-2.19.37-3.08,1.76-1.9,3.73-3.59,5.88-5.03l8.19-5.94c.72-.57,1.51-1.05,2.35-1.42,1.06-.34,2.17-.5,3.28-.49l7.07-.3c.51-.07,1.02,0,1.5.18.54.32.95.82,1.17,1.42,1.03,2.52,1.57,5.22,1.59,7.94.15,1.2-.02,2.42-.5,3.53-.96,1.76-3.54,1.85-5.25,2.14-2.76.46-5.51.85-8.28,1.12-5.43.5-10.89.56-16.32.18Z" style="fill: rgb(104, 225, 253);"/><polygon class="cls-16_family-meal-7 targetColor" points="440.72 160.42 435.31 351.23 425.7 351.23 425.7 289.55 369.69 289.55 369.69 351.23 360.08 351.23 360.08 280.09 427.42 279.19 429.45 160.42 440.72 160.42" style="fill: rgb(104, 225, 253);"/><polygon class="cls-10_family-meal-7" points="440.72 160.42 435.31 351.23 425.7 351.23 425.7 289.55 369.69 289.55 369.69 351.23 360.08 351.23 360.08 280.09 427.42 279.19 429.45 160.42 440.72 160.42"/><path class="cls-13_family-meal-7" d="M426.78,260.62c.76.43-.75,5.34-.93,5.88-1.64,4.41-5.04,7.94-9.39,9.74-8.07,3.57-17.83,2.09-26.39,2.62-12.15.76-24.3,1.3-36.46,1.63.31,19.41.52,38.82.63,58.22-4.93-.74-9.69-2.37-14.03-4.83-.76-.37-1.43-.91-1.94-1.59-.38-.72-.61-1.51-.66-2.32l-2.62-19.06c-1.46-10.65-2.9-21.39-2.22-32.11.63-6.04.05-12.14-1.71-17.95-.85-2.85-.8-4.24,1.31-6.38,3.77-3.79,10.81-5.1,15.75-6.27,13.41-3.15,27.32-4.45,41.04-5.37,1.61-.1,3.23-.21,4.84-.28l32.78,18.07Z"/><path class="cls-15_family-meal-7" d="M349.28,116.26c.71,3.61,1.31,7.52-.35,10.81-.51,1.04-1.23,2.24-.67,3.25.38.5.88.89,1.46,1.15,2.83,1.67,4.37,4.79,6,7.65s3.75,5.8,6.94,6.56,6.63-1,9.96-.72c3.87.3,6.97,3.23,9.5,6.18.3.47.77.8,1.31.92.44-.02.85-.18,1.19-.46,3.38-2.22,6.53-4.78,9.39-7.64.23-.19.4-.45.47-.73.01-.34-.1-.68-.31-.94-5.58-9.18-5.66-20.52-7.4-31.12-.89-5.34-2.34-10.81-5.88-14.91-5.25-6.04-14.14-7.79-22-6.35-1.64.22-3.21.82-4.58,1.75-1.21,1.06-2.2,2.33-2.93,3.77-3.79,6.49-3.54,13.59-2.1,20.84Z"/><path class="cls-13_family-meal-7" d="M372.55,126.15c-5.03,1.92-10.61,1.63-15.81,3.02-1.36.24-2.6.95-3.49,2.01-.72,1.32-.89,2.86-.47,4.3.45,1.97,1.05,3.89,1.81,5.76,1.1,2.91,2.36,6.05,5.01,7.69,1.62.87,3.41,1.37,5.25,1.47,2.84.49,5.76.08,8.36-1.15,2.62-1.48,4.22-4.25,5.68-6.89l5.31-9.57c1.55-2.81,3.16-5.96,2.37-9.07-.79-3.11-2.94-5.46-5.77-3.23-2.83,2.23-4.91,4.38-8.25,5.66Z"/><path class="cls-16_family-meal-7 targetColor" d="M414.9,152.46c9.27,13.82,14.33,30.03,14.54,46.67.14,7.87-1.46,14.43-.64,22.37,1.16,9.6,1.4,19.3.71,28.95-.22,3.62-.99,7.19-2.28,10.58-2.83,6.53-8.66,11.28-15.63,12.71-15.44,3.04-30.24-11.35-36.35-24.04-1.55-2.88-2.41-6.08-2.53-9.34,0-3.94,1.73-7.61,3.03-11.31,2.89-8.16,2.77-15.86,3.12-24.25s1.21-16.89,1.19-25.42c0-6.02-.18-12.1.97-18,1.15-5.9,3.78-11.81,8.42-15.59,9.91-8.19,19.27-2.34,25.44,6.67Z" style="fill: rgb(104, 225, 253);"/><path class="cls-11_family-meal-7" d="M416.75,153.67c1.96,2.84,3.71,5.82,5.25,8.91,6.64,13.12,8.37,28.18,8.23,42.89-.14,14.71-2.07,29.33-2.32,44.03.15,3.74-.22,7.48-1.12,11.11-1.9,5.8-6.42,10.38-12.2,12.35-16.09,5.48-30.68-9.18-37.05-22.31-1.55-2.88-2.41-6.08-2.53-9.34,0-3.94,1.73-7.61,3.04-11.31,2.87-8.16,2.76-15.88,3.11-24.26.35-8.38,1.15-16.91,1.15-25.39,0-6.02-.17-12.1.98-18,1.15-5.9,3.78-11.74,8.41-15.59,10.35-8.61,19-1.76,25.05,6.9Z"/><path class="cls-16_family-meal-7 targetColor" d="M406.45,200.13c-1.5,4.84-3.25,8.8-9.43,11.69-5.43,2.52-11.57,2.99-17.56,3.2-7.12.25-14.18,0-21.35-.24-.94.02-1.89-.14-2.77-.47-.97-.55-1.79-1.31-2.41-2.23-1.52-1.74-2.77-3.71-3.69-5.83-.93-2.15-.87-4.59.17-6.69,1.28-1.95,3.33-3.26,5.64-3.6,2.28-.32,4.59-.34,6.88-.08,3.88.24,7.77.32,11.65.22,2.72-.08,7.62.58,9.88-1.23.76-.73,1.32-1.63,1.65-2.62l8.23-19.21c1.84-4.28,2.99-9.34,6.46-12.67,6.23-6.02,12.44-1.72,13.48,5.94,1.39,10.13-1.65,18.37-4.92,27.55-.76,2.23-1.31,4.33-1.9,6.26Z" style="fill: rgb(104, 225, 253);"/><path class="cls-14_family-meal-7" d="M361.72,133.68c.34,1.06.54,2.16.6,3.27,0,.62,0,1.31-.55,1.68-.41.23-.91.23-1.31,0-.38-.25-.7-.57-.96-.94-.54-.7-2.16-2.14-1.55-3.11.29-.5,3.65-1.25,3.77-.89Z"/><path class="cls-13_family-meal-7" d="M347.04,80.63c-2.02.59-3.69,2.02-4.58,3.94-.56,1.97.03,4.08,1.51,5.48,1.48,1.37,3.36,2.23,5.37,2.45-.37.92-.54,1.91-.5,2.9.03,1.04.7,1.96,1.69,2.28.63.09,1.28,0,1.86-.26,2.24-.76,4.41-1.71,6.48-2.85.78-.53,1.69-.85,2.62-.94.82.09,1.62.34,2.35.72,1.9.8,3.96,1.17,6.02,1.09.73-.09,1.47-.09,2.2,0,2.35.49,3.44,3.16,4.15,5.46l3.46,11.3c1.2-1.97,2.55-3.85,4.04-5.6,2.82,2.56,3.03,6.93.47,9.75-.38.42-.81.79-1.28,1.1-.3.2-.64.41-.72.76-.03.22,0,.45.07.66l4.3,14.7c1.05-.63,2.26-.96,3.49-.94,3.04-2.34,4.05-6.38,5.17-10.05,1.41-4.65,3.25-9.16,5.5-13.46.94-1.8,1.98-3.82,1.39-5.75-.75-2.41-3.84-3.84-3.83-6.38.1-.92.37-1.81.81-2.62,1.06-2.48,1.44-5.51,0-7.81-.78-1.12-1.79-2.07-2.97-2.77-2.75-1.84-5.76-3.25-8.94-4.17,1.08-2.24-.73-4.83-2.74-6.3-4.06-2.84-9.04-4.04-13.95-3.35-4.89.71-9.45,2.86-13.12,6.17-1.38,1.22-3.23,1.31-4.83,2.15-1.79.88-3.63,1.66-5.51,2.35Z"/><rect class="cls-14_family-meal-7" x="330.35" y="184.13" width="13.3" height="28.28"/><path class="cls-2_family-meal-7 targetColor" d="M332.07,192.16c-.03-.28.05-.57.24-.79.2-.16.46-.25.72-.25,2.69-.23,5.38-.39,8.1-.49.5-.13,1.01.17,1.14.67.04.17.04.34,0,.5.19,4.92.29,9.85.3,14.77,0,1.23.17,3.5-.93,4.25-.77.54-3.7.28-4.67.17-1.78-.05-3.4-1.05-4.24-2.62-2.27-4.3-.81-11.57-.64-16.22Z" style="fill: rgb(104, 225, 253);"/><path class="cls-2_family-meal-7 targetColor" d="M332.07,192.16c-.03-.28.05-.57.24-.79.2-.16.46-.25.72-.25,2.69-.23,5.38-.39,8.1-.49.5-.13,1.01.17,1.14.67.04.17.04.34,0,.5.19,4.92.29,9.85.3,14.77,0,1.23.17,3.5-.93,4.25-.77.54-3.7.28-4.67.17-1.78-.05-3.4-1.05-4.24-2.62-2.27-4.3-.81-11.57-.64-16.22Z" style="fill: rgb(104, 225, 253);"/><path class="cls-15_family-meal-7" d="M336.39,197.61c-2.5.67-4.34,2.79-4.64,5.37-.09,2.62,1.98,4.85,4.37,5.84,2.47.81,5.07,1.12,7.66.91,2.81,0,7.7,1.13,8.82-2.03.77-2.15.52-4.54-.7-6.48-2.73-3.53-11.57-4.79-15.51-3.6Z"/></g><g id="table_family-meal-7"><path class="cls-16_family-meal-7 targetColor" d="M169.08,212.74c-3.71,0-7.7.13-10.67,1.6-2.97,1.47-4.37,4.19-5.45,6.67-6.56,14.96-13.83,30.05-26.99,42.96-.83.81-1.72,1.68-1.73,2.62.15,1.07.75,2.02,1.64,2.62,7.37,6.47,20.7,8.63,32.95,8.52,3.28,0,6.76-.16,9.66.88,2.02.81,3.84,2.03,5.35,3.6,6.56,6.02,13.63,12.53,24.22,15,10.31,2.41,22.38.55,32.08,3.94,7.52,2.62,11.98,7.77,17.06,12.29,2.02,2.1,4.71,3.44,7.6,3.79,4.58.33,8.02-2.55,11.1-4.82,6.35-4.68,14.76-7.87,22.46-11.55,7.7-3.67,15.14-8.23,17.99-14.24,1.57,4.63,10.18,6.68,17.27,6.02,7.09-.66,13.49-3.14,20.44-4.22,11.01-1.71,22.45.16,33.72.68,6.56.3,13.96-.1,18.24-3.4,3.94-3.04,3.81-7.65,1.8-11.43-2.01-3.78-5.59-7.12-8.1-10.77-5.37-7.87-5.51-16.77-6.93-25.35-1.22-7.43-3.94-17.91-13.24-23.05-4.57-2.55-12.22-1.61-17.87-1.71-8.34-.14-16.69-.26-25.05-.37-33.61-.45-67.22-.64-100.84-.59-18.93.03-37.84.13-56.72.3Z" style="fill: rgb(104, 225, 253);"/><path class="cls-9_family-meal-7" d="M354.52,269.93c-8.86-13.12-6.44-30.41-8.71-46.05-.49-3.36-1.61-7.2-4.79-8.45-1.19-.39-2.45-.56-3.7-.5l-117.85-1.56c-3.21,0-6.56,0-9.38,1.61-5.55,3.31-5.73,11.09-8.4,16.98l11.52-11.32c1.68,2.62,1.67,5.85,1.52,8.92-.36,7.68-1.2,15.32-2.49,22.9-.53,3.95-1.63,7.79-3.28,11.42-1.68,3.65-4.69,6.52-8.41,8.03,2.93,1.71,6.29,2.57,9.68,2.47,1.46.04,2.9-.34,4.15-1.12.99-.79,1.8-1.78,2.37-2.9,5.79-9.69,10-20.24,12.46-31.25.45-2.64,1.22-5.22,2.31-7.66,1.11-2.48,3.29-4.32,5.92-5,3.19-.39,6.33,1.02,8.16,3.65,1.76,2.62,2.91,5.6,3.37,8.73,1.2,5.88,1.74,11.88,1.63,17.88-.1,6.21-.92,12.52.42,18.59,2.09,9.45,9.01,16.98,13.3,25.64-7-23.66-7.94-48.69-2.73-72.81-.05-2.4,1.85-4.38,4.25-4.43.28,0,.56.02.84.06l46.41-1.31c5.06-.16,10.5-.2,14.7,2.62,4.59,3.07,6.56,8.73,8.24,13.99l7.01,22c.63,1.62.95,3.34.93,5.08-.26,1.94-1.03,3.78-2.23,5.33-4.72,6.79-11.91,11.46-20.04,13.03-1.62.4-3.31.4-4.93,0-3.94-1.19-5.6-5.66-6.77-9.57l-.24,10.69c-.15,1.14.1,2.3.71,3.28.64.67,1.48,1.1,2.39,1.23,5.25,1.14,10.5-1,15.6-2.49,8.75-2.62,17.19-2.69,26.24-2.35,3.33.13,5.03-1.61,5.03-5.14-.08-4-3.15-7.14-5.21-10.21Z"/></g><g id="food_family-meal-7"><path class="cls-16_family-meal-7 targetColor" d="M300.96,172.28c.81-.3,1.96.28,1.84,1.13.69-.91,1.24-1.91,1.63-2.98.4-1.09,1.22-1.97,2.27-2.44,1.08-.35,2.53.35,2.51,1.5,1.22-2.97,2.8-5.77,4.71-8.34,1.95-2.59,4.78-4.36,7.95-4.99,1.31,1.65.58,4.03-.29,5.93-1.41,3.1-3.17,6.02-5.25,8.71,1.31-.49,2.99-.88,3.94.17.57.81.57,1.88,0,2.69-.56.77-1.29,1.42-2.13,1.89,1.39-.12,2.36,1.63,1.96,2.97-.54,1.31-1.62,2.32-2.95,2.78-1.32.45-2.59,1.05-3.78,1.78-.49.38-.92.84-1.43,1.19-2.87,1.9-10.34,1.63-12.92-.88-2.58-2.51-1.22-9.89,1.96-11.11Z" style="fill: rgb(104, 225, 253);"/><path class="cls-16_family-meal-7 targetColor" d="M272.4,178.33c-.24-2.36,2.27-4.68,4.51-3.94l-3.28-5.96c-.5-.88-.79-2.34.18-2.62.72-.22,1.67.5,2.16,0,.16-.22.24-.5.22-.77-.05-1.59.02-3.17.2-4.75.2-1.6,1.07-3.03,2.4-3.94.3-.21.67-.28,1.02-.21.45.14.66.63.81,1.08l4.17,11.49c1.05-.84,1.31-2.43,2.44-3.16,1.4-.92,3.44.13,4.08,1.69.49,1.62.39,3.36-.28,4.92,1.47-.87,3.12-1.37,4.83-1.47-.23,3.31-.73,6.61-1.48,9.84-.03.59-.54,1.03-1.12,1-.01,0-.02,0-.03,0-4.33.51-20.14,4.07-20.85-3.2Z" style="fill: rgb(104, 225, 253);"/><path class="cls-7_family-meal-7" d="M300.96,172.28c.81-.3,1.96.28,1.84,1.13.69-.91,1.24-1.91,1.63-2.98.4-1.09,1.22-1.97,2.27-2.44,1.08-.35,2.53.35,2.51,1.5,1.22-2.97,2.8-5.77,4.71-8.34,1.95-2.59,4.78-4.36,7.95-4.99,1.31,1.65.58,4.03-.29,5.93-1.41,3.1-3.17,6.02-5.25,8.71,1.31-.49,2.99-.88,3.94.17.57.81.57,1.88,0,2.69-.56.77-1.29,1.42-2.13,1.89,1.39-.12,2.36,1.63,1.96,2.97-.54,1.31-1.62,2.32-2.95,2.78-1.32.45-2.59,1.05-3.78,1.78-.49.38-.92.84-1.43,1.19-2.87,1.9-10.34,1.63-12.92-.88-2.58-2.51-1.22-9.89,1.96-11.11Z"/><path class="cls-8_family-meal-7" d="M272.4,178.33c-.24-2.36,2.27-4.68,4.51-3.94l-3.28-5.96c-.5-.88-.79-2.34.18-2.62.72-.22,1.67.5,2.16,0,.16-.22.24-.5.22-.77-.05-1.59.02-3.17.2-4.75.2-1.6,1.07-3.03,2.4-3.94.3-.21.67-.28,1.02-.21.45.14.66.63.81,1.08l4.17,11.49c1.05-.84,1.31-2.43,2.44-3.16,1.4-.92,3.44.13,4.08,1.69.49,1.62.39,3.36-.28,4.92,1.47-.87,3.12-1.37,4.83-1.47-.23,3.31-.73,6.61-1.48,9.84-.03.59-.54,1.03-1.12,1-.01,0-.02,0-.03,0-4.33.51-20.14,4.07-20.85-3.2Z"/><path class="cls-16_family-meal-7 targetColor" d="M321.95,181.15c1.69.15,3.38.4,5.04.76,1.15,6.65-.29,13.48-4.02,19.1-6.56,9.79-19.93,14.2-31.25,11.74-6.36-1.5-11.97-5.22-15.82-10.5-2.13-2.89-3.8-6.08-4.96-9.47-.75-2.16-3.03-7.64-1.75-9.81,1.29-2.18,7.05-2.13,9.26-2.35,4.05-.35,8.12-.5,12.19-.45,8.89,0,17.76.24,26.62.71,1.59.03,3.16.12,4.68.26Z" style="fill: rgb(104, 225, 253);"/><path class="cls-3_family-meal-7" d="M321.95,181.15c1.69.15,3.38.4,5.04.76,1.15,6.65-.29,13.48-4.02,19.1-6.56,9.79-19.93,14.2-31.25,11.74-6.36-1.5-11.97-5.22-15.82-10.5-2.13-2.89-3.8-6.08-4.96-9.47-.75-2.16-3.03-7.64-1.75-9.81,1.29-2.18,7.05-2.13,9.26-2.35,4.05-.35,8.12-.5,12.19-.45,8.89,0,17.76.24,26.62.71,1.59.03,3.16.12,4.68.26Z"/><rect class="cls-14_family-meal-7" x="180.64" y="184.13" width="13.3" height="28.28"/><path class="cls-2_family-meal-7 targetColor" d="M182.36,192.91c-.11-.46.18-.92.64-1.02.11-.02.21-.03.32-.01,2.62-.22,5.39-.39,8.08-.5.26-.04.52,0,.75.13.29.27.44.66.39,1.05.2,4.91.3,9.84.3,14.76,0,1.23.17,3.5-.93,4.26-.77.52-3.7.28-4.67.16-1.78-.04-3.41-1.04-4.24-2.62-2.27-4.3-.81-11.56-.64-16.2Z" style="fill: rgb(104, 225, 253);"/><path class="cls-2_family-meal-7 targetColor" d="M182.36,192.91c-.11-.46.18-.92.64-1.02.11-.02.21-.03.32-.01,2.62-.22,5.39-.39,8.08-.5.26-.04.52,0,.75.13.29.27.44.66.39,1.05.2,4.91.3,9.84.3,14.76,0,1.23.17,3.5-.93,4.26-.77.52-3.7.28-4.67.16-1.78-.04-3.41-1.04-4.24-2.62-2.27-4.3-.81-11.56-.64-16.2Z" style="fill: rgb(104, 225, 253);"/></g></svg>