<svg xmlns="http://www.w3.org/2000/svg" version="1.1" xmlns:xlink="http://www.w3.org/1999/xlink" xmlns:svgjs="http://svgjs.dev/svgjs" viewBox="0 0 800 450"><defs><filter id="bbblurry-filter" x="-100%" y="-100%" width="400%" height="400%" filterUnits="objectBoundingBox" primitiveUnits="userSpaceOnUse" color-interpolation-filters="sRGB">
	<feGaussianBlur stdDeviation="46" x="0%" y="0%" width="100%" height="100%" in="SourceGraphic" edgeMode="none" result="blur"></feGaussianBlur></filter></defs><g filter="url(#bbblurry-filter)"><ellipse rx="96" ry="97" cx="548.0939734751782" cy="763.0484897883858" fill="#fff2ed"></ellipse><ellipse rx="96" ry="97" cx="694.5418701171875" cy="50.676937796852826" fill="#ffe2d5"></ellipse><ellipse rx="96" ry="97" cx="488.11834921048387" cy="690.9296704389917" fill="#fff9ed"></ellipse><ellipse rx="96" ry="97" cx="609.7891970656988" cy="659.6239821066068" fill="#edf2ff"></ellipse><ellipse rx="96" ry="97" cx="755.4307084517045" cy="124.41406111283737" fill="#dfe6ff"></ellipse><ellipse rx="96" ry="97" cx="103.32738772305572" cy="39.05751176313919" fill="#ffe2d5"></ellipse><ellipse rx="96" ry="97" cx="75.78218356045807" cy="386.21139110218394" fill="#fff1d4"></ellipse><ellipse rx="96" ry="97" cx="693.4049349698154" cy="433.36385276100856" fill="#edf2ff"></ellipse><ellipse rx="96" ry="97" cx="621.0932395241476" cy="466.5723904696378" fill="#fff2ed"></ellipse><ellipse rx="96" ry="97" cx="99.6855062649945" cy="769.180855578325" fill="#edf2ff"></ellipse><ellipse rx="96" ry="97" cx="-20.683104387418553" cy="658.8697351170338" fill="#fff1d4"></ellipse><ellipse rx="96" ry="97" cx="148.05531094768844" cy="815.1684503029651" fill="#fff2ed"></ellipse><ellipse rx="96" ry="97" cx="137.63232283158732" cy="46.630011125044405" fill="#dfe6ff"></ellipse><ellipse rx="96" ry="97" cx="44.45490056818181" cy="431.9873227206144" fill="#fff2ed"></ellipse><ellipse rx="96" ry="97" cx="149.59671852805394" cy="432.23355379971593" fill="#edf2ff"></ellipse><ellipse rx="96" ry="97" cx="115.21980424360794" cy="473.3776605779475" fill="#ffe2d5"></ellipse></g></svg>