<?xml version="1.0" encoding="UTF-8"?>
<svg id="Layer_2" xmlns="http://www.w3.org/2000/svg" viewBox="0 0 265 567">
  <g id="Layer_1-2" data-name="Layer_1">
    <g>
      <g>
        <g>
          <rect width="265" height="567" style="fill: #fea639;"/>
          <g>
            <g>
              <g>
                <rect x="18.5" y="152" width="228" height="326" rx="15" ry="15" style="fill: #fff;"/>
                <g>
                  <path d="M86.73,184.78l2.64-7.28h1.07l2.68,7.28h-.98l-1.54-4.32c-.09-.27-.2-.6-.33-1-.12-.4-.28-.91-.46-1.53h.18c-.18.62-.33,1.14-.46,1.55-.13.4-.24.73-.32.98l-1.5,4.32h-.99ZM88.06,182.75v-.81h3.74v.81h-3.74Z" style="fill: #333;"/>
                  <path d="M95.28,177.51v7.28h-.88v-7.28h.88Z" style="fill: #333;"/>
                  <path d="M97.52,178.43c-.17,0-.31-.06-.43-.17-.12-.11-.18-.25-.18-.41s.06-.3.18-.41c.12-.11.26-.17.43-.17s.31.06.43.17c.12.11.18.25.18.41s-.06.3-.18.41c-.12.11-.27.17-.43.17ZM97.07,184.78v-5.46h.88v5.46h-.88Z" style="fill: #333;"/>
                  <path d="M101.95,186.94c-.4,0-.75-.05-1.05-.15-.29-.1-.54-.24-.73-.41s-.35-.35-.46-.55l.71-.46c.08.1.17.22.29.35.12.13.27.24.47.33.2.09.46.13.77.13.44,0,.79-.1,1.08-.31.28-.21.42-.54.42-.99v-1.09h-.08c-.06.1-.15.23-.26.37s-.27.27-.48.38c-.21.11-.49.16-.84.16-.44,0-.83-.1-1.18-.31-.35-.21-.62-.51-.83-.91-.2-.4-.3-.88-.3-1.45s.1-1.05.3-1.47c.2-.42.47-.74.82-.96.35-.23.75-.34,1.2-.34.35,0,.63.06.84.17.21.12.37.25.49.4.11.15.2.27.26.37h.08v-.87h.85v5.6c0,.47-.11.85-.32,1.15-.21.3-.5.52-.86.66-.36.14-.76.21-1.2.21ZM101.93,183.91c.33,0,.61-.08.84-.23.23-.15.4-.37.52-.65.12-.29.18-.63.18-1.02s-.06-.73-.17-1.02c-.12-.29-.29-.53-.51-.69-.23-.17-.51-.25-.84-.25s-.63.09-.86.27c-.23.18-.4.41-.52.71-.12.3-.17.63-.17.99s.06.71.18.99.29.51.52.67c.23.16.52.24.86.24Z" style="fill: #333;"/>
                  <path d="M107,181.51v3.27h-.88v-5.46h.84v1.32s-.12,0-.12,0c.17-.5.4-.86.71-1.07s.67-.32,1.08-.32c.37,0,.69.08.97.23.28.15.49.38.65.68.16.3.23.69.23,1.15v3.47h-.88v-3.39c0-.42-.11-.75-.33-.99s-.52-.36-.9-.36c-.26,0-.5.06-.7.17-.21.11-.37.28-.49.5-.12.22-.18.48-.18.8Z" style="fill: #333;"/>
                  <path d="M117.49,179.32v.75h-2.82v-.75h2.82ZM115.49,178.02h.88v5.34c0,.24.05.42.15.54.1.11.26.17.5.17.05,0,.13,0,.21-.02.09-.01.17-.03.24-.04l.18.74c-.09.03-.19.06-.31.07-.12.02-.23.02-.34.02-.47,0-.84-.12-1.1-.37-.26-.25-.4-.6-.4-1.04v-5.41Z" style="fill: #333;"/>
                  <path d="M119.75,181.51v3.27h-.88v-7.28h.88v3.14h-.15c.17-.5.4-.86.71-1.07s.67-.32,1.08-.32c.37,0,.69.08.97.23.28.15.5.38.65.68.16.3.23.69.23,1.15v3.47h-.88v-3.39c0-.42-.11-.75-.33-.99s-.52-.36-.9-.36c-.26,0-.5.06-.7.17-.21.11-.37.28-.49.5-.12.22-.18.48-.18.8Z" style="fill: #333;"/>
                  <path d="M127.33,184.9c-.53,0-.98-.12-1.37-.35-.38-.23-.68-.56-.88-.98-.21-.42-.31-.91-.31-1.47s.1-1.05.3-1.48c.2-.43.49-.76.86-1,.37-.24.8-.36,1.3-.36.29,0,.58.05.86.14.28.1.54.25.77.46.23.21.41.49.55.84s.21.77.21,1.28v.37h-4.24v-.74h3.76l-.41.27c0-.36-.06-.68-.17-.96-.11-.28-.28-.5-.5-.65-.22-.16-.5-.24-.83-.24s-.61.08-.84.24c-.23.16-.41.37-.54.63-.12.26-.19.54-.19.83v.49c0,.4.07.75.21,1.03.14.28.34.5.59.64.25.14.54.22.88.22.21,0,.41-.03.59-.09s.33-.16.45-.28c.13-.13.22-.28.29-.47l.85.23c-.08.27-.23.51-.43.72-.2.21-.45.37-.75.49s-.63.18-1.01.18Z" style="fill: #333;"/>
                  <path d="M137.23,184.88c-.62,0-1.18-.15-1.66-.45-.49-.3-.87-.73-1.15-1.29-.28-.56-.42-1.22-.42-1.99s.14-1.44.42-1.99c.28-.56.66-.99,1.15-1.29.49-.3,1.04-.45,1.66-.45s1.17.15,1.66.45c.48.3.87.73,1.14,1.29.28.56.42,1.22.42,1.99s-.14,1.43-.42,1.99c-.28.56-.66.99-1.14,1.29-.49.3-1.04.45-1.66.45ZM137.23,184.02c.43,0,.82-.11,1.17-.33.35-.22.63-.54.83-.97.21-.43.31-.95.31-1.57s-.1-1.15-.31-1.58c-.21-.43-.48-.75-.83-.97-.35-.22-.74-.33-1.17-.33s-.83.11-1.18.33-.63.55-.84.97c-.21.43-.31.95-.31,1.57s.1,1.14.31,1.57c.21.43.49.75.84.97s.75.33,1.18.33ZM136.93,182.51h.97l.81,1.06.21.28,1.21,1.61h-.97l-.79-1.06-.21-.27-1.23-1.62Z" style="fill: #333;"/>
                  <path d="M142.18,184.78v-7.28h2.49c.57,0,1.03.1,1.4.29.37.19.64.46.82.8.18.34.27.72.27,1.16s-.09.82-.27,1.15c-.18.33-.45.59-.81.78-.37.19-.83.28-1.4.28h-1.98v-.83h1.93c.38,0,.69-.06.92-.17.23-.11.4-.27.51-.48.11-.21.16-.45.16-.73s-.05-.54-.16-.75c-.11-.21-.28-.38-.51-.5-.23-.12-.55-.18-.93-.18h-1.51v6.46h-.93ZM146.36,184.78l-1.76-3.28h1.04l1.79,3.28h-1.07Z" style="fill: #333;"/>
                  <path d="M154.04,184.9c-.5,0-.93-.12-1.3-.35-.37-.23-.66-.56-.87-.99-.21-.42-.31-.92-.31-1.47s.1-1.07.31-1.49c.21-.42.5-.75.87-.99.37-.23.81-.35,1.3-.35.26,0,.51.03.75.1s.45.17.64.3c.19.13.36.29.5.47.14.19.25.4.32.64l-.84.24c-.04-.14-.1-.27-.18-.39-.08-.12-.18-.22-.3-.31-.12-.09-.25-.15-.4-.2-.15-.05-.31-.07-.49-.07-.37,0-.66.09-.9.29-.23.19-.41.44-.52.75-.11.31-.17.65-.17,1.01s.06.69.17,1c.11.31.29.56.52.75s.53.28.9.28c.18,0,.35-.02.5-.07.15-.05.29-.12.41-.21.12-.09.22-.2.3-.32.08-.12.14-.26.18-.41l.84.24c-.07.24-.18.46-.32.65-.14.19-.31.35-.5.49-.2.13-.41.24-.65.31-.24.07-.49.11-.76.11Z" style="fill: #333;"/>
                  <path d="M160,184.9c-.5,0-.93-.12-1.3-.35-.37-.23-.66-.56-.87-.99-.21-.42-.31-.92-.31-1.47s.1-1.07.31-1.49c.21-.42.5-.75.87-.99.37-.23.81-.35,1.3-.35s.93.12,1.31.35c.37.23.67.56.87.99.21.43.31.92.31,1.49s-.1,1.05-.31,1.47c-.21.42-.5.75-.87.99-.38.23-.81.35-1.31.35ZM160,184.11c.37,0,.67-.09.91-.28.24-.19.41-.44.53-.75.11-.31.17-.64.17-1s-.06-.7-.17-1.01c-.11-.31-.29-.56-.53-.75-.24-.19-.54-.29-.91-.29s-.66.09-.9.29c-.23.19-.41.44-.52.75-.11.31-.17.65-.17,1.01s.06.69.17,1c.11.31.29.56.52.75s.53.28.9.28Z" style="fill: #333;"/>
                  <path d="M166.07,184.9c-.45,0-.85-.12-1.2-.35-.35-.23-.62-.56-.82-.98s-.29-.92-.29-1.5.1-1.08.29-1.5c.2-.42.47-.75.82-.97.35-.23.75-.34,1.2-.34.35,0,.64.06.84.18.21.12.37.25.48.4.11.15.2.27.26.37h.07v-2.69h.88v7.28h-.85v-.84h-.1c-.06.1-.15.23-.26.38-.12.15-.28.29-.49.41-.21.12-.49.18-.84.18ZM166.2,184.11c.33,0,.61-.09.84-.26.23-.17.4-.42.52-.73s.18-.67.18-1.07-.06-.76-.17-1.06c-.12-.3-.29-.54-.51-.71-.23-.17-.51-.25-.84-.25s-.63.09-.86.27-.4.42-.51.72c-.11.3-.17.65-.17,1.02s.06.73.17,1.04c.12.31.29.56.52.74.23.18.52.28.85.28Z" style="fill: #333;"/>
                  <path d="M172.7,184.9c-.53,0-.98-.12-1.37-.35-.38-.23-.68-.56-.88-.98-.21-.42-.31-.91-.31-1.47s.1-1.05.3-1.48c.2-.43.49-.76.86-1,.37-.24.8-.36,1.3-.36.29,0,.58.05.86.14.28.1.54.25.77.46.23.21.41.49.55.84s.21.77.21,1.28v.37h-4.24v-.74h3.76l-.41.27c0-.36-.06-.68-.17-.96-.11-.28-.28-.5-.5-.65-.22-.16-.5-.24-.83-.24s-.61.08-.84.24c-.23.16-.41.37-.54.63-.12.26-.19.54-.19.83v.49c0,.4.07.75.21,1.03.14.28.34.5.59.64.25.14.54.22.88.22.21,0,.41-.03.59-.09s.33-.16.45-.28c.13-.13.22-.28.29-.47l.85.23c-.08.27-.23.51-.43.72-.2.21-.45.37-.75.49s-.63.18-1.01.18Z" style="fill: #333;"/>
                  <path d="M74.7,196.78l-1.66-5.46h.93l.66,2.38c.09.33.19.69.29,1.11.1.41.21.88.31,1.4h-.15c.1-.5.2-.95.3-1.37.1-.41.2-.79.29-1.14l.65-2.38h.94l.64,2.38c.09.33.19.71.29,1.12.1.41.2.87.3,1.38h-.16c.1-.5.21-.96.31-1.37.1-.41.2-.79.3-1.13l.66-2.38h.93l-1.66,5.46h-.87l-.71-2.47c-.07-.25-.14-.51-.21-.77s-.14-.53-.2-.8c-.07-.27-.13-.55-.2-.83h.2c-.07.28-.13.56-.2.83-.07.28-.13.54-.2.81s-.14.52-.21.76l-.71,2.47h-.87Z" style="fill: #333;"/>
                  <path d="M82.36,190.43c-.17,0-.31-.06-.43-.17-.12-.11-.18-.25-.18-.41s.06-.3.18-.41c.12-.11.26-.17.43-.17s.31.06.43.17c.12.11.18.25.18.41s-.06.3-.18.41c-.12.11-.27.17-.43.17ZM81.91,196.78v-5.46h.88v5.46h-.88Z" style="fill: #333;"/>
                  <path d="M86.73,191.32v.75h-2.82v-.75h2.82ZM84.73,190.02h.88v5.34c0,.24.05.42.15.54.1.11.26.17.5.17.05,0,.13,0,.21-.02.09-.01.17-.03.24-.04l.18.74c-.09.03-.19.06-.31.07-.12.02-.23.02-.34.02-.47,0-.84-.12-1.1-.37-.26-.25-.4-.6-.4-1.04v-5.41Z" style="fill: #333;"/>
                  <path d="M88.98,193.51v3.27h-.88v-7.28h.88v3.14h-.15c.17-.5.4-.86.71-1.07s.67-.32,1.08-.32c.37,0,.69.08.97.23.28.15.5.38.65.68.16.3.23.69.23,1.15v3.47h-.88v-3.39c0-.42-.11-.75-.33-.99s-.52-.36-.9-.36c-.26,0-.5.06-.7.17-.21.11-.37.28-.49.5-.12.22-.18.48-.18.8Z" style="fill: #333;"/>
                  <path d="M94.71,190.43c-.17,0-.31-.06-.43-.17-.12-.11-.18-.25-.18-.41s.06-.3.18-.41c.12-.11.26-.17.43-.17s.31.06.43.17c.12.11.18.25.18.41s-.06.3-.18.41c-.12.11-.27.17-.43.17ZM94.27,196.78v-5.46h.88v5.46h-.88Z" style="fill: #333;"/>
                  <path d="M97.82,193.51v3.27h-.88v-5.46h.84v1.32s-.12,0-.12,0c.17-.5.4-.86.71-1.07s.67-.32,1.08-.32c.37,0,.69.08.97.23.28.15.49.38.65.68.16.3.23.69.23,1.15v3.47h-.88v-3.39c0-.42-.11-.75-.33-.99s-.52-.36-.9-.36c-.26,0-.5.06-.7.17-.21.11-.37.28-.49.5-.12.22-.18.48-.18.8Z" style="fill: #333;"/>
                  <path d="M108.31,191.32v.75h-2.82v-.75h2.82ZM106.31,190.02h.88v5.34c0,.24.05.42.15.54.1.11.26.17.5.17.05,0,.13,0,.21-.02.09-.01.17-.03.24-.04l.18.74c-.09.03-.19.06-.31.07-.12.02-.23.02-.34.02-.47,0-.84-.12-1.1-.37-.26-.25-.4-.6-.4-1.04v-5.41Z" style="fill: #333;"/>
                  <path d="M110.56,193.51v3.27h-.88v-7.28h.88v3.14h-.15c.17-.5.4-.86.71-1.07s.67-.32,1.08-.32c.37,0,.69.08.97.23.28.15.5.38.65.68.16.3.23.69.23,1.15v3.47h-.88v-3.39c0-.42-.11-.75-.33-.99s-.52-.36-.9-.36c-.26,0-.5.06-.7.17-.21.11-.37.28-.49.5-.12.22-.18.48-.18.8Z" style="fill: #333;"/>
                  <path d="M118.14,196.9c-.53,0-.98-.12-1.37-.35-.38-.23-.68-.56-.88-.98-.21-.42-.31-.91-.31-1.47s.1-1.05.3-1.48c.2-.43.49-.76.86-1,.37-.24.8-.36,1.3-.36.29,0,.58.05.86.14.28.1.54.25.77.46.23.21.41.49.55.84s.21.77.21,1.28v.37h-4.24v-.74h3.76l-.41.27c0-.36-.06-.68-.17-.96-.11-.28-.28-.5-.5-.65-.22-.16-.5-.24-.83-.24s-.61.08-.84.24c-.23.16-.41.37-.54.63-.12.26-.19.54-.19.83v.49c0,.4.07.75.21,1.03.14.28.34.5.59.64.25.14.54.22.88.22.21,0,.41-.03.59-.09s.33-.16.45-.28c.13-.13.22-.28.29-.47l.85.23c-.08.27-.23.51-.43.72-.2.21-.45.37-.75.49s-.63.18-1.01.18Z" style="fill: #333;"/>
                  <path d="M127.53,191.32v.75h-3.21v-.75h3.21ZM125.39,196.78v-6.19c0-.32.07-.58.22-.79.15-.21.34-.37.58-.48.24-.11.49-.16.75-.16.21,0,.38.02.52.05.14.04.24.07.3.1l-.24.75s-.11-.03-.18-.05-.17-.03-.29-.03c-.27,0-.47.07-.59.21-.12.14-.19.34-.19.6v5.99h-.88Z" style="fill: #333;"/>
                  <path d="M128.94,196.78v-5.46h.85v.84h.06c.1-.28.28-.5.54-.67.26-.17.55-.25.88-.25.06,0,.14,0,.23,0,.09,0,.16,0,.21,0v.88s-.09-.02-.2-.03c-.1-.01-.21-.02-.33-.02-.26,0-.49.05-.7.16-.21.11-.37.26-.49.45-.12.19-.18.41-.18.66v3.42h-.88Z" style="fill: #333;"/>
                  <path d="M134.48,196.91c-.35,0-.66-.07-.94-.2-.28-.13-.5-.32-.67-.57s-.25-.55-.25-.91c0-.31.06-.57.19-.76.12-.2.29-.35.5-.46.21-.11.44-.2.69-.25.25-.06.5-.1.76-.13.33-.04.59-.08.8-.1s.36-.06.46-.12c.1-.06.15-.15.15-.28v-.03c0-.23-.04-.42-.13-.58-.08-.16-.21-.28-.38-.36-.17-.08-.38-.13-.63-.13s-.48.04-.67.12-.34.18-.45.31c-.12.12-.2.25-.26.37l-.84-.28c.14-.33.33-.59.57-.78.24-.19.5-.32.79-.4.29-.08.57-.12.85-.12.18,0,.39.02.62.07.23.04.46.13.67.26.22.13.4.32.54.58.14.25.21.6.21,1.02v3.6h-.86v-.74h-.06c-.06.13-.16.26-.3.39-.14.14-.31.25-.53.34-.22.09-.48.14-.79.14ZM134.63,196.13c.33,0,.6-.06.83-.19s.4-.29.51-.5c.12-.2.18-.42.18-.64v-.76s-.11.08-.23.11c-.12.04-.26.06-.41.09-.15.03-.3.05-.45.07-.14.02-.26.03-.34.04-.21.03-.41.07-.59.13-.18.06-.33.16-.44.28-.11.12-.17.29-.17.5,0,.19.05.35.15.47s.23.22.4.29c.17.07.36.1.58.1Z" style="fill: #333;"/>
                  <path d="M138.82,196.78v-5.46h.85v1.22s-.06,0-.06,0c.07-.3.19-.54.35-.73.16-.19.35-.34.57-.44.22-.1.44-.15.68-.15.4,0,.72.12.96.37.25.24.4.56.48.96h-.12c.06-.27.18-.51.36-.71.17-.2.38-.35.63-.46.25-.11.51-.16.8-.16.32,0,.6.07.86.21.26.14.47.34.62.62.16.28.23.63.23,1.05v3.68h-.88v-3.66c0-.39-.11-.68-.33-.84-.22-.17-.48-.25-.77-.25-.24,0-.46.05-.63.15-.18.1-.31.24-.41.42-.1.18-.14.38-.14.62v3.56h-.88v-3.75c0-.3-.1-.55-.3-.73-.2-.19-.46-.28-.77-.28-.21,0-.41.05-.6.15-.19.1-.34.25-.45.44-.11.2-.17.44-.17.73v3.44h-.88Z" style="fill: #333;"/>
                  <path d="M150.12,196.9c-.53,0-.98-.12-1.37-.35-.38-.23-.68-.56-.88-.98-.21-.42-.31-.91-.31-1.47s.1-1.05.3-1.48c.2-.43.49-.76.86-1,.37-.24.8-.36,1.3-.36.29,0,.58.05.86.14.28.1.54.25.77.46.23.21.41.49.55.84s.21.77.21,1.28v.37h-4.24v-.74h3.76l-.41.27c0-.36-.06-.68-.17-.96-.11-.28-.28-.5-.5-.65-.22-.16-.5-.24-.83-.24s-.61.08-.84.24c-.23.16-.41.37-.54.63-.12.26-.19.54-.19.83v.49c0,.4.07.75.21,1.03.14.28.34.5.59.64.25.14.54.22.88.22.21,0,.41-.03.59-.09s.33-.16.45-.28c.13-.13.22-.28.29-.47l.85.23c-.08.27-.23.51-.43.72-.2.21-.45.37-.75.49s-.63.18-1.01.18Z" style="fill: #333;"/>
                  <path d="M159.12,191.32v.75h-2.82v-.75h2.82ZM157.12,190.02h.88v5.34c0,.24.05.42.15.54.1.11.26.17.5.17.05,0,.13,0,.21-.02.09-.01.17-.03.24-.04l.18.74c-.09.03-.19.06-.31.07-.12.02-.23.02-.34.02-.47,0-.84-.12-1.1-.37-.26-.25-.4-.6-.4-1.04v-5.41Z" style="fill: #333;"/>
                  <path d="M162.62,196.9c-.5,0-.93-.12-1.3-.35-.37-.23-.66-.56-.87-.99-.21-.42-.31-.92-.31-1.47s.1-1.07.31-1.49c.21-.42.5-.75.87-.99.37-.23.81-.35,1.3-.35s.93.12,1.31.35c.37.23.67.56.87.99.21.43.31.92.31,1.49s-.1,1.05-.31,1.47c-.21.42-.5.75-.87.99-.38.23-.81.35-1.31.35ZM162.62,196.11c.37,0,.67-.09.91-.28.24-.19.41-.44.53-.75.11-.31.17-.64.17-1s-.06-.7-.17-1.01c-.11-.31-.29-.56-.53-.75-.24-.19-.54-.29-.91-.29s-.66.09-.9.29c-.23.19-.41.44-.52.75-.11.31-.17.65-.17,1.01s.06.69.17,1c.11.31.29.56.52.75s.53.28.9.28Z" style="fill: #333;"/>
                  <path d="M171.56,196.9c-.38,0-.71-.05-1-.16-.29-.11-.53-.27-.72-.49-.19-.21-.32-.48-.38-.79l.83-.2c.08.3.23.52.44.66.22.14.49.21.81.21.38,0,.68-.08.91-.24.23-.16.34-.36.34-.58,0-.19-.07-.35-.2-.47-.13-.12-.33-.22-.6-.28l-.91-.21c-.5-.12-.86-.3-1.1-.54-.24-.25-.36-.56-.36-.95,0-.31.09-.59.26-.83.18-.24.42-.43.72-.56.3-.14.65-.2,1.04-.2s.69.06.95.17c.26.11.48.27.64.46.17.2.29.42.37.68l-.8.21c-.08-.2-.2-.37-.37-.53-.17-.16-.44-.24-.79-.24-.33,0-.6.08-.81.22-.22.15-.32.34-.32.57,0,.2.07.36.22.49.15.12.38.22.7.3l.83.2c.49.12.86.3,1.1.54.24.25.36.56.36.93,0,.32-.09.6-.27.85-.18.25-.43.44-.76.59-.32.14-.7.21-1.12.21Z" style="fill: #333;"/>
                  <path d="M177.45,196.9c-.5,0-.93-.12-1.3-.35-.37-.23-.66-.56-.87-.99-.21-.42-.31-.92-.31-1.47s.1-1.07.31-1.49c.21-.42.5-.75.87-.99.37-.23.81-.35,1.3-.35.26,0,.51.03.75.1s.45.17.64.3c.19.13.36.29.5.47.14.19.25.4.32.64l-.84.24c-.04-.14-.1-.27-.18-.39-.08-.12-.18-.22-.3-.31-.12-.09-.25-.15-.4-.2-.15-.05-.31-.07-.49-.07-.37,0-.66.09-.9.29-.23.19-.41.44-.52.75-.11.31-.17.65-.17,1.01s.06.69.17,1c.11.31.29.56.52.75s.53.28.9.28c.18,0,.35-.02.5-.07.15-.05.29-.12.41-.21.12-.09.22-.2.3-.32.08-.12.14-.26.18-.41l.84.24c-.07.24-.18.46-.32.65-.14.19-.31.35-.5.49-.2.13-.41.24-.65.31-.24.07-.49.11-.76.11Z" style="fill: #333;"/>
                  <path d="M182.82,196.91c-.35,0-.66-.07-.94-.2-.28-.13-.5-.32-.67-.57s-.25-.55-.25-.91c0-.31.06-.57.19-.76.12-.2.29-.35.5-.46.21-.11.44-.2.69-.25.25-.06.5-.1.76-.13.33-.04.59-.08.8-.1s.36-.06.46-.12c.1-.06.15-.15.15-.28v-.03c0-.23-.04-.42-.13-.58-.08-.16-.21-.28-.38-.36-.17-.08-.38-.13-.63-.13s-.48.04-.67.12-.34.18-.45.31c-.12.12-.2.25-.26.37l-.84-.28c.14-.33.33-.59.57-.78.24-.19.5-.32.79-.4.29-.08.57-.12.85-.12.18,0,.39.02.62.07.23.04.46.13.67.26.22.13.4.32.54.58.14.25.21.6.21,1.02v3.6h-.86v-.74h-.06c-.06.13-.16.26-.3.39-.14.14-.31.25-.53.34-.22.09-.48.14-.79.14ZM182.97,196.13c.33,0,.6-.06.83-.19s.4-.29.51-.5c.12-.2.18-.42.18-.64v-.76s-.11.08-.23.11c-.12.04-.26.06-.41.09-.15.03-.3.05-.45.07-.14.02-.26.03-.34.04-.21.03-.41.07-.59.13-.18.06-.33.16-.44.28-.11.12-.17.29-.17.5,0,.19.05.35.15.47s.23.22.4.29c.17.07.36.1.58.1Z" style="fill: #333;"/>
                  <path d="M188.04,193.51v3.27h-.88v-5.46h.84v1.32s-.12,0-.12,0c.17-.5.4-.86.71-1.07s.67-.32,1.08-.32c.37,0,.69.08.97.23.28.15.49.38.65.68.16.3.23.69.23,1.15v3.47h-.88v-3.39c0-.42-.11-.75-.33-.99s-.52-.36-.9-.36c-.26,0-.5.06-.7.17-.21.11-.37.28-.49.5-.12.22-.18.48-.18.8Z" style="fill: #333;"/>
                </g>
              </g>
              <path d="M108.31,271.15h-30.81v30.81h30.81v-30.81h0ZM125.89,279.86h4.5v-8.72h-17.58v8.72h4.36v4.36h4.36v-4.36h-4.36v-4.36h8.72v4.36h0ZM99.59,310.67h-4.36v4.36h8.72v4.36h-4.36v4.5h-4.36v-4.5h-4.5v-13.08h-13.22v4.36h8.86v13.22h-4.36v-4.36h-4.36v4.36h4.36v8.72h-4.36v4.36h8.72v4.5h-8.72v4.36h8.72v-4.36h4.36v4.36h4.36v-4.36h-4.36v-4.5h4.36v-4.36h-8.72v-4.36h13.22v13.22h4.36v4.36h4.36v-4.36h-4.36v-4.5h8.86v13.22h4.36v4.5h-4.36v4.36h4.36v4.36h4.36v4.36h-8.72v13.22h8.72v-8.86h8.72v-4.36h-4.21v-8.72h8.72v8.72h8.72v-4.36h8.86v4.36h-4.5v4.5h-4.36v4.36h4.5v4.36h4.36v-4.36h4.36v4.36h4.36v-4.36h8.86v4.36h4.36v-4.36h-4.36v-8.72h8.86v4.36h8.72v-4.5h-4.36v-4.36h4.36v-17.58h-4.36v-4.36h-4.5v4.36h-4.36v4.36h-4.36v-8.72h-8.86v-4.36h-4.36v4.36h-4.36v-4.36h-4.36v-4.5h4.36v-8.72h-4.5v4.36h-4.36v-8.86h4.36v-4.36h4.5v-4.36h4.36v4.36h4.36v4.36h-4.36v13.22h8.72v4.36h13.22v-4.36h4.36v4.5h4.5v-13.22h-4.5v4.36h-4.36v4.36h-13.22v-4.36h-4.36v-8.86h4.36v-4.36h-4.21v-4.36h8.72v13.22h4.36v-4.5h4.36v-4.36h4.36v4.5h4.5v-13.22h-8.86v8.72h-4.36v-4.36h-4.36v-4.36h-17.58v-26.3h-4.5v26.3h-4.36v8.72h-8.72v-4.36h4.36v-8.72h4.36v-13.22h-4.36v4.36h-4.36v-8.86h4.36v-4.36h4.36v-8.72h-8.72v13.22h-8.86v8.72h-8.72v-4.36h-4.36v26.3h4.36v4.36h-8.72v-4.36h-4.5v-4.36h4.36v-4.36h-8.72v4.36h0ZM187.5,271.15h-30.81v30.81h30.81v-30.81h0ZM103.95,275.5h-21.94v21.94h21.94v-21.94h0ZM183,275.5h-21.94v21.94h21.94v-21.94h0ZM99.59,279.86h-13.22v13.22h13.22v-13.22h0ZM178.64,279.86h-13.22v13.22h13.22v-13.22h0ZM125.89,293.09h4.36v8.72h4.5v4.5h-8.72v4.36h4.36v8.72h-4.5v-4.36h-8.72v-4.36h4.36v-8.86h4.36v-8.72h0ZM117.17,297.45h4.36v4.36h-4.36v-4.36h0ZM134.75,301.81v-4.36h4.36v4.36h-4.36ZM147.98,310.67v-4.36h4.36v4.36h-4.36ZM103.95,323.89v-4.36h4.36v4.36h-4.36ZM117.17,319.53h4.36v4.36h-4.36v-4.36h0ZM134.75,323.89v-4.36h4.36v4.36h-4.36ZM134.75,345.83h4.36v-8.72h-4.36v4.36h-8.86v-4.36h4.36v-4.5h-4.36v-8.72h8.86v8.72h8.72v8.86h4.36v17.58h-4.36v-8.86h-8.72v-4.36h0ZM108.31,328.25h-4.36v4.36h4.36v-4.36h0ZM121.53,332.61v4.36h-8.72v-8.72h4.36v4.36h4.36ZM130.25,345.83h-4.36v8.72h4.36v-8.72h0ZM165.56,345.83h-13.22v13.22h13.22v-13.22h0ZM178.64,345.83h4.5v13.22h-4.5v4.36h-4.36v-4.36h-4.36v-4.36h4.36v-4.5h4.36v-4.36h0ZM108.31,381v-30.81h-30.81v30.81h30.81ZM161.05,350.19h-4.36v4.36h4.36v-4.36h0ZM103.95,354.7h-21.94v21.94h21.94v-21.94h0ZM134.75,359.06v-4.36h4.36v4.36h-4.36ZM99.59,359.06h-13.22v13.22h13.22v-13.22h0ZM161.05,376.64h-4.36v-13.22h4.36v4.36h4.36v4.36h-4.36v4.5h0ZM134.75,376.64h-8.86v4.36h13.22v-8.72h-4.36v4.36h0ZM187.5,376.64h-4.36v4.36h4.36v-4.36h0Z" style="fill: #1a1a1a; fill-rule: evenodd;"/>
            </g>
            <g>
              <path d="M51.48,251.2h1.5v12.5c0,.28-.22.5-.5.5h-.5c-.28,0-.5-.22-.5-.5v-12.5h0Z" style="fill: #fea639;"/>
              <path d="M57.35,245.43h1.5v12.5c0,.28-.22.5-.5.5h-.5c-.28,0-.5-.22-.5-.5v-12.5h0Z" transform="translate(-193.84 310.03) rotate(-90)" style="fill: #fea639;"/>
            </g>
            <g>
              <path d="M59.3,394h1.5v12.5c0,.28-.22.5-.5.5h-.5c-.28,0-.5-.22-.5-.5v-12.5h0Z" transform="translate(-340.45 460.55) rotate(-90)" style="fill: #fea639;"/>
              <path d="M53.53,388.13h1.5v12.5c0,.28-.22.5-.5.5h-.5c-.28,0-.5-.22-.5-.5v-12.5h0Z" transform="translate(108.56 789.27) rotate(180)" style="fill: #fea639;"/>
            </g>
            <g>
              <path d="M210.04,388.22h1.49v12.44c0,.28-.22.5-.5.5h-.49c-.28,0-.5-.22-.5-.5v-12.44h0Z" transform="translate(421.57 789.37) rotate(180)" style="fill: #fea639;"/>
              <path d="M204.2,393.95h1.49v12.44c0,.28-.22.5-.5.5h-.49c-.28,0-.5-.22-.5-.5v-12.44h0Z" transform="translate(605.37 195.47) rotate(90)" style="fill: #fea639;"/>
            </g>
            <g>
              <path d="M204.28,245.38h1.5v12.5c0,.28-.22.5-.5.5h-.5c-.28,0-.5-.22-.5-.5v-12.5h0Z" transform="translate(456.92 46.85) rotate(90)" style="fill: #fea639;"/>
              <path d="M210.05,251.25h1.5v12.5c0,.28-.22.5-.5.5h-.5c-.28,0-.5-.22-.5-.5v-12.5h0Z" style="fill: #fea639;"/>
            </g>
          </g>
        </g>
        <rect x="99" y="13" width="67" height="16" rx="8" ry="8" style="fill: #1a1a1a;"/>
      </g>
      <g>
        <g>
          <path d="M84.93,64.21c-.76,0-1.42-.12-1.98-.36s-1-.59-1.32-1.04c-.32-.45-.49-.98-.52-1.6h1.57c.03.37.15.67.36.92.21.24.48.42.81.54.33.12.69.18,1.08.18.43,0,.82-.07,1.15-.2s.6-.33.8-.57c.2-.25.29-.54.29-.86,0-.3-.08-.54-.26-.73s-.4-.35-.69-.47c-.29-.13-.62-.24-.99-.33l-1.19-.33c-.83-.22-1.48-.55-1.95-.99-.47-.44-.7-1-.7-1.7,0-.59.16-1.1.48-1.54.32-.44.75-.78,1.29-1.03.54-.24,1.16-.37,1.84-.37s1.31.12,1.84.37c.53.24.95.58,1.25,1,.3.42.46.91.47,1.45h-1.52c-.05-.46-.27-.82-.65-1.08-.38-.26-.86-.38-1.44-.38-.41,0-.77.06-1.07.19-.3.13-.54.3-.7.53-.17.23-.25.48-.25.77,0,.32.1.58.3.78s.44.36.72.47c.28.12.56.21.82.28l.99.26c.32.08.66.19,1,.33.34.14.66.32.95.54.29.22.53.49.71.82.18.33.27.72.27,1.18,0,.57-.15,1.09-.44,1.54-.3.45-.73.81-1.29,1.06-.56.26-1.24.39-2.04.39Z" style="fill: #fff;"/>
          <path d="M94.35,64.2c-.72,0-1.35-.16-1.88-.49s-.95-.79-1.24-1.38c-.3-.59-.44-1.28-.44-2.06s.15-1.49.44-2.08c.3-.59.71-1.06,1.24-1.38s1.16-.49,1.88-.49c.4,0,.77.05,1.11.15.35.1.66.25.94.44s.52.43.71.71c.19.28.34.6.43.95l-1.43.34c-.05-.2-.13-.38-.23-.54-.1-.16-.23-.3-.38-.42-.15-.12-.32-.21-.51-.27-.19-.06-.41-.1-.64-.1-.46,0-.84.12-1.14.37-.3.24-.53.57-.68.97-.15.41-.22.85-.22,1.35s.07.93.22,1.34c.15.4.37.73.68.97.3.24.68.36,1.14.36.24,0,.45-.03.65-.1.2-.07.37-.16.53-.28.16-.12.29-.27.39-.44.11-.17.18-.36.23-.56l1.42.34c-.09.36-.23.68-.43.97-.2.28-.43.53-.71.73s-.6.35-.95.46c-.35.1-.73.16-1.13.16Z" style="fill: #fff;"/>
          <path d="M102.2,64.21c-.48,0-.92-.09-1.31-.27-.39-.18-.7-.44-.93-.79-.23-.35-.34-.77-.34-1.27,0-.43.08-.79.25-1.07.17-.28.39-.5.68-.66.29-.16.6-.29.95-.37s.7-.14,1.06-.18c.45-.05.82-.1,1.1-.13.28-.03.49-.09.62-.17.13-.08.2-.21.2-.39v-.04c0-.29-.05-.53-.16-.72s-.27-.35-.49-.45c-.22-.11-.49-.16-.81-.16s-.62.05-.86.15-.43.23-.58.39c-.15.16-.26.33-.33.5l-1.42-.37c.17-.46.42-.82.75-1.1.32-.28.69-.48,1.11-.61.42-.13.85-.19,1.3-.19.31,0,.64.04.98.11.35.07.67.21.98.4.3.19.55.46.75.81s.29.8.29,1.35v5.07h-1.46v-1.05h-.08c-.1.2-.25.39-.44.57-.2.19-.44.34-.74.46-.3.12-.66.18-1.07.18ZM102.53,63c.41,0,.76-.08,1.05-.24.29-.16.51-.37.67-.64.15-.26.23-.54.23-.84v-.98c-.05.05-.16.1-.31.15-.15.04-.33.08-.52.12-.2.03-.39.06-.57.09-.18.02-.33.04-.45.05-.28.04-.54.1-.78.18-.23.09-.42.21-.56.37-.14.16-.21.37-.21.64,0,.24.06.44.19.61.13.16.29.29.51.37.21.08.46.12.75.12Z" style="fill: #fff;"/>
          <path d="M110.21,59.52v4.53h-1.5v-7.64h1.44v1.87s-.14,0-.14,0c.22-.68.55-1.18.97-1.5s.94-.47,1.54-.47c.52,0,.97.11,1.36.33.39.22.69.54.91.97s.33.96.33,1.59v4.85h-1.5v-4.67c0-.55-.14-.98-.43-1.29s-.68-.46-1.18-.46c-.34,0-.64.07-.91.22-.27.15-.48.36-.64.65-.16.28-.23.63-.23,1.03Z" style="fill: #fff;"/>
          <path d="M126.62,64.18c-.88,0-1.67-.21-2.36-.63-.7-.42-1.24-1.02-1.64-1.8-.4-.78-.6-1.71-.6-2.8s.2-2.02.6-2.81c.4-.78.95-1.38,1.64-1.8.69-.42,1.48-.63,2.36-.63s1.67.21,2.36.63,1.23,1.02,1.63,1.8c.4.78.6,1.72.6,2.81s-.2,2.02-.6,2.8c-.4.78-.94,1.38-1.63,1.8s-1.48.63-2.36.63ZM126.62,62.76c.58,0,1.1-.14,1.56-.43s.82-.72,1.09-1.29.4-1.26.4-2.08-.13-1.53-.4-2.1-.63-1-1.09-1.29-.98-.43-1.56-.43-1.1.15-1.57.44c-.46.29-.82.72-1.09,1.29s-.4,1.26-.4,2.09.13,1.51.4,2.08.63.99,1.09,1.29c.46.29.98.44,1.57.44ZM126.12,60.76h1.5l1.07,1.39.47.59,1.7,2.22h-1.55l-1.13-1.48-.38-.53-1.68-2.21Z" style="fill: #fff;"/>
          <path d="M133.84,64.04v-10.19h3.65c.78,0,1.44.14,1.96.41.52.27.92.65,1.18,1.13s.39,1.04.39,1.66-.13,1.18-.39,1.65c-.26.47-.66.84-1.18,1.1-.52.26-1.18.39-1.97.39h-2.74v-1.33h2.59c.5,0,.91-.07,1.21-.22s.53-.35.68-.62c.15-.27.22-.59.22-.97s-.07-.71-.22-.99c-.15-.28-.37-.49-.68-.65-.31-.15-.72-.23-1.22-.23h-1.91v8.85h-1.56ZM139.63,64.04l-2.47-4.6h1.73l2.51,4.6h-1.77Z" style="fill: #fff;"/>
          <path d="M152.27,64.18c-.88,0-1.67-.21-2.36-.63-.69-.42-1.24-1.02-1.63-1.8s-.59-1.71-.59-2.8.2-2.02.59-2.81.94-1.38,1.63-1.8c.69-.42,1.48-.63,2.36-.63.54,0,1.04.08,1.51.23s.89.38,1.26.68c.37.3.68.66.92,1.08.24.42.41.9.5,1.44h-1.57c-.06-.32-.18-.61-.34-.86-.16-.25-.36-.46-.59-.63s-.49-.3-.78-.39-.59-.13-.91-.13c-.58,0-1.11.15-1.57.44-.46.29-.83.72-1.09,1.29-.26.57-.4,1.26-.4,2.08s.13,1.51.4,2.08c.27.57.63,1,1.09,1.29.46.29.98.43,1.56.43.32,0,.62-.04.91-.13.29-.09.54-.22.78-.39.24-.17.43-.38.59-.63.16-.25.27-.54.34-.85h1.57c-.08.5-.24.96-.47,1.38-.24.42-.54.78-.91,1.09s-.79.55-1.27.71c-.48.17-.99.25-1.55.25Z" style="fill: #fff;"/>
          <path d="M162.11,64.2c-.71,0-1.34-.16-1.88-.49-.54-.33-.95-.79-1.25-1.38-.3-.59-.44-1.28-.44-2.06s.15-1.49.44-2.08c.3-.59.71-1.06,1.25-1.38.54-.33,1.16-.49,1.88-.49s1.35.16,1.88.49c.54.33.95.79,1.25,1.38.3.59.44,1.29.44,2.08s-.15,1.47-.44,2.06c-.3.59-.71,1.05-1.25,1.38-.54.33-1.16.49-1.88.49ZM162.11,62.93c.46,0,.85-.12,1.15-.37.3-.24.53-.57.68-.97.15-.4.22-.85.22-1.33s-.07-.94-.22-1.34c-.15-.41-.37-.73-.68-.98-.3-.24-.69-.37-1.15-.37s-.84.12-1.14.37-.53.57-.67.97c-.15.41-.22.85-.22,1.35s.07.93.22,1.33c.15.4.37.73.67.97s.68.37,1.14.37Z" style="fill: #fff;"/>
          <path d="M170.89,64.19c-.62,0-1.17-.16-1.65-.48-.48-.32-.86-.77-1.13-1.36s-.41-1.3-.41-2.12.14-1.54.42-2.13c.28-.59.66-1.04,1.14-1.35.48-.31,1.03-.46,1.64-.46.47,0,.86.08,1.15.24.29.16.52.34.68.55s.29.39.38.55h.08v-3.79h1.5v10.19h-1.46v-1.2h-.12c-.09.16-.21.35-.38.56-.17.21-.4.39-.69.55-.29.16-.67.24-1.13.24ZM171.22,62.92c.43,0,.79-.11,1.08-.34s.52-.54.67-.95c.15-.4.23-.87.23-1.4s-.08-1-.23-1.39-.37-.7-.67-.92-.66-.33-1.09-.33-.81.12-1.1.35-.52.55-.66.95c-.15.4-.22.85-.22,1.35s.08.96.23,1.37.37.73.67.96c.3.24.66.36,1.09.36Z" style="fill: #fff;"/>
          <path d="M180.7,64.2c-.75,0-1.4-.16-1.95-.49s-.97-.78-1.26-1.37-.44-1.28-.44-2.07.14-1.47.43-2.07c.29-.6.7-1.06,1.23-1.4.53-.33,1.15-.5,1.86-.5.44,0,.86.07,1.26.22.41.14.77.37,1.09.67.32.31.58.7.77,1.19.19.49.28,1.07.28,1.77v.53h-6.09v-1.12h5.32l-.7.37c0-.47-.07-.88-.22-1.24-.15-.36-.36-.64-.65-.84-.29-.2-.64-.3-1.07-.3s-.79.1-1.09.31-.53.48-.69.81-.24.7-.24,1.1v.77c0,.52.09.97.27,1.33.18.36.43.64.75.82.32.18.7.28,1.13.28.28,0,.54-.04.77-.12.23-.08.42-.2.59-.36.17-.16.29-.36.38-.6l1.42.33c-.12.39-.33.74-.62,1.04-.29.3-.65.53-1.08.7s-.92.25-1.47.25Z" style="fill: #fff;"/>
        </g>
        <path d="M26.41,65.33l-5.5-5.5,5.5-5.5,1.28,1.28-3.3,3.3h13.02v1.83h-13.02l3.3,3.3-1.28,1.28Z" style="fill: #fff;"/>
        <path d="M222.17,53.71v-4.38h4.38v1.75h-2.62v2.62h-1.75ZM222.17,66.84v-4.38h1.75v2.62h2.62v1.75h-4.38ZM230.05,51.96v5.25h-5.25v-5.25h5.25ZM230.05,58.96v5.25h-5.25v-5.25h5.25ZM228.74,55.9v-2.62h-2.62v2.62h2.62ZM228.74,62.9v-2.62h-2.62v2.62h2.62ZM237.05,51.96v5.25h-5.25v-5.25h5.25ZM231.8,58.96h1.31v1.31h-1.31v-1.31ZM231.8,61.59h1.31v1.31h-1.31v-1.31ZM235.74,55.9v-2.62h-2.62v2.62h2.62ZM233.11,60.27h1.31v1.31h-1.31v-1.31ZM233.11,62.9h1.31v1.31h-1.31v-1.31ZM234.42,58.96h1.31v1.31h-1.31v-1.31ZM234.42,61.59h1.31v1.31h-1.31v-1.31ZM237.92,53.71v-2.62h-2.62v-1.75h4.38v4.38h-1.75ZM235.3,66.84v-1.75h2.62v-2.62h1.75v4.38h-4.38ZM235.74,60.27h1.31v1.31h-1.31v-1.31ZM235.74,62.9h1.31v1.31h-1.31v-1.31Z" style="fill: #fff;"/>
      </g>
    </g>
  </g>
</svg>