<svg id="_0476_qr_code" xmlns="http://www.w3.org/2000/svg" viewBox="0 0 500 500" data-imageid="qr-code-64" imageName="QR Code" class="illustrations_image" style="width: 188px;"><defs><style>.cls-1_qr-code-64,.cls-2_qr-code-64{fill:#fff;}.cls-3_qr-code-64{fill:#f4a28c;}.cls-4_qr-code-64{fill:#a5a5a5;}.cls-5_qr-code-64,.cls-6_qr-code-64{fill:#e6e6e6;}.cls-6_qr-code-64{opacity:.3;}.cls-2_qr-code-64{opacity:.46;}.cls-7_qr-code-64{opacity:.2;}.cls-7_qr-code-64,.cls-8_qr-code-64{fill:#000001;}.cls-9_qr-code-64{fill:#24285b;}.cls-8_qr-code-64{opacity:.1;}.cls-10_qr-code-64{fill:#ffd200;}.cls-11_qr-code-64{fill:#68e1fd;}</style></defs><path id="bg_qr-code-64" class="cls-6_qr-code-64" d="m386.34,68.03c50.47,21.55,90.09,80.67,101.02,154.04,9.21,61.83-4.09,137.51-86.24,171.56-83.86,34.75-319.29,48.72-364.2-51.97C-8,240.96-.21,112.69,89.12,68.46c62.62-31.01,198.65-42.52,297.22-.43Z"/><g id="qr_code_qr-code-64"><rect class="cls-5_qr-code-64" x="143.78" y="85.67" width="315.49" height="346.44"/><path class="cls-4_qr-code-64" d="m383.08,279.41v.02h.02l-.02-.02Z"/><path class="cls-4_qr-code-64" d="m315.91,221.83v.02h.02l-.02-.02Z"/><path class="cls-4_qr-code-64" d="m383.08,327.38v-9.56h-9.53v-19.24h9.53v-19.14h-9.6v-19.2h-9.53v-9.62h9.53v-9.62h-9.61v-9.58h-47.96v-9.56h-9.62v-19.17h-9.57v19.09h-9.59c0-.38,0-.7,0-1.02,0-9.23,0-18.46-.01-27.69h-9.61v76.79h-28.72v9.57h28.77v9.61h9.56c0,3.19.02,6.38.03,9.57h9.53v9.62h-9.53c0,6.39,0,12.78,0,19.17h19.22v-9.54h47.89v9.59h-19.1v9.58h9.57v9.57h19.22v9.57h9.58v-19.18h28.72v-9.58h-19.16Zm-38.34-86.3h9.49v9.49h-9.49v-9.49Zm-19.26,67.08h-9.49v-9.49h9.49v9.49Zm.05-38.33v19.12h-9.6v-9.5h-9.57v9.55c-6.46,0-12.84,0-19.21,0v-9.57h9.54v-9.58h-9.5v-19.2h19.1v-9.57h28.8v19.1h19.21v9.62c-9.19,0-18.38,0-27.57.01-.4,0-.8,0-1.19.01Zm19.17,28.77h-9.53v-9.53h9.53v9.53Zm19.14,9.55h-19.12v-9.53c6.35,0,12.7,0,19.12,0v9.53Zm0-28.79h-9.53c0-3.18,0-6.36,0-9.53h9.53v9.53Z"/><path class="cls-4_qr-code-64" d="m344.72,346.6v-.02h-.02l.02.02Z"/><path class="cls-4_qr-code-64" d="m325.51,269.83s.02,0,.02,0v-.02l-.02.02Z"/><path class="cls-4_qr-code-64" d="m287.12,193.04v.02h.02l-.02-.02Z"/><path class="cls-4_qr-code-64" d="m287.14,327.41v-.02h-.02l.02.02Z"/><path class="cls-4_qr-code-64" d="m383.08,317.79v.02h.02l-.02-.02Z"/><path class="cls-4_qr-code-64" d="m373.48,260.24h.02v-.02h-.02v.02Z"/><path class="cls-4_qr-code-64" d="m287.14,298.6h-.02v.02h.02s0-.01,0-.02Z"/><path class="cls-4_qr-code-64" d="m267.87,154.71h-67.07v67.07h67.07v-67.07Zm-9.57,57.47h-47.88v-47.88h47.88v47.88Z"/><path class="cls-4_qr-code-64" d="m402.23,154.73h-67.07v67.07h67.07v-67.07Zm-9.57,57.47h-47.88v-47.88h47.88v47.88Z"/><path class="cls-4_qr-code-64" d="m200.82,356.12h67.07v-67.07h-67.07v67.07Zm9.6-57.46h47.88v47.88h-47.88v-47.88Z"/><path class="cls-4_qr-code-64" d="m287.12,193.04s.02.02.02.02v-.02h-.02Z"/><path class="cls-4_qr-code-64" d="m296.77,183.5h9.58v9.57h9.58v9.52h9.55v-19.15h-9.49v-9.61h9.48v-19.11h-47.88v19.15h9.56v19.16c3.18,0,6.36,0,9.63,0v-9.54Zm0-19.2h9.49v9.5h-9.49v-9.5Z"/><path class="cls-4_qr-code-64" d="m229.57,241.05v28.71h-19.24v-9.48h-9.5v19.09h38.34v-19.18h28.73v-9.58h-19.16v-9.57c-6.39,0-12.78,0-19.16,0Z"/><path class="cls-4_qr-code-64" d="m229.54,241.05h.02v-.02l-.02.02Z"/><path class="cls-4_qr-code-64" d="m277.6,356.14h28.67v-9.59h-9.57v-9.58h-9.58v-9.57c-3.18,0-6.36,0-9.52,0v28.74Z"/><path class="cls-4_qr-code-64" d="m287.14,327.41s-.02-.02-.02-.02v.02h.02Z"/><path class="cls-4_qr-code-64" d="m229.54,241.05s.02-.02.02-.02h-.02v.02Z"/><path class="cls-4_qr-code-64" d="m200.83,231.49v19.09h9.55v-9.56h19.16c0-3.18,0-6.36,0-9.53h-28.71Z"/><path class="cls-4_qr-code-64" d="m402.23,260.19v-28.71h-19.08v9.59h9.57v19.12h9.52Z"/><path class="cls-4_qr-code-64" d="m248.76,241.02h-.02v.02h.02v-.02Z"/><path class="cls-4_qr-code-64" d="m267.88,231.49h-19.13v9.53c6.37,0,12.75,0,19.13,0v-9.53Z"/><path class="cls-4_qr-code-64" d="m383.08,279.41s.02.02.02.02v-.02h-.02Z"/><path class="cls-4_qr-code-64" d="m392.63,269.88h-9.53v9.53c3.18,0,6.35,0,9.53,0v-9.53Z"/><path class="cls-4_qr-code-64" d="m402.23,289.05h-9.49v9.51h9.49v-9.51Z"/><path class="cls-4_qr-code-64" d="m315.91,221.83s.02.02.02.02v-.02h-.02Z"/><path class="cls-4_qr-code-64" d="m325.46,212.3h-9.53v9.53c3.18,0,6.35,0,9.53,0v-9.53Z"/><path class="cls-4_qr-code-64" d="m277.59,298.62v9.57h9.53v-9.57h-9.53Z"/><path class="cls-4_qr-code-64" d="m287.12,308.19v.02h.02v-.02h-.02Z"/><path class="cls-4_qr-code-64" d="m383.08,317.79s.02.02.02.02v-.02h-.02Z"/><path class="cls-4_qr-code-64" d="m392.63,308.26h-9.53v9.53c3.18,0,6.35,0,9.53,0v-9.53Z"/><path class="cls-4_qr-code-64" d="m373.51,250.64v-.02h-.02v.02h.02Z"/><path class="cls-4_qr-code-64" d="m383.03,260.21v-9.57h-9.53v9.57h9.53Z"/><path class="cls-4_qr-code-64" d="m315.96,346.55h9.5v-9.5h-9.5v9.5Z"/><path class="cls-4_qr-code-64" d="m344.72,346.6s-.02-.02-.02-.02v.02h.02Z"/><path class="cls-4_qr-code-64" d="m335.16,356.13h9.53v-9.53c-3.18,0-6.35,0-9.53,0v9.53Z"/><path class="cls-4_qr-code-64" d="m392.73,356.15h9.49v-9.5h-9.49v9.5Z"/><path class="cls-4_qr-code-64" d="m325.51,269.83s.02-.02.02-.02h-.02v.02Z"/><path class="cls-4_qr-code-64" d="m315.98,260.28v9.53h9.53c0-3.18,0-6.35,0-9.53h-9.53Z"/><path class="cls-4_qr-code-64" d="m248.69,173.92h-28.69v28.69h28.69v-28.69Z"/><path class="cls-4_qr-code-64" d="m383.03,173.9h-28.69v28.69h28.69v-28.69Z"/><path class="cls-4_qr-code-64" d="m219.99,336.94h28.69v-28.69h-28.69v28.69Z"/><rect class="cls-7_qr-code-64" x="144.3" y="120.89" width="138.84" height="249.78"/><rect class="cls-9_qr-code-64" x="289.5" y="62.71" width="24.04" height="37.74"/><rect class="cls-2_qr-code-64" x="220.55" y="387.59" width="162.59" height="9.71"/></g><g id="phone_qr-code-64"><path class="cls-3_qr-code-64" d="m78.5,298.68s14.77-69.5,51.94-69.5,56.94,109.25-33.47,121.13l-18.46-51.63Z"/><path class="cls-8_qr-code-64" d="m78.5,298.68s14.77-69.5,51.94-69.5,56.94,109.25-33.47,121.13l-18.46-51.63Z"/><rect class="cls-11_qr-code-64 targetColor" x="111.02" y="102.78" width="142.25" height="252.8" style="fill: rgb(104, 225, 253);"/><rect class="cls-2_qr-code-64" x="111.02" y="102.78" width="142.25" height="252.8"/><rect class="cls-1_qr-code-64" x="122.58" y="123.33" width="119.12" height="189.12"/><rect class="cls-10_qr-code-64" x="134.81" y="257.33" width="92.56" height="28.6"/><path class="cls-8_qr-code-64" d="m154.01,250.32s15.82,9.5,9.75,23.59c-6.08,14.09-24.59,22.66-24.87,41.17-.28,18.51,0,40.51,0,40.51h-27.86v-43.14l42.98-62.13Z"/><path class="cls-3_qr-code-64" d="m107.62,272.87s28.69-29.34,41.08-26.73c10.22,2.15,10.23,22.5-12.04,39.44-9.14,6.95-14.9,17.37-15.67,28.83-.63,9.47-3.76,20.74-13.37,29.25-20.21,17.9-35.21,2.31-33.26-21.85,1.96-24.15,3.26-31.33,33.26-48.93Z"/><polygon class="cls-11_qr-code-64 targetColor" points="110.14 459.35 118.77 339.79 64.01 323.19 23.32 459.35 110.14 459.35" style="fill: rgb(104, 225, 253);"/><polygon class="cls-8_qr-code-64" points="110.14 459.35 118.77 339.79 92.63 331.87 76.39 459.35 110.14 459.35"/><circle class="cls-8_qr-code-64" cx="150.95" cy="112.74" r="4.33"/><rect class="cls-8_qr-code-64" x="163.75" y="111.24" width="45.79" height="3.94" rx="1.22" ry="1.22"/><circle class="cls-8_qr-code-64" cx="178.78" cy="333.1" r="13.84"/><polygon class="cls-9_qr-code-64" points="218.77 202.85 218.77 202.86 218.78 202.86 218.77 202.85"/><polygon class="cls-9_qr-code-64" points="188.6 177 188.6 177.01 188.61 177.01 188.6 177"/><path class="cls-9_qr-code-64" d="m218.77,224.39v-4.3h-4.28v-8.64h4.28v-8.6h-4.31v-8.62h-4.28v-4.32h4.28v-4.32h-4.32v-4.3h-21.54v-4.29h-4.32v-8.61h-4.3v8.57h-4.3c0-.17,0-.31,0-.46,0-4.15,0-8.29,0-12.44h-4.32v34.48h-12.9v4.3h12.92v4.31h4.29c0,1.43,0,2.87.01,4.3h4.28v4.32h-4.28c0,2.87,0,5.74,0,8.61h8.63v-4.28h21.5v4.31h-8.58v4.3h4.3v4.3h8.63v4.3h4.3v-8.61h12.9v-4.3h-8.6Zm-17.21-38.75h4.26v4.26h-4.26v-4.26Zm-8.65,30.12h-4.26v-4.26h4.26v4.26Zm.02-17.21v8.59h-4.31v-4.27h-4.3v4.29c-2.9,0-5.76,0-8.63,0v-4.3h4.28v-4.3h-4.26v-8.62h8.58v-4.3h12.93v8.58h8.63v4.32c-4.13,0-8.25,0-12.38,0-.18,0-.36,0-.54,0Zm8.61,12.92h-4.28v-4.28h4.28v4.28Zm8.6,4.29h-8.58v-4.28c2.85,0,5.71,0,8.58,0v4.28Zm0-12.93h-4.28c0-1.43,0-2.85,0-4.28h4.28v4.28Z"/><polygon class="cls-9_qr-code-64" points="201.54 233.02 201.54 233.01 201.53 233.01 201.54 233.02"/><polygon class="cls-9_qr-code-64" points="192.92 198.55 192.93 198.55 192.93 198.54 192.92 198.55"/><polygon class="cls-9_qr-code-64" points="175.68 164.07 175.68 164.08 175.69 164.08 175.68 164.07"/><polygon class="cls-9_qr-code-64" points="175.69 224.41 175.69 224.39 175.68 224.39 175.69 224.41"/><polygon class="cls-9_qr-code-64" points="218.77 220.09 218.77 220.1 218.78 220.1 218.77 220.09"/><polygon class="cls-9_qr-code-64" points="214.46 194.24 214.47 194.24 214.47 194.23 214.46 194.23 214.46 194.24"/><polygon class="cls-9_qr-code-64" points="175.69 211.47 175.68 211.47 175.68 211.48 175.69 211.48 175.69 211.47"/><path class="cls-9_qr-code-64" d="m167.04,146.86h-30.12v30.12h30.12v-30.12Zm-4.3,25.81h-21.5v-21.5h21.5v21.5Z"/><path class="cls-9_qr-code-64" d="m227.37,146.87h-30.12v30.12h30.12v-30.12Zm-4.3,25.81h-21.5v-21.5h21.5v21.5Z"/><path class="cls-9_qr-code-64" d="m136.93,237.3h30.12v-30.12h-30.12v30.12Zm4.31-25.8h21.5v21.5h-21.5v-21.5Z"/><polygon class="cls-9_qr-code-64" points="175.68 164.07 175.69 164.08 175.69 164.07 175.68 164.07"/><path class="cls-9_qr-code-64" d="m180.01,159.78h4.3v4.3h4.3v4.28h4.29v-8.6h-4.26v-4.31h4.26v-8.58h-21.5v8.6h4.29v8.61c1.43,0,2.86,0,4.32,0v-4.28Zm0-8.62h4.26v4.26h-4.26v-4.26Z"/><path class="cls-9_qr-code-64" d="m149.83,185.62v12.89h-8.64v-4.26h-4.27v8.57h17.22v-8.61h12.9v-4.3h-8.61v-4.3c-2.87,0-5.74,0-8.61,0Z"/><polygon class="cls-9_qr-code-64" points="149.82 185.62 149.83 185.62 149.83 185.61 149.82 185.62"/><path class="cls-9_qr-code-64" d="m171.4,237.31h12.88v-4.31h-4.3v-4.3h-4.3v-4.3c-1.43,0-2.86,0-4.28,0v12.9Z"/><polygon class="cls-9_qr-code-64" points="175.69 224.41 175.68 224.39 175.68 224.41 175.69 224.41"/><polygon class="cls-9_qr-code-64" points="149.82 185.62 149.83 185.61 149.82 185.61 149.82 185.62"/><path class="cls-9_qr-code-64" d="m136.93,181.34v8.57h4.29v-4.29h8.6c0-1.43,0-2.85,0-4.28h-12.89Z"/><path class="cls-9_qr-code-64" d="m227.37,194.22v-12.89h-8.57v4.3h4.3v8.59h4.27Z"/><polygon class="cls-9_qr-code-64" points="158.45 185.61 158.44 185.61 158.44 185.62 158.45 185.62 158.45 185.61"/><path class="cls-9_qr-code-64" d="m167.04,181.33h-8.59v4.28c2.86,0,5.72,0,8.59,0v-4.28Z"/><polygon class="cls-9_qr-code-64" points="218.77 202.85 218.78 202.86 218.78 202.85 218.77 202.85"/><path class="cls-9_qr-code-64" d="m223.06,198.57h-4.28v4.28c1.43,0,2.85,0,4.28,0v-4.28Z"/><path class="cls-9_qr-code-64" d="m227.37,207.18h-4.26v4.27h4.26v-4.27Z"/><polygon class="cls-9_qr-code-64" points="188.6 177 188.61 177.01 188.61 177 188.6 177"/><path class="cls-9_qr-code-64" d="m192.9,172.72h-4.28v4.28c1.43,0,2.85,0,4.28,0v-4.28Z"/><path class="cls-9_qr-code-64" d="m171.4,211.48v4.3h4.28v-4.3h-4.28Z"/><polygon class="cls-9_qr-code-64" points="175.68 215.78 175.68 215.79 175.69 215.79 175.69 215.78 175.68 215.78"/><polygon class="cls-9_qr-code-64" points="218.77 220.09 218.78 220.1 218.78 220.09 218.77 220.09"/><path class="cls-9_qr-code-64" d="m223.06,215.81h-4.28v4.28c1.43,0,2.85,0,4.28,0v-4.28Z"/><polygon class="cls-9_qr-code-64" points="214.47 189.93 214.47 189.92 214.46 189.92 214.46 189.93 214.47 189.93"/><path class="cls-9_qr-code-64" d="m218.75,194.23v-4.3h-4.28v4.3h4.28Z"/><path class="cls-9_qr-code-64" d="m188.63,233h4.26v-4.26h-4.26v4.26Z"/><polygon class="cls-9_qr-code-64" points="201.54 233.02 201.53 233.01 201.53 233.02 201.54 233.02"/><path class="cls-9_qr-code-64" d="m197.25,237.3h4.28v-4.28c-1.43,0-2.85,0-4.28,0v4.28Z"/><path class="cls-9_qr-code-64" d="m223.1,237.31h4.26v-4.26h-4.26v4.26Z"/><polygon class="cls-9_qr-code-64" points="192.92 198.55 192.93 198.54 192.92 198.54 192.92 198.55"/><path class="cls-9_qr-code-64" d="m188.64,194.26v4.28h4.28c0-1.43,0-2.85,0-4.28h-4.28Z"/><path class="cls-9_qr-code-64" d="m158.42,155.48h-12.88v12.88h12.88v-12.88Z"/><path class="cls-9_qr-code-64" d="m218.75,155.47h-12.88v12.88h12.88v-12.88Z"/><path class="cls-9_qr-code-64" d="m145.54,228.68h12.88v-12.88h-12.88v12.88Z"/></g></svg>