<svg id="_0414_restaurant" xmlns="http://www.w3.org/2000/svg" viewBox="0 0 500 500" data-imageid="restaurant-17" imageName="Restaurant" class="illustrations_image" style="width: 188px;"><defs><style>.cls-1_restaurant-17,.cls-2_restaurant-17{fill:#fff;}.cls-3_restaurant-17{fill:#a5a5a5;}.cls-2_restaurant-17{opacity:.3;}.cls-4_restaurant-17,.cls-5_restaurant-17{fill:#e6e6e6;}.cls-6_restaurant-17{fill:#24285b;}.cls-5_restaurant-17{opacity:.18;}.cls-7_restaurant-17{fill:#000001;opacity:.1;}.cls-8_restaurant-17{fill:#ffd200;}.cls-9_restaurant-17{fill:#68e1fd;}</style></defs><path id="bg_restaurant-17" class="cls-5_restaurant-17" d="m468.96,176.63c-15.8-54.1-34.16-110.45-97.24-136.98-69.55-29.25-163.88-23.51-243.42,11.4-24.95,10.95-52.26,41.32-70.76,62.48-34.3,39.22-43.56,125.7-10.92,169.01,14.53,19.28,38.79,26.49,61.66,30.83,87.01,16.54,176.27,7.38,264.42.52,20.44-1.59,41.73-3.32,59.37-14.42,37.42-23.54,49.1-81.06,36.9-122.84Z"/><g id="dinner_restaurant-17"><path class="cls-9_restaurant-17 targetColor" d="m218.61,207.08c0,5.08-2.41,11.65-5.39,11.65s-5.39-6.57-5.39-11.65,2.41-6.74,5.39-6.74,5.39,1.66,5.39,6.74Z" style="fill: rgb(104, 225, 253);"/><path class="cls-8_restaurant-17" d="m99.78,174.81c-3.56,2.21-8.36.86-9.11-3.61-.2-1.2.08-2.48.76-3.48.64-.93,1.58-1.61,2.34-2.44.77-.84,1.35-1.84,1.69-2.92.44-1.37.42-3.06-.63-4.04,2.37.58,4.6,1.83,6.18,3.68s2.5,4.31,2.33,6.74c-.18,2.43-1.49,4.79-3.56,6.08Z"/><path class="cls-1_restaurant-17" d="m106.82,180.71c-.97-3.22-5.01-2.98-8.13-2.81.07-.41.16-.82.29-1.23.36-1.13,1.1-2.14,1.31-3.32.07-.4-.11-.81-.53-.93-.36-.1-.85.12-.93.53-.11.59-.36,1.1-.62,1.63-.29.58-.54,1.19-.73,1.81-.16.51-.25,1.04-.33,1.57-.08,0-.17,0-.25,0-2.06,0-5.24-.94-6.79.76-.1.11-.19.22-.27.35-1.18,1.81-.59,4.29-.59,6.31v88.8h15.14v-84.17c0-.89.33-4.87.86-5.32.23-.19.5-.33.73-.51,1-.78,1.19-2.27.83-3.48Z"/><rect class="cls-4_restaurant-17" x="60.64" y="319.61" width="382.65" height="135.97"/><rect class="cls-3_restaurant-17" x="48.32" y="306.27" width="412.92" height="16.42" rx="4.94" ry="4.94"/><rect class="cls-7_restaurant-17" x="48.32" y="306.27" width="412.92" height="16.42" rx="4.94" ry="4.94"/><polygon class="cls-6_restaurant-17" points="257.86 467.83 102.88 306.27 401.56 306.27 257.86 467.83"/><path class="cls-1_restaurant-17" d="m429.79,197.21v44.65c0,1.81-.23,3.57-.68,5.25-2.07,7.96-8.77,14.05-17.03,15.29v38.09l12.45,5.77h-31.05l12.45-5.92v-37.94c-10.02-1.49-17.71-10.1-17.71-20.53v-44.65h41.58Z"/><path class="cls-9_restaurant-17 targetColor" d="m391.87,225.96v15.58c0,9.46,7.67,17.13,17.13,17.13h0c9.46,0,17.13-7.67,17.13-17.13v-15.58h-34.26Z" style="fill: rgb(104, 225, 253);"/><path class="cls-7_restaurant-17" d="m412.08,300.49l12.45,5.77h-31.05l12.45-5.92v-37.94c-10.02-1.49-17.71-10.1-17.71-20.53v-2.29c1.16.86,21.27,14.32,36.82,15.5-3.2,3.86-7.77,6.55-12.95,7.32v38.09Z"/><rect class="cls-8_restaurant-17" x="338.08" y="102.25" width="19.37" height="13.18"/><path class="cls-1_restaurant-17" d="m377.4,198.95v107.32h-59.27v-107.32c0-12.78,8.1-23.68,19.45-27.84,3.18-1.16,6.6-1.79,10.19-1.79s7.02.63,10.21,1.79c11.34,4.18,19.43,15.06,19.43,27.84Z"/><rect class="cls-1_restaurant-17" x="337.57" y="118.12" width="20.4" height="70.63"/><rect class="cls-3_restaurant-17" x="334.87" y="113.57" width="25.79" height="4.55" rx=".89" ry=".89"/><rect class="cls-9_restaurant-17 targetColor" x="322.75" y="202.33" width="50.04" height="98.8" style="fill: rgb(104, 225, 253);"/><rect class="cls-8_restaurant-17" x="322.75" y="231.2" width="39.84" height="47.34"/><path class="cls-7_restaurant-17" d="m377.4,261.98v44.29h-59.27v-86.44c1.45,2.85,2.98,5.65,4.63,8.38.62,1.01,1.24,2,1.88,2.98,1.04,1.6,2.13,3.17,3.27,4.7,8.62,11.59,20.73,21.26,34.67,24.48,1.52.35,3.06.62,4.61.81,1.85.23,3.72.35,5.59.45,1.54.09,3.08.18,4.61.33Z"/><rect class="cls-9_restaurant-17 targetColor" x="116.74" y="298.64" width="185.77" height="7.63" style="fill: rgb(104, 225, 253);"/><rect class="cls-9_restaurant-17 targetColor" x="86.97" y="278.56" width="20.01" height="27.71" style="fill: rgb(104, 225, 253);"/><rect class="cls-7_restaurant-17" x="86.97" y="278.56" width="20.01" height="27.71"/><rect class="cls-9_restaurant-17 targetColor" x="82.4" y="273.04" width="29.16" height="5.52" style="fill: rgb(104, 225, 253);"/><path class="cls-9_restaurant-17 targetColor" d="m206.67,215.24h6.42c46.03,0,83.39,37.37,83.39,83.39H123.28c0-46.03,37.37-83.39,83.39-83.39Z" style="fill: rgb(104, 225, 253);"/><path class="cls-9_restaurant-17 targetColor" d="m296.48,298.64H123.29c0-23.03,9.33-43.88,24.42-58.97,1.7-1.7,3.48-3.33,5.34-4.88,14.5-12.2,33.21-19.54,53.64-19.54h6.41c42.39,0,77.39,31.63,82.7,72.57.45,3.54.69,7.16.69,10.82Z" style="fill: rgb(104, 225, 253);"/><path class="cls-7_restaurant-17" d="m296.48,298.64H123.29c0-23.03,9.33-43.88,24.42-58.97,1.7-1.7,3.48-3.33,5.34-4.88,1.93,6.59,5.53,12.8,10.18,17.88,9.15,10.02,21.75,16.24,34.52,20.86,26.53,9.6,54.92,13.19,83.14,13.93,4.96.14,9.95.17,14.91.36.45,3.54.69,7.16.69,10.82Z"/><path class="cls-2_restaurant-17" d="m201.98,228.39c-4.23,1.67-7.38,4.66-7.83,9.79-.54,6.08,4.61,11.11,9.73,14.44,7.47,4.87,15.9,8.27,24.65,9.96,8.26,1.59,18.62,2.91,26.69.03,2.29-.82,4.49-2.07,6-3.97,4.19-5.27.94-11.96-3.06-16.2-6.9-7.31-16.3-11.57-25.97-13.81-9.35-2.17-21.04-3.86-30.22-.24Z"/></g></svg>