<svg xmlns="http://www.w3.org/2000/svg" version="1.1" viewBox="-5.0 -10.0 110.0 135.0">
 <g>
  <path d="m66.043 59.906c0.78125 0 1.4141-0.63281 1.4141-1.4141s-0.63281-1.4141-1.4141-1.4141h-12.98c-0.85547-2.4102-3.6211-3.5156-5.8906-2.3867l-12.504-12.121c-0.5625-0.54297-1.457-0.53125-2 0.03125s-0.53125 1.457 0.03125 2l12.504 12.121c-0.53516 1.1602-0.51562 2.5 0.050781 3.6445l-11.734 12.039c-0.54688 0.55859-0.53516 1.457 0.027344 2 0.55859 0.54297 1.457 0.53516 2-0.027344l11.734-12.039c2.2656 1.0508 4.9492-0.085938 5.7812-2.4375zm-16.98 0c-0.77344 0-1.4062-0.63281-1.4141-1.3945-0.011719-0.76562 0.61328-1.4336 1.4141-1.4336 0.78125 0 1.4141 0.63281 1.4141 1.4141 0 0.77734-0.63281 1.4141-1.4141 1.4141z " fill="#2f2d3e"/>
  <path d="m77.367 78.301h2.832c0.78125 0 1.4141-0.63281 1.4141-1.4141s-0.63281-1.4141-1.4141-1.4141h-1.4141v-1.4141c0-0.78125-0.63281-1.4141-1.4141-1.4141s-1.4141 0.63281-1.4141 1.4141v1.6602c-1.6484 0.58594-2.832 2.1562-2.832 4 0 2.3398 1.9062 4.2461 4.2461 4.2461 0.78125 0 1.4141 0.63281 1.4141 1.4141s-0.63281 1.4141-1.4141 1.4141h-2.832c-0.78125 0-1.4141 0.63281-1.4141 1.4141s0.63281 1.4141 1.4141 1.4141h1.4141v1.4141c0 0.78125 0.63281 1.4141 1.4141 1.4141s1.4141-0.63281 1.4141-1.4141v-1.6602c1.6484-0.58594 2.832-2.1562 2.832-4 0-2.3398-1.9062-4.2461-4.2461-4.2461-0.78125 0-1.4141-0.63281-1.4141-1.4141-0.003906-0.77734 0.63281-1.4141 1.4141-1.4141z" fill="#2f2d3e"/>
  <path d="m86.906 70.262c1.1797-3.7969 1.7812-7.75 1.7812-11.77 0-9.3281-3.2578-18.02-8.7852-24.875l2.793-2.8906 2.0352 1.9648c0.5625 0.54297 1.457 0.52734 2-0.035156l3.9336-4.0703c0.54297-0.5625 0.52734-1.457-0.035156-2l-10.18-9.832c-0.5625-0.54297-1.457-0.52734-2 0.035156l-3.9336 4.0703c-0.54297 0.5625-0.52734 1.457 0.035156 2l2.0352 1.9648-2.6914 2.7891c-5.0117-4.0352-11.055-6.8945-17.754-8.1094v-3.4648h3.3008c2.8594 0 5.1875-2.3281 5.1875-5.1875v-3.7734c0-2.8594-2.3281-5.1875-5.1875-5.1875h-7.4844c-0.78125 0-1.4141 0.63281-1.4141 1.4141s0.63281 1.4141 1.4141 1.4141h7.4844c1.3008 0 2.3594 1.0586 2.3594 2.3594v3.7734c0 1.3008-1.0586 2.3594-2.3594 2.3594h-20.754c-1.3008 0-2.3594-1.0586-2.3594-2.3594v-3.7734c0-1.3008 1.0586-2.3594 2.3594-2.3594h7.6094c0.78125 0 1.4141-0.63281 1.4141-1.4141s-0.63281-1.4141-1.4141-1.4141h-7.6094c-2.8594 0-5.1875 2.3281-5.1875 5.1875v3.7734c0 2.8594 2.3281 5.1875 5.1875 5.1875h3.3008v3.4688c-6.6211 1.2031-12.605 4.0078-17.582 7.9688l-2.8633-2.9648 2.0352-1.9648c0.5625-0.54297 0.57812-1.4375 0.035156-2l-3.9336-4.0703c-0.54297-0.5625-1.4375-0.57812-2-0.035156l-10.18 9.832c-0.5625 0.54297-0.57812 1.4375-0.035156 2l3.9336 4.0703c0.54297 0.5625 1.4375 0.57812 2 0.035156l2.0352-1.9648 2.9336 3.0352c-5.6133 6.8711-8.9258 15.629-8.9258 25.043 0 7.2305 1.9648 14.305 5.6836 20.461 0.40625 0.67188 1.2773 0.88281 1.9414 0.48047 0.66797-0.40234 0.88281-1.2734 0.48047-1.9414-3.4492-5.7188-5.2734-12.289-5.2734-19 0-20.316 16.477-36.793 36.793-36.793 20.289 0 36.793 16.453 36.793 36.793 0 3.4727-0.48047 6.8945-1.4297 10.191-1.2539-0.64062-2.6016-1.1172-4.0195-1.3984 5.7812-20.516-9.6523-41.34-31.348-41.34-17.938 0-32.547 14.602-32.547 32.547 0 17.938 14.602 32.547 32.547 32.547 4.7422 0 9.4531-1.0469 13.727-3.0312 0.50391 1.3438 1.1914 2.6016 2.0273 3.7383-4.8906 2.3164-10.297 3.5352-15.754 3.5352-11.004 0-21.344-4.8672-28.363-13.355-0.5-0.60156-1.3906-0.6875-1.9922-0.1875-0.60156 0.5-0.6875 1.3906-0.1875 1.9922 7.5625 9.1406 18.695 14.383 30.543 14.383 6.1484 0 12.25-1.4414 17.711-4.1719 2.7812 2.5859 6.5039 4.1719 10.594 4.1719 8.582 0 15.566-6.9844 15.566-15.566-0.003906-4.9883-2.3633-9.4336-6.0273-12.285zm-74.457-40.906-1.9648-2.0352 8.1445-7.8633 1.9648 2.0352c-1.9219 1.8516-6.1289 5.918-8.1445 7.8633zm5.0195-0.91406 2.0352-1.9648 2.7461 2.8438c-0.69531 0.64063-1.3672 1.3047-2.0156 1.9883zm35.84-9.3438c-2.8359-0.30469-5.6484-0.30469-8.4922 0v-3.0586h8.4922zm26.191 0.67578 8.1445 7.8633-1.9648 2.0352c-1.293-1.25-7.3672-7.1172-8.1445-7.8633zm-0.87891 7.0195 2.0352 1.9648-2.6172 2.7109c-0.64453-0.69141-1.3086-1.3594-2-2zm-28.141 61.379v-2.793c0-0.78125-0.63281-1.4141-1.4141-1.4141s-1.4141 0.63281-1.4141 1.4141v2.7969c-7.1289-0.33594-13.609-3.1953-18.562-7.7031l1.9688-1.9688c0.55078-0.55469 0.55078-1.4492 0-2-0.55469-0.55078-1.4492-0.55078-2 0l-1.9688 1.9688c-4.5078-4.9531-7.3672-11.434-7.7031-18.562h2.7969c0.78125 0 1.4141-0.63281 1.4141-1.4141s-0.63281-1.4141-1.4141-1.4141l-2.8008-0.007812c0.33594-7.1289 3.1953-13.609 7.7031-18.562l1.9688 1.9688c0.55469 0.55078 1.4492 0.55078 2 0 0.55078-0.55469 0.55078-1.4492 0-2l-1.9688-1.9688c4.9531-4.5078 11.434-7.3672 18.562-7.7031v2.7969c0 0.78125 0.63281 1.4141 1.4141 1.4141s1.4141-0.63281 1.4141-1.4141v-2.7969c7.1289 0.33594 13.609 3.1953 18.562 7.7031l-1.9688 1.9688c-0.55078 0.55469-0.55078 1.4492 0 2 0.55469 0.55078 1.4492 0.55078 2 0l1.9688-1.9688c4.5078 4.9531 7.3672 11.434 7.7031 18.562h-2.7969c-0.78125 0-1.4141 0.63281-1.4141 1.4141s0.63281 1.4141 1.4141 1.4141h2.7969c-0.11328 2.4102-0.51563 4.7812-1.1992 7.082-0.0625 0-0.12109-0.003906-0.18359-0.003906-9.582 0-17.004 8.6562-15.328 18.25-3.5898 1.7422-7.5391 2.7461-11.551 2.9414zm26.887 7.1094c-7.0234 0-12.734-5.7148-12.734-12.734 0-7.0234 5.7148-12.734 12.734-12.734 7.0234 0 12.734 5.7148 12.734 12.734 0 7.0234-5.7148 12.734-12.734 12.734z" fill="#2f2d3e"/>
 </g>
</svg>